<svg xmlns="http://www.w3.org/2000/svg" width="305" height="331" viewBox="0 0 305 331"><rect width="100%" height="100%" fill="#DDDDDD"/><path fill="#999999" d="m64.795 159.41-2.67-.47q.31-2.13 1.19-3.74.88-1.61 2.2-2.69 1.33-1.07 3.04-1.62 1.71-.54 3.68-.54 2.05 0 3.7.58 1.65.59 2.82 1.62 1.16 1.04 1.79 2.43.63 1.4.63 3.02 0 1.41-.32 2.49-.32 1.07-.91 1.87-.6.8-1.48 1.35-.88.56-1.99.93 2.67.84 3.98 2.56 1.31 1.72 1.31 4.33 0 2.21-.82 3.91-.82 1.7-2.21 2.86-1.4 1.16-3.23 1.75-1.84.6-3.89.6-2.23 0-3.89-.51-1.66-.52-2.89-1.52-1.23-1.01-2.09-2.46-.86-1.46-1.48-3.36l2.23-.93q.89-.36 1.65-.19.77.17 1.12.83.37.72.81 1.41.44.7 1.06 1.24.61.55 1.44.89.83.33 1.98.33 1.29 0 2.26-.42.96-.42 1.61-1.09.64-.68.96-1.51.32-.83.32-1.67 0-1.07-.23-1.94-.22-.87-.94-1.48-.72-.62-2.06-.97t-3.6-.35v-3.6q1.87-.02 3.1-.35 1.23-.33 1.95-.91.73-.59 1.02-1.41.28-.82.28-1.8 0-2.09-1.16-3.18-1.17-1.09-3.12-1.09-.9 0-1.66.26-.76.26-1.36.72-.61.46-1.02 1.07-.41.62-.61 1.36-.35.94-.92 1.25-.56.3-1.58.14Zm41.65 6.09q0 3.87-.83 6.73-.83 2.86-2.29 4.73-1.47 1.86-3.47 2.78-2 .91-4.31.91-2.32 0-4.3-.91-1.98-.92-3.43-2.78-1.46-1.87-2.28-4.73-.82-2.86-.82-6.73 0-3.9.82-6.75t2.28-4.71q1.45-1.87 3.43-2.78 1.98-.91 4.3-.91 2.31 0 4.31.91 2 .91 3.47 2.78 1.46 1.86 2.29 4.71.83 2.85.83 6.75Zm-5.23 0q0-3.22-.47-5.33t-1.26-3.36q-.79-1.25-1.81-1.76-1.03-.5-2.13-.5-1.09 0-2.11.5-1.01.51-1.79 1.76t-1.24 3.36q-.46 2.11-.46 5.33t.46 5.33q.46 2.11 1.24 3.36t1.79 1.75q1.02.51 2.11.51 1.1 0 2.13-.51 1.02-.5 1.81-1.75t1.26-3.36q.47-2.11.47-5.33Zm15.63-10.23-1.05 6.17q.98-.21 1.89-.3.9-.09 1.74-.09 2.34 0 4.12.7 1.78.69 2.99 1.92 1.21 1.23 1.83 2.88.61 1.65.61 3.56 0 2.36-.83 4.31-.83 1.94-2.3 3.33-1.48 1.38-3.5 2.14-2.02.76-4.4.76-1.39 0-2.64-.29-1.25-.29-2.35-.77-1.1-.48-2.03-1.1-.93-.63-1.67-1.33l1.56-2.15q.49-.7 1.29-.7.51 0 1.05.33.53.33 1.22.72.68.39 1.61.72.94.32 2.25.32 1.39 0 2.46-.45t1.77-1.26q.71-.81 1.07-1.92.36-1.12.36-2.43 0-2.42-1.41-3.79-1.4-1.36-4.15-1.36-2.11 0-4.32.78l-3.16-.9 2.46-14.39h14.64v2.15q0 1.09-.68 1.76-.68.68-2.3.68h-8.13Zm45.94 18.26-2.69 2.65-6.95-6.95-7.01 6.99-2.69-2.64 7.02-7.04-6.69-6.68 2.67-2.66 6.68 6.68 6.64-6.64 2.71 2.66-6.66 6.66 6.97 6.97Zm17.05-14.12-2.66-.47q.3-2.13 1.19-3.74.88-1.61 2.2-2.69 1.32-1.07 3.03-1.62 1.72-.54 3.68-.54 2.05 0 3.7.58 1.65.59 2.82 1.62 1.17 1.04 1.8 2.43.62 1.4.62 3.02 0 1.41-.32 2.49-.31 1.07-.91 1.87-.59.8-1.47 1.35-.89.56-1.99.93 2.66.84 3.97 2.56 1.32 1.72 1.32 4.33 0 2.21-.82 3.91-.82 1.7-2.22 2.86-1.39 1.16-3.23 1.75-1.83.6-3.88.6-2.24 0-3.9-.51-1.66-.52-2.89-1.52-1.23-1.01-2.09-2.46-.86-1.46-1.47-3.36l2.23-.93q.88-.36 1.65-.19.77.17 1.12.83.37.72.81 1.41.44.7 1.05 1.24.62.55 1.45.89.83.33 1.98.33 1.29 0 2.25-.42.97-.42 1.61-1.09.65-.68.96-1.51.32-.83.32-1.67 0-1.07-.22-1.94-.23-.87-.95-1.48-.71-.62-2.06-.97-1.34-.35-3.59-.35v-3.6q1.86-.02 3.09-.35 1.23-.33 1.96-.91.73-.59 1.01-1.41.29-.82.29-1.8 0-2.09-1.17-3.18-1.17-1.09-3.11-1.09-.91 0-1.66.26-.76.26-1.37.72-.6.46-1.01 1.07-.41.62-.62 1.36-.35.94-.91 1.25-.56.3-1.59.14Zm23.78 0-2.66-.47q.3-2.13 1.19-3.74.88-1.61 2.2-2.69 1.32-1.07 3.03-1.62 1.72-.54 3.68-.54 2.05 0 3.7.58 1.65.59 2.82 1.62 1.17 1.04 1.8 2.43.62 1.4.62 3.02 0 1.41-.32 2.49-.31 1.07-.91 1.87-.59.8-1.47 1.35-.89.56-1.99.93 2.66.84 3.97 2.56 1.32 1.72 1.32 4.33 0 2.21-.82 3.91-.82 1.7-2.22 2.86-1.39 1.16-3.23 1.75-1.83.6-3.88.6-2.24 0-3.9-.51-1.66-.52-2.89-1.52-1.23-1.01-2.09-2.46-.86-1.46-1.47-3.36l2.23-.93q.88-.36 1.65-.19.77.17 1.12.83.37.72.81 1.41.44.7 1.05 1.24.62.55 1.45.89.83.33 1.98.33 1.29 0 2.25-.42.97-.42 1.61-1.09.65-.68.96-1.51.32-.83.32-1.67 0-1.07-.22-1.94-.23-.87-.95-1.48-.71-.62-2.06-.97-1.34-.35-3.59-.35v-3.6q1.86-.02 3.09-.35 1.23-.33 1.96-.91.73-.59 1.01-1.41.29-.82.29-1.8 0-2.09-1.17-3.18-1.17-1.09-3.11-1.09-.91 0-1.66.26-.76.26-1.37.72-.6.46-1.01 1.07-.41.62-.62 1.36-.35.94-.91 1.25-.56.3-1.59.14Zm34.79 17.12h5.33v3.79h-16.4v-3.79h6.01v-17.28q0-1.03.06-2.12l-4.27 3.57q-.36.29-.72.36t-.68.01q-.32-.06-.56-.21-.25-.16-.37-.34l-1.6-2.2 9.04-7.68h4.16v25.89Z"/></svg>