<svg width="125" height="28" viewBox="0 0 125 28" fill="none" xmlns="http://www.w3.org/2000/svg">
<path fill-rule="evenodd" clip-rule="evenodd" d="M7.74985 1.46936C9.63116 0.529169 11.7538 0.000183105 14 0.000183105C21.732 0.000183105 28 6.2682 28 14.0002C28 16.5954 27.2939 19.0257 26.0632 21.1094C24.6677 21.159 23.2839 20.9619 22.017 20.5314C21.3143 20.3017 20.6333 19.9961 20.0088 19.6147C20.3761 19.137 20.6964 18.6255 20.9556 18.0885C21.9327 16.1174 22.1686 13.8598 21.7643 11.7539C21.5621 10.7093 21.2083 9.68161 20.7534 8.73815C20.2985 7.77784 19.7257 6.90177 19.1023 6.05939C19.0013 5.92461 18.8833 5.80668 18.7317 5.72244C18.1083 5.35179 17.3165 5.55396 16.9459 6.16047L16.8785 6.26156C16.0024 8.09794 15.278 10.0354 15.0589 12.1413C14.9579 13.1859 14.9915 14.2641 15.2274 15.3087C15.4633 16.3532 15.935 17.3641 16.5921 18.1896C16.8187 18.4802 17.0675 18.7488 17.3327 18.996C16.747 19.4987 16.0734 19.8932 15.3453 20.1439C14.5872 20.4135 13.7954 20.5314 12.9867 20.5146C12.178 20.4977 11.3525 20.3461 10.628 20.0765C9.88675 19.807 9.22969 19.3858 8.64003 18.8804C8.06721 18.3581 7.56179 17.7347 7.15745 17.044C6.75311 16.3532 6.41616 15.5951 6.18029 14.8033C5.94443 13.9946 5.77595 13.169 5.69172 12.3267C5.64214 11.9136 5.62498 11.4842 5.60844 11.0705L5.60748 11.0463C5.59063 10.6251 5.60748 10.187 5.62432 9.76584C5.67487 8.90662 5.7591 8.0474 5.92758 7.20502C6.24768 5.50342 6.7868 3.83552 7.51125 2.28555C7.57864 2.11707 7.64602 1.93175 7.69657 1.74642C7.71915 1.65404 7.73685 1.5616 7.74985 1.46936ZM1.26532 8.17581C1.27456 8.73528 1.30029 9.29506 1.34505 9.85008C1.39559 10.3724 1.44614 10.8946 1.53037 11.4169C1.61461 11.9392 1.69885 12.4615 1.81678 12.9837C2.05265 14.0114 2.37275 15.0391 2.79394 16.0331C3.21513 17.0271 3.72055 18.0043 4.3776 18.8972C5.01781 19.807 5.80965 20.6157 6.71941 21.2896C7.62918 21.9635 8.65688 22.4689 9.73512 22.789C10.2742 22.9575 10.8302 23.0585 11.3693 23.1259C11.9253 23.1933 12.4644 23.2102 13.0204 23.1933C14.1323 23.1596 15.2274 22.9238 16.2551 22.5026C16.7605 22.2836 17.2491 22.0308 17.7208 21.7276C18.1757 21.4412 18.6138 21.0874 19.0181 20.7167C19.1351 20.6047 19.2495 20.4898 19.3611 20.372C20.145 20.753 20.9737 21.0144 21.8148 21.1885C22.7919 21.3906 23.7691 21.458 24.7463 21.4243C25.1484 21.4035 25.5476 21.3656 25.9428 21.3094C23.4812 25.3229 19.0533 28.0002 14 28.0002C6.26801 28.0002 0 21.7322 0 14.0002C0 11.9219 0.452873 9.94929 1.26532 8.17581ZM18.2107 18.0779C18.467 17.7513 18.693 17.3992 18.8833 17.0271C19.254 16.3027 19.4898 15.5109 19.5909 14.6853C19.692 13.8598 19.6246 13.0343 19.4561 12.2087C19.2877 11.3832 18.9676 10.5914 18.5632 9.85008C18.4645 9.67636 18.3612 9.50449 18.2532 9.33512C17.7449 10.341 17.3392 11.383 17.0975 12.4446C16.9122 13.3038 16.8279 14.1631 16.929 15.0054C17.0132 15.8478 17.2828 16.6733 17.7377 17.4146C17.8795 17.6457 18.0377 17.867 18.2107 18.0779Z" fill="#232557"/>
<path d="M35 11.1081H38.8255V22.9825L37.0505 23.2273C36.418 23.2273 35.9181 23.0437 35.5509 22.6765C35.1836 22.3092 35 21.8195 35 21.2075V11.1081ZM37.0505 23.2273V20.1057H46.7826C46.905 20.2485 47.007 20.4526 47.0886 20.7178C47.1906 20.983 47.2417 21.2789 47.2417 21.6053C47.2417 22.1358 47.109 22.5438 46.8438 22.8295C46.599 23.0947 46.2623 23.2273 45.8339 23.2273H37.0505ZM38.8255 15.3621H35V4.62001C35.1632 4.57921 35.4081 4.5282 35.7345 4.46699C36.0813 4.40579 36.4282 4.37518 36.775 4.37518C37.4891 4.37518 38.0094 4.5078 38.3359 4.77304C38.6623 5.01787 38.8255 5.47693 38.8255 6.15022V15.3621Z" fill="#232558"/>
<path d="M51.4366 17.8716L51.2836 15.2396L59.5161 14.0461C59.4549 13.2504 59.1488 12.5669 58.5979 11.9956C58.0675 11.4039 57.2922 11.1081 56.272 11.1081C55.2111 11.1081 54.3338 11.4753 53.6401 12.2098C52.9464 12.9443 52.5893 13.9951 52.5689 15.3621L52.6607 16.9229C52.824 18.2287 53.3238 19.1978 54.1603 19.8303C54.9969 20.4424 56.0578 20.7484 57.3432 20.7484C58.2001 20.7484 58.9958 20.626 59.7303 20.3811C60.4648 20.1159 61.0463 19.8303 61.4747 19.5242C61.74 19.7079 61.9542 19.9425 62.1174 20.2281C62.301 20.4934 62.3929 20.779 62.3929 21.085C62.3929 21.6155 62.1582 22.0746 61.689 22.4622C61.2401 22.8295 60.6178 23.1151 59.8221 23.3191C59.0264 23.5232 58.1185 23.6252 57.0983 23.6252C55.5273 23.6252 54.1297 23.3395 52.9056 22.7683C51.7018 22.1766 50.7633 21.2993 50.09 20.1363C49.4167 18.9734 49.0801 17.535 49.0801 15.8211C49.0801 14.5562 49.2637 13.4544 49.6309 12.5159C50.0186 11.5774 50.5389 10.8021 51.1917 10.19C51.865 9.55748 52.6403 9.08822 53.5177 8.78218C54.395 8.45573 55.3131 8.29251 56.272 8.29251C57.6186 8.29251 58.7918 8.56795 59.7915 9.11882C60.8116 9.6493 61.6073 10.394 62.1786 11.3529C62.7499 12.3119 63.0355 13.4136 63.0355 14.6582C63.0355 15.2294 62.8927 15.6579 62.6071 15.9435C62.3214 16.2088 61.9134 16.372 61.3829 16.4332L51.4366 17.8716Z" fill="#232558"/>
<path d="M69.8359 12.1486V16.372H66.1022V11.8732C66.1022 11.3631 66.2246 10.9347 66.4694 10.5878C66.7143 10.2206 67.0611 9.89413 67.51 9.60849C68.122 9.22084 68.8973 8.90459 69.8359 8.65976C70.7744 8.41493 71.7843 8.29251 72.8657 8.29251C74.7631 8.29251 75.7119 8.88419 75.7119 10.0676C75.7119 10.3328 75.6711 10.5878 75.5895 10.8327C75.5078 11.0775 75.4058 11.2815 75.2834 11.4447C75.0794 11.4039 74.8243 11.3733 74.5183 11.3529C74.2123 11.3121 73.896 11.2917 73.5696 11.2917C72.8147 11.2917 72.1108 11.3733 71.4579 11.5366C70.8254 11.6998 70.2847 11.9038 69.8359 12.1486ZM66.1022 15.1172L69.8359 15.3009V23.1355C69.6727 23.1967 69.438 23.2477 69.132 23.2885C68.8259 23.3497 68.4995 23.3804 68.1526 23.3804C67.459 23.3804 66.9387 23.2579 66.5918 23.0131C66.2654 22.7683 66.1022 22.3194 66.1022 21.6665V15.1172Z" fill="#232558"/>
<path d="M91.3106 13.74V16.7393H87.6075V13.8931C87.6075 12.9749 87.3423 12.3119 86.8118 11.9038C86.3018 11.4753 85.6081 11.2611 84.7308 11.2611C84.1187 11.2611 83.5576 11.3427 83.0475 11.5059C82.5375 11.6488 82.0886 11.8324 81.701 12.0568V16.7393H77.9672V11.812C77.9672 11.3223 78.0693 10.9245 78.2733 10.6184C78.4773 10.3124 78.7936 10.0165 79.222 9.73091C79.8137 9.34325 80.589 9.00661 81.5479 8.72097C82.5273 8.43533 83.5984 8.29251 84.7614 8.29251C86.822 8.29251 88.4237 8.75157 89.5662 9.6697C90.7292 10.5878 91.3106 11.9446 91.3106 13.74ZM77.9672 15.209H81.701V23.1355C81.5377 23.1967 81.3031 23.2477 80.9971 23.2885C80.691 23.3497 80.3646 23.3804 80.0177 23.3804C79.324 23.3804 78.8038 23.2579 78.4569 23.0131C78.1305 22.7683 77.9672 22.3194 77.9672 21.6665V15.209ZM87.6075 15.209H91.3106V23.1355C91.1678 23.1967 90.9332 23.2477 90.6068 23.2885C90.3007 23.3497 89.9743 23.3804 89.6274 23.3804C88.9337 23.3804 88.4237 23.2579 88.0972 23.0131C87.7708 22.7683 87.6075 22.3194 87.6075 21.6665V15.209Z" fill="#232558"/>
<path d="M96.9244 17.8716L96.7713 15.2396L105.004 14.0461C104.943 13.2504 104.637 12.5669 104.086 11.9956C103.555 11.4039 102.78 11.1081 101.76 11.1081C100.699 11.1081 99.8215 11.4753 99.1279 12.2098C98.4342 12.9443 98.0771 13.9951 98.0567 15.3621L98.1485 16.9229C98.3117 18.2287 98.8116 19.1978 99.6481 19.8303C100.485 20.4424 101.546 20.7484 102.831 20.7484C103.688 20.7484 104.484 20.626 105.218 20.3811C105.953 20.1159 106.534 19.8303 106.963 19.5242C107.228 19.7079 107.442 19.9425 107.605 20.2281C107.789 20.4934 107.881 20.779 107.881 21.085C107.881 21.6155 107.646 22.0746 107.177 22.4622C106.728 22.8295 106.106 23.1151 105.31 23.3191C104.514 23.5232 103.606 23.6252 102.586 23.6252C101.015 23.6252 99.6175 23.3395 98.3934 22.7683C97.1896 22.1766 96.2511 21.2993 95.5778 20.1363C94.9045 18.9734 94.5678 17.535 94.5678 15.8211C94.5678 14.5562 94.7515 13.4544 95.1187 12.5159C95.5064 11.5774 96.0266 10.8021 96.6795 10.19C97.3528 9.55748 98.1281 9.08822 99.0054 8.78218C99.8828 8.45573 100.801 8.29251 101.76 8.29251C103.106 8.29251 104.28 8.56795 105.279 9.11882C106.299 9.6493 107.095 10.394 107.666 11.3529C108.238 12.3119 108.523 13.4136 108.523 14.6582C108.523 15.2294 108.381 15.6579 108.095 15.9435C107.809 16.2088 107.401 16.372 106.871 16.4332L96.9244 17.8716Z" fill="#232558"/>
<path d="M124.933 13.74V16.7393H121.23V13.8931C121.23 12.9749 120.965 12.3119 120.435 11.9038C119.924 11.4753 119.231 11.2611 118.353 11.2611C117.741 11.2611 117.18 11.3427 116.67 11.5059C116.16 11.6488 115.711 11.8324 115.324 12.0568V16.7393H111.59V11.812C111.59 11.3223 111.692 10.9245 111.896 10.6184C112.1 10.3124 112.416 10.0165 112.845 9.73091C113.436 9.34325 114.212 9.00661 115.171 8.72097C116.15 8.43533 117.221 8.29251 118.384 8.29251C120.445 8.29251 122.046 8.75157 123.189 9.6697C124.352 10.5878 124.933 11.9446 124.933 13.74ZM111.59 15.209H115.324V23.1355C115.16 23.1967 114.926 23.2477 114.62 23.2885C114.314 23.3497 113.987 23.3804 113.64 23.3804C112.947 23.3804 112.426 23.2579 112.08 23.0131C111.753 22.7683 111.59 22.3194 111.59 21.6665V15.209ZM121.23 15.209H124.933V23.1355C124.791 23.1967 124.556 23.2477 124.229 23.2885C123.923 23.3497 123.597 23.3804 123.25 23.3804C122.556 23.3804 122.046 23.2579 121.72 23.0131C121.393 22.7683 121.23 22.3194 121.23 21.6665V15.209Z" fill="#232558"/>
</svg>
