<svg width="85" height="85" viewBox="0 0 85 85" fill="none" xmlns="http://www.w3.org/2000/svg">
<path d="M12.6981 57.1287L13.3905 56.7404L15.2241 60.0098L10.0737 62.8982L8.24015 59.6288L8.92901 59.2425L10.3142 61.7124L11.8204 60.8677L10.5093 58.5298L11.1732 58.1575L12.4843 60.4953L14.0833 59.5986L12.6981 57.1287Z" fill="black"/>
<path d="M12.3187 54.478L8.91983 53.4563L8.89241 53.4645L6.65957 56.1646L6.34387 55.1186L8.10899 53.0641L8.09953 53.0328L5.48781 52.2822L5.18867 51.291L8.59149 52.3542L8.615 52.3471L10.8525 49.6201L11.1623 50.6465L9.43205 52.7032L9.44032 52.7307L12.0254 53.5064L12.3187 54.478Z" fill="black"/>
<path d="M4.49666 47.3486L4.34051 45.1402C4.2597 43.9972 4.99124 43.1456 6.13829 43.0644C7.28941 42.9831 8.13876 43.7394 8.22044 44.8946L8.30992 46.16L10.3223 46.0177L10.387 46.9321L4.49666 47.3486ZM5.20351 46.3797L7.5425 46.2143L7.46832 45.1652C7.41204 44.3692 6.95139 43.9464 6.20846 43.9989C5.46554 44.0515 5.07305 44.5346 5.12904 45.3265L5.20351 46.3797Z" fill="black"/>
<path d="M9.89588 36.3069L10.6829 36.4111L10.2014 40.046L4.3475 39.2706L4.46787 38.3619L9.53477 39.033L9.89588 36.3069Z" fill="black"/>
<path d="M6.39639 29.5732C6.97767 27.9775 8.44676 27.376 10.2116 28.0189C11.9765 28.6618 12.7106 30.0659 12.1293 31.6616C11.5467 33.2611 10.0828 33.8602 8.31795 33.2173C6.55308 32.5744 5.81372 31.1728 6.39639 29.5732ZM7.15387 29.8491C6.77009 30.9027 7.34292 31.8648 8.6387 32.3368C9.93063 32.8075 10.9881 32.4392 11.3719 31.3857C11.7556 30.3321 11.1814 29.3738 9.88948 28.9032C8.5937 28.4312 7.53764 28.7956 7.15387 29.8491Z" fill="black"/>
<path d="M10.519 22.8515L12.2869 24.0285L12.999 22.959C13.3913 22.3697 13.2923 21.817 12.7302 21.4428C12.1818 21.0777 11.6099 21.2131 11.2175 21.8024L10.519 22.8515ZM12.9034 24.439L14.794 25.6977L14.286 26.4607L9.37064 23.1882L10.6384 21.2841C11.3119 20.2724 12.3174 20.0323 13.2337 20.6423C13.8979 21.0846 14.2002 21.7971 14.0021 22.5305L16.7443 22.7682L16.1592 23.6471L13.6019 23.3899L12.9034 24.439Z" fill="black"/>
<path d="M20.6166 17.5781L21.1715 18.1459L18.4908 20.7659L14.3633 16.543L17.044 13.9229L17.5961 14.4877L15.5709 16.4671L16.778 17.7021L18.6948 15.8285L19.2269 16.3729L17.31 18.2464L18.5914 19.5575L20.6166 17.5781Z" fill="black"/>
<path d="M30.0603 12.6405L29.3585 12.3597C29.1072 12.9431 28.5953 13.4562 27.9606 13.7605C26.8794 14.2787 25.8568 14.0201 25.4288 13.1271C25.1334 12.5108 25.2389 11.8884 25.754 11.1832C25.8213 11.0965 25.8964 10.9879 25.9187 10.9681C25.1966 10.6925 24.8548 10.4434 24.6673 10.0522C24.3383 9.36588 24.6902 8.56639 25.4947 8.18078C26.3102 7.78986 27.1284 8.01031 27.4645 8.71144C27.7245 9.25389 27.5887 9.8227 27.0026 10.6165L28.8374 11.3389C28.8544 10.9768 28.7389 10.5465 28.4594 9.96349L28.3622 9.76054L29.078 9.41737L29.1859 9.64247C29.5468 10.3953 29.675 11.0508 29.5922 11.626L31.0308 12.1753L30.0603 12.6405ZM26.4149 11.3974C26.0672 11.9407 26.0006 12.313 26.1828 12.693C26.4481 13.2466 27.0715 13.4016 27.7321 13.0849C28.1749 12.8727 28.5456 12.4816 28.6693 12.0865L26.5385 11.2292C26.5048 11.2726 26.4392 11.363 26.4149 11.3974ZM26.3968 10.394C26.8366 9.81566 26.9359 9.45491 26.7643 9.09696C26.5804 8.71319 26.1836 8.57662 25.7814 8.76943C25.3902 8.95693 25.2407 9.36444 25.4229 9.74452C25.5556 10.0213 25.8144 10.1922 26.3968 10.394Z" fill="black"/>
<path d="M37.6783 10.533L36.7682 10.6422L36.0645 4.77926L39.7253 4.33985L39.8194 5.12402L37.0687 5.45418L37.2916 7.31099L39.8107 7.00862L39.9028 7.77654L37.3838 8.07891L37.6783 10.533Z" fill="black"/>
<path d="M44.0455 10.2225L43.1292 10.1975L43.2905 4.29462L44.2068 4.31966L44.0455 10.2225Z" fill="black"/>
<path d="M47.8018 10.5814L46.9305 10.3899L48.1981 4.62248L49.0094 4.8008L51.0644 9.71047L51.0964 9.7175L52.031 5.46489L52.9023 5.65639L51.6348 11.4238L50.8274 11.2463L48.7716 6.34067L48.7356 6.33277L47.8018 10.5814Z" fill="black"/>
<path d="M57.1624 7.11708L59.0298 8.03982C60.6037 8.81753 61.057 10.2465 60.2321 11.9158C59.4055 13.5888 57.9914 14.1133 56.4139 13.3338L54.5465 12.4111L57.1624 7.11708ZM57.6343 8.23123L55.72 12.1054L56.6885 12.584C57.8112 13.1387 58.7702 12.7591 59.3884 11.508C60.0047 10.2606 59.7219 9.26274 58.6029 8.70982L57.6343 8.23123Z" fill="black"/>
<path d="M65.6911 20.0052L65.0468 19.3532L68.6849 15.7574L67.4134 14.471L67.9752 13.9158L71.1596 17.1377L70.5979 17.6929L69.3293 16.4094L65.6911 20.0052Z" fill="black"/>
<path d="M71.2088 27.498L70.728 26.7176L72.9544 25.3461L71.3639 22.7643L69.1376 24.1358L68.6568 23.3554L73.6844 20.2582L74.1652 21.0387L72.0399 22.3479L73.6303 24.9297L75.7556 23.6204L76.2364 24.4009L71.2088 27.498Z" fill="black"/>
<path d="M74.4438 33.5974L73.6919 33.8521L72.4892 30.3019L78.082 28.4072L79.2847 31.9575L78.5367 32.2109L77.6281 29.5288L75.9925 30.0829L76.8525 32.6216L76.1316 32.8658L75.2716 30.3271L73.5352 30.9153L74.4438 33.5974Z" fill="black"/>
<path d="M74.8156 42.4531L74.8005 40.0838L80.7054 40.0462L80.7204 42.4033C80.7271 43.4509 80.1504 44.142 79.2583 44.1477C78.6322 44.1517 78.0686 43.6929 77.9667 43.1042L77.9339 43.1044C77.849 43.9071 77.2837 44.4508 76.498 44.4558C75.4586 44.4624 74.8236 43.7094 74.8156 42.4531ZM79.9624 40.9676L78.1987 40.9788L78.2052 42.006C78.2103 42.7998 78.5404 43.2356 79.1256 43.2319C79.674 43.2284 79.9744 42.85 79.9702 42.1871L79.9624 40.9676ZM75.5552 40.9957L75.5632 42.2601C75.5685 43.0867 75.9109 43.5224 76.5493 43.5184C77.1877 43.5143 77.5122 43.0621 77.5067 42.1946L77.4989 40.9833L75.5552 40.9957Z" fill="black"/>
<path d="M74.5547 51.0264L73.7773 50.8658L74.5359 47.1949L80.3187 48.3899L79.5602 52.0608L78.7867 51.9009L79.3598 49.1277L77.6686 48.7783L77.1262 51.4032L76.3808 51.2492L76.9232 48.6242L75.1278 48.2532L74.5547 51.0264Z" fill="black"/>
<path d="M74.5534 54.0287L74.188 54.856C73.6262 54.6794 73.0445 55.0442 72.7303 55.7554C72.4293 56.4367 72.5646 57.0825 73.0474 57.2958C73.4667 57.4811 73.8481 57.2961 74.3295 56.6722L74.8072 56.0467C75.485 55.1606 76.1526 54.9052 76.905 55.2376C77.837 55.6494 78.1182 56.7444 77.6089 57.8973C77.1045 59.039 76.1188 59.5386 75.1752 59.153L75.5357 58.337C76.0962 58.5264 76.6186 58.2249 76.9064 57.5736C77.1941 56.9222 77.0615 56.3313 76.5824 56.1196C76.2006 55.9509 75.8503 56.1362 75.3705 56.7564L74.9616 57.287C74.2101 58.2792 73.5613 58.5429 72.7715 58.1939C71.7608 57.7474 71.4837 56.6632 72.0493 55.383C72.5785 54.1852 73.5533 53.6495 74.5534 54.0287Z" fill="black"/>
<path d="M68.398 61.8033L68.9371 61.0619L73.0741 64.0705L74.1379 62.6077L74.7766 63.0722L72.1123 66.7359L71.4735 66.2713L72.5349 64.8118L68.398 61.8033Z" fill="black"/>
<path d="M61.0446 68.9941L61.7899 68.4604L64.7679 72.6194L66.2386 71.5664L66.6984 72.2085L63.0152 74.8459L62.5554 74.2037L64.0227 73.1531L61.0446 68.9941Z" fill="black"/>
<path d="M58.6537 77.2285L57.231 73.7561C56.9114 72.9761 56.1942 72.6287 55.3232 72.9855C54.4523 73.3424 54.1812 74.0947 54.5008 74.8747L55.9235 78.3471L55.0791 78.6931L53.6269 75.1488C53.1444 73.9711 53.6437 72.7936 55.0145 72.232C56.3853 71.6704 57.5672 72.159 58.0497 73.3367L59.5019 76.881L58.6537 77.2285Z" fill="black"/>
<path d="M47.5403 74.4609L48.4444 74.31L49.2864 79.3555L51.0705 79.0577L51.2005 79.8367L46.7323 80.5824L46.6023 79.8034L48.3823 79.5064L47.5403 74.4609Z" fill="black"/>
<path d="M40.57 80.8032C38.8748 80.7017 37.8788 79.4655 37.991 77.5906C38.1033 75.7156 39.2393 74.6111 40.9346 74.7126C42.6339 74.8143 43.626 76.0462 43.5138 77.9211C43.4016 79.7961 42.2693 80.9049 40.57 80.8032ZM40.6182 79.9985C41.7374 80.0655 42.496 79.2418 42.5784 77.8651C42.6605 76.4926 42.0057 75.5843 40.8864 75.5173C39.7671 75.4503 39.0127 76.2743 38.9306 77.6468C38.8482 79.0234 39.4989 79.9315 40.6182 79.9985Z" fill="black"/>
<path d="M33.0084 78.7958L33.6078 76.7583L32.3751 76.3957C31.6959 76.1959 31.1975 76.4545 31.007 77.1023C30.821 77.7343 31.1201 78.2403 31.7992 78.4401L33.0084 78.7958ZM33.8168 76.0477L34.4578 73.8689L35.3372 74.1276L33.6707 79.7926L31.4761 79.147C30.3101 78.804 29.7825 77.9151 30.0932 76.8591C30.3184 76.0935 30.9091 75.5933 31.6682 75.565L31.0815 72.8757L32.0944 73.1736L32.6077 75.692L33.8168 76.0477Z" fill="black"/>
<path d="M22.6296 68.7941C22.8811 68.9554 22.9527 69.2833 22.7915 69.5347C22.6302 69.7862 22.3023 69.8578 22.0508 69.6966C21.7994 69.5353 21.7277 69.2074 21.889 68.9559C22.0503 68.7045 22.3782 68.6328 22.6296 68.7941Z" fill="black"/>
</svg>
