<svg width="125" height="29" viewBox="0 0 125 29" fill="none" xmlns="http://www.w3.org/2000/svg">
<path fill-rule="evenodd" clip-rule="evenodd" d="M7.74985 1.57464C9.63116 0.634455 11.7538 0.105469 14 0.105469C21.732 0.105469 28 6.37348 28 14.1055C28 16.7007 27.2939 19.1309 26.0632 21.2146C24.6677 21.2642 23.2839 21.0672 22.017 20.6367C21.3143 20.407 20.6333 20.1014 20.0088 19.7199C20.3761 19.2423 20.6964 18.7308 20.9556 18.1938C21.9327 16.2226 22.1686 13.9651 21.7643 11.8591C21.5621 10.8146 21.2083 9.78689 20.7534 8.84343C20.2985 7.88312 19.7257 7.00705 19.1023 6.16467C19.0013 6.0299 18.8833 5.91196 18.7317 5.82772C18.1083 5.45708 17.3165 5.65925 16.9459 6.26576L16.8785 6.36685C16.0024 8.20323 15.278 10.1407 15.0589 12.2466C14.9579 13.2912 14.9915 14.3694 15.2274 15.414C15.4633 16.4585 15.935 17.4694 16.5921 18.2949C16.8187 18.5855 17.0675 18.8541 17.3327 19.1012C16.747 19.604 16.0734 19.9984 15.3453 20.2492C14.5872 20.5188 13.7954 20.6367 12.9867 20.6199C12.178 20.603 11.3525 20.4514 10.628 20.1818C9.88675 19.9123 9.22969 19.4911 8.64003 18.9856C8.06721 18.4634 7.56179 17.84 7.15745 17.1493C6.75311 16.4585 6.41616 15.7004 6.18029 14.9085C5.94443 14.0999 5.77595 13.2743 5.69172 12.432C5.64214 12.0188 5.62498 11.5895 5.60844 11.1758L5.60748 11.1515C5.59063 10.7304 5.60748 10.2923 5.62432 9.87113C5.67487 9.01191 5.7591 8.15268 5.92758 7.31031C6.24768 5.60871 6.7868 3.9408 7.51125 2.39083C7.57864 2.22235 7.64602 2.03703 7.69657 1.85171C7.71915 1.75933 7.73685 1.66688 7.74985 1.57464ZM1.26532 8.28109C1.27456 8.84057 1.30029 9.40035 1.34505 9.95537C1.39559 10.4776 1.44614 10.9999 1.53037 11.5222C1.61461 12.0445 1.69885 12.5667 1.81678 13.089C2.05265 14.1167 2.37275 15.1444 2.79394 16.1384C3.21513 17.1324 3.72055 18.1096 4.3776 19.0025C5.01781 19.9123 5.80965 20.7209 6.71941 21.3948C7.62918 22.0687 8.65688 22.5742 9.73512 22.8943C10.2742 23.0627 10.8302 23.1638 11.3693 23.2312C11.9253 23.2986 12.4644 23.3155 13.0204 23.2986C14.1323 23.2649 15.2274 23.0291 16.2551 22.6079C16.7605 22.3888 17.2491 22.1361 17.7208 21.8329C18.1757 21.5465 18.6138 21.1927 19.0181 20.822C19.1351 20.71 19.2495 20.595 19.3611 20.4773C20.145 20.8583 20.9737 21.1197 21.8148 21.2938C22.7919 21.4959 23.7691 21.5633 24.7463 21.5296C25.1484 21.5088 25.5476 21.4709 25.9428 21.4147C23.4812 25.4282 19.0533 28.1055 14 28.1055C6.26801 28.1055 0 21.8375 0 14.1055C0 12.0271 0.452873 10.0546 1.26532 8.28109ZM18.2107 18.1832C18.467 17.8566 18.693 17.5045 18.8833 17.1324C19.254 16.408 19.4898 15.6161 19.5909 14.7906C19.692 13.9651 19.6246 13.1396 19.4561 12.314C19.2877 11.4885 18.9676 10.6967 18.5632 9.95537C18.4645 9.78165 18.3612 9.60978 18.2532 9.4404C17.7449 10.4463 17.3392 11.4883 17.0975 12.5499C16.9122 13.4091 16.8279 14.2683 16.929 15.1107C17.0132 15.9531 17.2828 16.7786 17.7377 17.5199C17.8795 17.751 18.0377 17.9723 18.2107 18.1832Z" fill="#089C3A"/>
<path d="M35 11.2134H38.8255V23.0878L37.0505 23.3326C36.418 23.3326 35.9181 23.149 35.5509 22.7817C35.1836 22.4145 35 21.9248 35 21.3127V11.2134ZM37.0505 23.3326V20.211H46.7826C46.905 20.3538 47.007 20.5578 47.0886 20.8231C47.1906 21.0883 47.2417 21.3841 47.2417 21.7106C47.2417 22.2411 47.109 22.6491 46.8438 22.9348C46.599 23.2 46.2623 23.3326 45.8339 23.3326H37.0505ZM38.8255 15.4674H35V4.7253C35.1632 4.6845 35.4081 4.63349 35.7345 4.57228C36.0813 4.51107 36.4282 4.48047 36.775 4.48047C37.4891 4.48047 38.0094 4.61309 38.3359 4.87832C38.6623 5.12315 38.8255 5.58222 38.8255 6.25551V15.4674Z" fill="black"/>
<path d="M51.4366 17.9769L51.2836 15.3449L59.5161 14.1514C59.4549 13.3557 59.1488 12.6722 58.5979 12.1009C58.0675 11.5092 57.2922 11.2134 56.272 11.2134C55.2111 11.2134 54.3338 11.5806 53.6401 12.3151C52.9464 13.0496 52.5893 14.1004 52.5689 15.4674L52.6607 17.0282C52.824 18.3339 53.3238 19.3031 54.1603 19.9356C54.9969 20.5476 56.0578 20.8537 57.3432 20.8537C58.2001 20.8537 58.9958 20.7313 59.7303 20.4864C60.4648 20.2212 61.0463 19.9356 61.4747 19.6295C61.74 19.8131 61.9542 20.0478 62.1174 20.3334C62.301 20.5986 62.3929 20.8843 62.3929 21.1903C62.3929 21.7208 62.1582 22.1799 61.689 22.5675C61.2401 22.9348 60.6178 23.2204 59.8221 23.4244C59.0264 23.6285 58.1185 23.7305 57.0983 23.7305C55.5273 23.7305 54.1297 23.4448 52.9056 22.8736C51.7018 22.2819 50.7633 21.4046 50.09 20.2416C49.4167 19.0786 49.0801 17.6402 49.0801 15.9264C49.0801 14.6614 49.2637 13.5597 49.6309 12.6212C50.0186 11.6826 50.5389 10.9073 51.1917 10.2953C51.865 9.66277 52.6403 9.1935 53.5177 8.88746C54.395 8.56102 55.3131 8.3978 56.272 8.3978C57.6186 8.3978 58.7918 8.67323 59.7915 9.22411C60.8116 9.75458 61.6073 10.4993 62.1786 11.4582C62.7499 12.4171 63.0355 13.5189 63.0355 14.7635C63.0355 15.3347 62.8927 15.7632 62.6071 16.0488C62.3214 16.3141 61.9134 16.4773 61.3829 16.5385L51.4366 17.9769Z" fill="black"/>
<path d="M69.8359 12.2539V16.4773H66.1022V11.9785C66.1022 11.4684 66.2246 11.04 66.4694 10.6931C66.7143 10.3259 67.0611 9.99941 67.51 9.71377C68.122 9.32612 68.8973 9.00988 69.8359 8.76505C70.7744 8.52021 71.7843 8.3978 72.8657 8.3978C74.7631 8.3978 75.7119 8.98948 75.7119 10.1728C75.7119 10.4381 75.6711 10.6931 75.5895 10.9379C75.5078 11.1828 75.4058 11.3868 75.2834 11.55C75.0794 11.5092 74.8243 11.4786 74.5183 11.4582C74.2123 11.4174 73.896 11.397 73.5696 11.397C72.8147 11.397 72.1108 11.4786 71.4579 11.6418C70.8254 11.8051 70.2847 12.0091 69.8359 12.2539ZM66.1022 15.2225L69.8359 15.4061V23.2408C69.6727 23.302 69.438 23.353 69.132 23.3938C68.8259 23.455 68.4995 23.4856 68.1526 23.4856C67.459 23.4856 66.9387 23.3632 66.5918 23.1184C66.2654 22.8736 66.1022 22.4247 66.1022 21.7718V15.2225Z" fill="black"/>
<path d="M91.3106 13.8453V16.8445H87.6075V13.9984C87.6075 13.0802 87.3423 12.4171 86.8118 12.0091C86.3018 11.5806 85.6081 11.3664 84.7308 11.3664C84.1187 11.3664 83.5576 11.448 83.0475 11.6112C82.5375 11.7541 82.0886 11.9377 81.701 12.1621V16.8445H77.9672V11.9173C77.9672 11.4276 78.0693 11.0298 78.2733 10.7237C78.4773 10.4177 78.7936 10.1218 79.222 9.83619C79.8137 9.44854 80.589 9.11189 81.5479 8.82626C82.5273 8.54062 83.5984 8.3978 84.7614 8.3978C86.822 8.3978 88.4237 8.85686 89.5662 9.77498C90.7292 10.6931 91.3106 12.0499 91.3106 13.8453ZM77.9672 15.3143H81.701V23.2408C81.5377 23.302 81.3031 23.353 80.9971 23.3938C80.691 23.455 80.3646 23.4856 80.0177 23.4856C79.324 23.4856 78.8038 23.3632 78.4569 23.1184C78.1305 22.8736 77.9672 22.4247 77.9672 21.7718V15.3143ZM87.6075 15.3143H91.3106V23.2408C91.1678 23.302 90.9332 23.353 90.6068 23.3938C90.3007 23.455 89.9743 23.4856 89.6274 23.4856C88.9337 23.4856 88.4237 23.3632 88.0972 23.1184C87.7708 22.8736 87.6075 22.4247 87.6075 21.7718V15.3143Z" fill="black"/>
<path d="M96.9244 17.9769L96.7713 15.3449L105.004 14.1514C104.943 13.3557 104.637 12.6722 104.086 12.1009C103.555 11.5092 102.78 11.2134 101.76 11.2134C100.699 11.2134 99.8215 11.5806 99.1279 12.3151C98.4342 13.0496 98.0771 14.1004 98.0567 15.4674L98.1485 17.0282C98.3117 18.3339 98.8116 19.3031 99.6481 19.9356C100.485 20.5476 101.546 20.8537 102.831 20.8537C103.688 20.8537 104.484 20.7313 105.218 20.4864C105.953 20.2212 106.534 19.9356 106.963 19.6295C107.228 19.8131 107.442 20.0478 107.605 20.3334C107.789 20.5986 107.881 20.8843 107.881 21.1903C107.881 21.7208 107.646 22.1799 107.177 22.5675C106.728 22.9348 106.106 23.2204 105.31 23.4244C104.514 23.6285 103.606 23.7305 102.586 23.7305C101.015 23.7305 99.6175 23.4448 98.3934 22.8736C97.1896 22.2819 96.2511 21.4046 95.5778 20.2416C94.9045 19.0786 94.5678 17.6402 94.5678 15.9264C94.5678 14.6614 94.7515 13.5597 95.1187 12.6212C95.5064 11.6826 96.0266 10.9073 96.6795 10.2953C97.3528 9.66277 98.1281 9.1935 99.0054 8.88746C99.8828 8.56102 100.801 8.3978 101.76 8.3978C103.106 8.3978 104.28 8.67323 105.279 9.22411C106.299 9.75458 107.095 10.4993 107.666 11.4582C108.238 12.4171 108.523 13.5189 108.523 14.7635C108.523 15.3347 108.381 15.7632 108.095 16.0488C107.809 16.3141 107.401 16.4773 106.871 16.5385L96.9244 17.9769Z" fill="black"/>
<path d="M124.933 13.8453V16.8445H121.23V13.9984C121.23 13.0802 120.965 12.4171 120.435 12.0091C119.924 11.5806 119.231 11.3664 118.353 11.3664C117.741 11.3664 117.18 11.448 116.67 11.6112C116.16 11.7541 115.711 11.9377 115.324 12.1621V16.8445H111.59V11.9173C111.59 11.4276 111.692 11.0298 111.896 10.7237C112.1 10.4177 112.416 10.1218 112.845 9.83619C113.436 9.44854 114.212 9.11189 115.171 8.82626C116.15 8.54062 117.221 8.3978 118.384 8.3978C120.445 8.3978 122.046 8.85686 123.189 9.77498C124.352 10.6931 124.933 12.0499 124.933 13.8453ZM111.59 15.3143H115.324V23.2408C115.16 23.302 114.926 23.353 114.62 23.3938C114.314 23.455 113.987 23.4856 113.64 23.4856C112.947 23.4856 112.426 23.3632 112.08 23.1184C111.753 22.8736 111.59 22.4247 111.59 21.7718V15.3143ZM121.23 15.3143H124.933V23.2408C124.791 23.302 124.556 23.353 124.229 23.3938C123.923 23.455 123.597 23.4856 123.25 23.4856C122.556 23.4856 122.046 23.3632 121.72 23.1184C121.393 22.8736 121.23 22.4247 121.23 21.7718V15.3143Z" fill="black"/>
</svg>
