<svg width="15" height="18" viewBox="0 0 15 18" fill="none" xmlns="http://www.w3.org/2000/svg">
<path d="M1.87649 17.25C1.60208 17.2495 1.33253 17.1773 1.09435 17.0406C0.558025 16.7357 0.224609 16.1439 0.224609 15.5014V2.49871C0.224609 1.85441 0.558025 1.26436 1.09435 0.959467C1.3382 0.818875 1.61522 0.746575 1.89645 0.750125C2.17768 0.753674 2.4528 0.832942 2.69304 0.979643L13.7704 7.63162C14.0012 7.77684 14.1916 7.97851 14.3235 8.2177C14.4554 8.45689 14.5246 8.72578 14.5246 8.99914C14.5246 9.27251 14.4554 9.54139 14.3235 9.78059C14.1916 10.0198 14.0012 10.2214 13.7704 10.3667L2.69126 17.0204C2.44539 17.1695 2.16379 17.2489 1.87649 17.25Z" fill="white"/>
</svg>
