<svg width="25" height="30" viewBox="0 0 25 30" fill="none" xmlns="http://www.w3.org/2000/svg">
<path d="M0.806641 21.8334V8.16836C0.806641 4.90774 0.806641 3.27743 1.48909 2.35857C2.08395 1.55762 2.99554 1.05238 3.99002 0.972432C5.1309 0.880713 6.5134 1.74478 9.2784 3.4729L20.2104 10.3054C22.7016 11.8624 23.9473 12.6409 24.3744 13.6377C24.7475 14.5082 24.7475 15.4935 24.3744 16.364C23.9473 17.3608 22.7016 18.1393 20.2104 19.6963L9.27841 26.5288C6.5134 28.2569 5.1309 29.121 3.99002 29.0293C2.99554 28.9493 2.08395 28.4441 1.48909 27.6431C0.806641 26.7243 0.806641 25.094 0.806641 21.8334Z" fill="white"/>
</svg>
