<svg width="125" height="28" viewBox="0 0 125 28" fill="none" xmlns="http://www.w3.org/2000/svg">
<path fill-rule="evenodd" clip-rule="evenodd" d="M7.74985 1.46917C9.63116 0.528986 11.7538 0 14 0C21.732 0 28 6.26801 28 14C28 16.5952 27.2939 19.0255 26.0632 21.1092C24.6677 21.1588 23.2839 20.9618 22.017 20.5312C21.3143 20.3015 20.6333 19.9959 20.0088 19.6145C20.3761 19.1368 20.6964 18.6253 20.9556 18.0883C21.9327 16.1172 22.1686 13.8596 21.7643 11.7537C21.5621 10.7091 21.2083 9.68143 20.7534 8.73796C20.2985 7.77765 19.7257 6.90158 19.1023 6.05921C19.0013 5.92443 18.8833 5.80649 18.7317 5.72226C18.1083 5.35161 17.3165 5.55378 16.9459 6.16029L16.8785 6.26138C16.0024 8.09776 15.278 10.0352 15.0589 12.1412C14.9579 13.1857 14.9915 14.264 15.2274 15.3085C15.4633 16.353 15.935 17.3639 16.5921 18.1894C16.8187 18.48 17.0675 18.7486 17.3327 18.9958C16.747 19.4985 16.0734 19.893 15.3453 20.1437C14.5872 20.4133 13.7954 20.5312 12.9867 20.5144C12.178 20.4975 11.3525 20.3459 10.628 20.0764C9.88675 19.8068 9.22969 19.3856 8.64003 18.8802C8.06721 18.3579 7.56179 17.7345 7.15745 17.0438C6.75311 16.353 6.41616 15.5949 6.18029 14.8031C5.94443 13.9944 5.77595 13.1689 5.69172 12.3265C5.64214 11.9134 5.62498 11.484 5.60844 11.0703L5.60748 11.0461C5.59063 10.6249 5.60748 10.1868 5.62432 9.76566C5.67487 8.90644 5.7591 8.04721 5.92758 7.20484C6.24768 5.50324 6.7868 3.83533 7.51125 2.28536C7.57864 2.11689 7.64602 1.93156 7.69657 1.74624C7.71915 1.65386 7.73685 1.56141 7.74985 1.46917ZM1.26532 8.17562C1.27456 8.7351 1.30029 9.29488 1.34505 9.8499C1.39559 10.3722 1.44614 10.8944 1.53037 11.4167C1.61461 11.939 1.69885 12.4613 1.81678 12.9835C2.05265 14.0112 2.37275 15.0389 2.79394 16.0329C3.21513 17.0269 3.72055 18.0041 4.3776 18.897C5.01781 19.8068 5.80965 20.6155 6.71941 21.2894C7.62918 21.9633 8.65688 22.4687 9.73512 22.7888C10.2742 22.9573 10.8302 23.0584 11.3693 23.1258C11.9253 23.1931 12.4644 23.21 13.0204 23.1931C14.1323 23.1594 15.2274 22.9236 16.2551 22.5024C16.7605 22.2834 17.2491 22.0307 17.7208 21.7274C18.1757 21.441 18.6138 21.0872 19.0181 20.7166C19.1351 20.6045 19.2495 20.4896 19.3611 20.3718C20.145 20.7529 20.9737 21.0143 21.8148 21.1883C22.7919 21.3905 23.7691 21.4578 24.7463 21.4242C25.1484 21.4034 25.5476 21.3654 25.9428 21.3092C23.4812 25.3227 19.0533 28 14 28C6.26801 28 0 21.732 0 14C0 11.9217 0.452873 9.94911 1.26532 8.17562ZM18.2107 18.0777C18.467 17.7511 18.693 17.399 18.8833 17.0269C19.254 16.3025 19.4898 15.5107 19.5909 14.6851C19.692 13.8596 19.6246 13.0341 19.4561 12.2086C19.2877 11.383 18.9676 10.5912 18.5632 9.8499C18.4645 9.67618 18.3612 9.50431 18.2532 9.33494C17.7449 10.3408 17.3392 11.3828 17.0975 12.4444C16.9122 13.3036 16.8279 14.1629 16.929 15.0052C17.0132 15.8476 17.2828 16.6731 17.7377 17.4144C17.8795 17.6455 18.0377 17.8668 18.2107 18.0777Z" fill="#754FFE"/>
<path d="M35 11.1079H38.8255V22.9823L37.0505 23.2271C36.418 23.2271 35.9181 23.0435 35.5509 22.6763C35.1836 22.309 35 21.8194 35 21.2073V11.1079ZM37.0505 23.2271V20.1055H46.7826C46.905 20.2483 47.007 20.4524 47.0886 20.7176C47.1906 20.9828 47.2417 21.2787 47.2417 21.6051C47.2417 22.1356 47.109 22.5437 46.8438 22.8293C46.599 23.0945 46.2623 23.2271 45.8339 23.2271H37.0505ZM38.8255 15.3619H35V4.61983C35.1632 4.57903 35.4081 4.52802 35.7345 4.46681C36.0813 4.4056 36.4282 4.375 36.775 4.375C37.4891 4.375 38.0094 4.50762 38.3359 4.77285C38.6623 5.01769 38.8255 5.47675 38.8255 6.15004V15.3619Z" fill="black"/>
<path d="M51.4366 17.8714L51.2836 15.2395L59.5161 14.0459C59.4549 13.2502 59.1488 12.5667 58.5979 11.9954C58.0675 11.4037 57.2922 11.1079 56.272 11.1079C55.2111 11.1079 54.3338 11.4752 53.6401 12.2097C52.9464 12.9442 52.5893 13.9949 52.5689 15.3619L52.6607 16.9227C52.824 18.2285 53.3238 19.1976 54.1603 19.8301C54.9969 20.4422 56.0578 20.7482 57.3432 20.7482C58.2001 20.7482 58.9958 20.6258 59.7303 20.381C60.4648 20.1157 61.0463 19.8301 61.4747 19.524C61.74 19.7077 61.9542 19.9423 62.1174 20.2279C62.301 20.4932 62.3929 20.7788 62.3929 21.0849C62.3929 21.6153 62.1582 22.0744 61.689 22.462C61.2401 22.8293 60.6178 23.1149 59.8221 23.319C59.0264 23.523 58.1185 23.625 57.0983 23.625C55.5273 23.625 54.1297 23.3394 52.9056 22.7681C51.7018 22.1764 50.7633 21.2991 50.09 20.1361C49.4167 18.9732 49.0801 17.5348 49.0801 15.8209C49.0801 14.556 49.2637 13.4542 49.6309 12.5157C50.0186 11.5772 50.5389 10.8019 51.1917 10.1898C51.865 9.5573 52.6403 9.08804 53.5177 8.78199C54.395 8.45555 55.3131 8.29233 56.272 8.29233C57.6186 8.29233 58.7918 8.56777 59.7915 9.11864C60.8116 9.64911 61.6073 10.3938 62.1786 11.3527C62.7499 12.3117 63.0355 13.4134 63.0355 14.658C63.0355 15.2293 62.8927 15.6577 62.6071 15.9434C62.3214 16.2086 61.9134 16.3718 61.3829 16.433L51.4366 17.8714Z" fill="black"/>
<path d="M69.8359 12.1484V16.3718H66.1022V11.873C66.1022 11.3629 66.2246 10.9345 66.4694 10.5876C66.7143 10.2204 67.0611 9.89395 67.51 9.60831C68.122 9.22065 68.8973 8.90441 69.8359 8.65958C70.7744 8.41475 71.7843 8.29233 72.8657 8.29233C74.7631 8.29233 75.7119 8.88401 75.7119 10.0674C75.7119 10.3326 75.6711 10.5876 75.5895 10.8325C75.5078 11.0773 75.4058 11.2813 75.2834 11.4446C75.0794 11.4037 74.8243 11.3731 74.5183 11.3527C74.2123 11.3119 73.896 11.2915 73.5696 11.2915C72.8147 11.2915 72.1108 11.3731 71.4579 11.5364C70.8254 11.6996 70.2847 11.9036 69.8359 12.1484ZM66.1022 15.1171L69.8359 15.3007V23.1353C69.6727 23.1965 69.438 23.2475 69.132 23.2884C68.8259 23.3496 68.4995 23.3802 68.1526 23.3802C67.459 23.3802 66.9387 23.2578 66.5918 23.0129C66.2654 22.7681 66.1022 22.3192 66.1022 21.6663V15.1171Z" fill="black"/>
<path d="M91.3106 13.7399V16.7391H87.6075V13.8929C87.6075 12.9748 87.3423 12.3117 86.8118 11.9036C86.3018 11.4752 85.6081 11.2609 84.7308 11.2609C84.1187 11.2609 83.5576 11.3425 83.0475 11.5058C82.5375 11.6486 82.0886 11.8322 81.701 12.0566V16.7391H77.9672V11.8118C77.9672 11.3221 78.0693 10.9243 78.2733 10.6182C78.4773 10.3122 78.7936 10.0164 79.222 9.73072C79.8137 9.34307 80.589 9.00643 81.5479 8.72079C82.5273 8.43515 83.5984 8.29233 84.7614 8.29233C86.822 8.29233 88.4237 8.75139 89.5662 9.66951C90.7292 10.5876 91.3106 11.9444 91.3106 13.7399ZM77.9672 15.2089H81.701V23.1353C81.5377 23.1965 81.3031 23.2475 80.9971 23.2884C80.691 23.3496 80.3646 23.3802 80.0177 23.3802C79.324 23.3802 78.8038 23.2578 78.4569 23.0129C78.1305 22.7681 77.9672 22.3192 77.9672 21.6663V15.2089ZM87.6075 15.2089H91.3106V23.1353C91.1678 23.1965 90.9332 23.2475 90.6068 23.2884C90.3007 23.3496 89.9743 23.3802 89.6274 23.3802C88.9337 23.3802 88.4237 23.2578 88.0972 23.0129C87.7708 22.7681 87.6075 22.3192 87.6075 21.6663V15.2089Z" fill="black"/>
<path d="M96.9244 17.8714L96.7713 15.2395L105.004 14.0459C104.943 13.2502 104.637 12.5667 104.086 11.9954C103.555 11.4037 102.78 11.1079 101.76 11.1079C100.699 11.1079 99.8215 11.4752 99.1279 12.2097C98.4342 12.9442 98.0771 13.9949 98.0567 15.3619L98.1485 16.9227C98.3117 18.2285 98.8116 19.1976 99.6481 19.8301C100.485 20.4422 101.546 20.7482 102.831 20.7482C103.688 20.7482 104.484 20.6258 105.218 20.381C105.953 20.1157 106.534 19.8301 106.963 19.524C107.228 19.7077 107.442 19.9423 107.605 20.2279C107.789 20.4932 107.881 20.7788 107.881 21.0849C107.881 21.6153 107.646 22.0744 107.177 22.462C106.728 22.8293 106.106 23.1149 105.31 23.319C104.514 23.523 103.606 23.625 102.586 23.625C101.015 23.625 99.6175 23.3394 98.3934 22.7681C97.1896 22.1764 96.2511 21.2991 95.5778 20.1361C94.9045 18.9732 94.5678 17.5348 94.5678 15.8209C94.5678 14.556 94.7515 13.4542 95.1187 12.5157C95.5064 11.5772 96.0266 10.8019 96.6795 10.1898C97.3528 9.5573 98.1281 9.08804 99.0054 8.78199C99.8828 8.45555 100.801 8.29233 101.76 8.29233C103.106 8.29233 104.28 8.56777 105.279 9.11864C106.299 9.64911 107.095 10.3938 107.666 11.3527C108.238 12.3117 108.523 13.4134 108.523 14.658C108.523 15.2293 108.381 15.6577 108.095 15.9434C107.809 16.2086 107.401 16.3718 106.871 16.433L96.9244 17.8714Z" fill="black"/>
<path d="M124.933 13.7399V16.7391H121.23V13.8929C121.23 12.9748 120.965 12.3117 120.435 11.9036C119.924 11.4752 119.231 11.2609 118.353 11.2609C117.741 11.2609 117.18 11.3425 116.67 11.5058C116.16 11.6486 115.711 11.8322 115.324 12.0566V16.7391H111.59V11.8118C111.59 11.3221 111.692 10.9243 111.896 10.6182C112.1 10.3122 112.416 10.0164 112.845 9.73072C113.436 9.34307 114.212 9.00643 115.171 8.72079C116.15 8.43515 117.221 8.29233 118.384 8.29233C120.445 8.29233 122.046 8.75139 123.189 9.66951C124.352 10.5876 124.933 11.9444 124.933 13.7399ZM111.59 15.2089H115.324V23.1353C115.16 23.1965 114.926 23.2475 114.62 23.2884C114.314 23.3496 113.987 23.3802 113.64 23.3802C112.947 23.3802 112.426 23.2578 112.08 23.0129C111.753 22.7681 111.59 22.3192 111.59 21.6663V15.2089ZM121.23 15.2089H124.933V23.1353C124.791 23.1965 124.556 23.2475 124.229 23.2884C123.923 23.3496 123.597 23.3802 123.25 23.3802C122.556 23.3802 122.046 23.2578 121.72 23.0129C121.393 22.7681 121.23 22.3192 121.23 21.6663V15.2089Z" fill="black"/>
</svg>
