<?xml version="1.0" encoding="UTF-8"?>
<svg id="Layer_1" xmlns="http://www.w3.org/2000/svg" xmlns:xlink="http://www.w3.org/1999/xlink" version="1.1" viewBox="0 0 136 30">
  <!-- Generator: Adobe Illustrator 29.7.1, SVG Export Plug-In . SVG Version: 2.1.1 Build 8)  -->
  <defs>
    <style>
      .st0 {
        fill: url(#linear-gradient);
      }

      .st1 {
        fill: none;
        stroke: #fff;
        stroke-miterlimit: 10;
        stroke-width: .5px;
      }

      .st2 {
        fill: #fff;
      }
    </style>
    <linearGradient id="linear-gradient" x1="2.79" y1="20.54" x2="29.5" y2="8.67" gradientUnits="userSpaceOnUse">
      <stop offset="0" stop-color="#295c51"/>
      <stop offset=".99" stop-color="#00587a"/>
    </linearGradient>
  </defs>
  <circle class="st0" cx="14.99" cy="15.12" r="14.61"/>
  <g>
    <g>
      <polygon points="42.49 24.25 36.44 13.62 36.44 24.25 32.73 24.25 32.73 7.54 36.6 7.54 42.62 18.07 42.62 7.54 46.33 7.54 46.33 24.25 42.49 24.25"/>
      <path class="st2" d="M45.82,8.05v15.7h-3.03l-6.86-12.05v12.05h-2.69v-15.7h3.07l6.83,11.94v-11.94h2.69M46.83,7.03h-4.72v9.13l-4.93-8.62-.29-.51h-4.67v17.73h4.72v-9.23l4.96,8.71.29.51h4.64V7.03h0Z"/>
    </g>
    <g>
      <path d="M53.93,24.48c-.94,0-1.79-.17-2.53-.51-.74-.34-1.38-.81-1.89-1.41-.51-.59-.9-1.28-1.16-2.06-.26-.77-.39-1.59-.39-2.46s.13-1.7.39-2.47c.26-.78.65-1.48,1.15-2.07.51-.6,1.14-1.07,1.89-1.42.74-.35,1.6-.52,2.53-.52s1.79.17,2.53.52c.74.35,1.38.82,1.89,1.42.51.59.9,1.29,1.17,2.07.26.77.4,1.61.4,2.48s-.13,1.69-.39,2.46c-.26.78-.65,1.47-1.16,2.06s-1.15,1.07-1.89,1.41c-.74.34-1.59.51-2.53.51h-.01ZM53.92,14.81c-.34,0-.63.08-.9.23-.28.16-.52.38-.71.66-.2.29-.37.64-.48,1.03-.12.41-.17.85-.17,1.31s.06.9.17,1.3c.11.39.27.74.48,1.03.19.27.43.49.71.65.27.15.56.22.9.22s.64-.07.91-.23c.28-.16.52-.38.72-.65.21-.29.37-.63.48-1.02.12-.4.17-.84.17-1.3s-.06-.9-.17-1.31c-.11-.4-.27-.74-.48-1.03-.2-.28-.44-.5-.72-.66-.27-.16-.57-.23-.9-.23h0Z"/>
      <path class="st2" d="M53.92,12.07c.87,0,1.64.16,2.32.47.68.32,1.25.74,1.72,1.29.47.54.82,1.18,1.07,1.9s.37,1.49.37,2.31-.12,1.57-.36,2.29-.6,1.35-1.07,1.89c-.47.54-1.04.97-1.72,1.28-.68.31-1.45.47-2.32.47s-1.64-.16-2.32-.47-1.25-.74-1.72-1.28-.82-1.17-1.07-1.89c-.24-.72-.36-1.48-.36-2.29s.12-1.59.36-2.31c.24-.72.6-1.36,1.06-1.9.46-.54,1.04-.97,1.72-1.29.68-.31,1.45-.47,2.32-.47M53.92,21.75c.43,0,.81-.1,1.16-.29.35-.2.64-.46.88-.8s.43-.73.56-1.18.19-.93.19-1.44-.06-.99-.19-1.45c-.13-.45-.32-.85-.56-1.19s-.54-.61-.88-.8c-.35-.2-.73-.3-1.16-.3s-.81.1-1.15.3-.63.47-.87.8c-.24.34-.42.73-.55,1.19-.13.45-.19.94-.19,1.45s.06.99.19,1.44c.13.45.31.84.55,1.18.24.34.53.6.87.8.34.19.73.29,1.15.29M53.92,11.05c-1.01,0-1.93.19-2.75.57-.81.38-1.51.9-2.06,1.55-.55.64-.97,1.39-1.25,2.24-.28.82-.42,1.71-.42,2.64s.14,1.8.42,2.62c.28.84.71,1.59,1.26,2.23.56.65,1.26,1.17,2.07,1.54s1.73.56,2.74.56,1.93-.19,2.74-.56c.81-.37,1.5-.89,2.07-1.54.55-.64.98-1.39,1.26-2.23.28-.82.42-1.7.42-2.62s-.14-1.81-.42-2.64c-.29-.84-.71-1.6-1.26-2.24-.56-.65-1.25-1.17-2.06-1.55s-1.74-.57-2.75-.57h0ZM53.92,20.74c-.25,0-.46-.05-.65-.16-.21-.12-.39-.29-.55-.5-.17-.24-.31-.54-.4-.87-.1-.36-.15-.75-.15-1.16s.05-.81.15-1.17c.1-.34.23-.64.4-.88.16-.22.34-.39.55-.51.19-.11.4-.16.64-.16s.46.05.65.16c.22.13.41.3.56.52.17.24.31.53.41.87.1.36.15.75.15,1.17s-.05.8-.15,1.16c-.1.33-.23.63-.41.87-.16.22-.34.38-.56.51-.19.11-.41.16-.66.16h.02Z"/>
    </g>
    <g>
      <polygon points="63.94 24.25 59.26 11.78 63.17 11.78 65.55 18.52 67.95 11.78 71.81 11.78 67.17 24.25 63.94 24.25"/>
      <path class="st2" d="M71.08,12.29l-4.26,11.45h-2.53l-4.3-11.45h2.81l2.75,7.74,2.76-7.74h2.77M72.54,11.28h-4.95l-.24.68-1.8,5.05-1.79-5.05-.24-.68h-5l.52,1.37,4.3,11.45.25.66h3.94l.25-.66,4.26-11.45.51-1.37h-.01Z"/>
    </g>
    <g>
      <path d="M81.19,24.48c-.34,0-.66-.06-.95-.19-.28-.12-.53-.28-.74-.49-.2-.19-.38-.42-.53-.67-.01-.02-.03-.05-.04-.07-.17.15-.34.29-.5.41-.33.25-.67.45-.99.6s-.67.26-1.01.32c-.32.06-.66.09-1.01.09-.58,0-1.13-.09-1.63-.27-.51-.18-.96-.44-1.35-.78s-.69-.76-.91-1.24-.33-1.02-.33-1.61c0-.54.13-1.02.38-1.42.23-.38.55-.71.93-.98.36-.26.78-.49,1.23-.68.44-.18.88-.34,1.33-.48.44-.14.87-.27,1.3-.4.39-.12.75-.25,1.07-.39.28-.12.5-.25.66-.39.11-.1.13-.18.13-.25,0-.17-.05-.24-.08-.29-.08-.1-.19-.19-.31-.26-.15-.08-.32-.14-.51-.17-.21-.04-.41-.06-.61-.06-.18,0-.36.03-.55.08-.17.05-.32.12-.46.22-.13.09-.24.22-.33.37-.09.15-.15.34-.18.56l-.06.44h-3.71l.04-.54c.05-.74.24-1.39.56-1.95.32-.55.74-1.02,1.23-1.38.49-.36,1.04-.63,1.65-.8.59-.17,1.21-.26,1.82-.26.66,0,1.3.07,1.9.22.62.15,1.18.39,1.67.71.5.33.9.77,1.19,1.29.3.53.45,1.17.45,1.89v5.56l.04.09s.1-.02.21-.03c.04,0,.15-.03.39-.16l.75-.41v3.01l-.24.15c-.25.15-.46.26-.65.34-.2.08-.37.14-.53.18-.16.04-.31.07-.44.07h-.27v.02ZM78.18,19.02c-.28.08-.59.17-.93.26-.32.08-.64.18-.97.27-.3.09-.58.19-.81.31-.21.1-.39.22-.52.36-.08.08-.11.16-.11.27,0,.16.02.29.07.38.04.1.1.17.17.23s.15.1.25.13c.11.03.22.05.33.05.42,0,.87-.15,1.33-.44.45-.29.86-.72,1.23-1.3v-.54s-.02,0-.03.01h-.01Z"/>
      <path class="st2" d="M76.71,12.07c.62,0,1.22.07,1.78.2.57.14,1.07.35,1.5.64s.78.67,1.04,1.12.39,1,.39,1.64v5.56c0,.15.05.29.15.41.1.12.24.19.42.19.02,0,.11,0,.25-.03.14-.02.33-.09.57-.22v1.87c-.22.14-.41.24-.58.31s-.32.12-.45.16c-.13.03-.25.05-.34.06s-.18,0-.25,0c-.27,0-.52-.05-.75-.15-.22-.1-.42-.23-.59-.39s-.32-.35-.44-.56c-.13-.21-.23-.44-.31-.68-.34.35-.67.64-.97.87-.3.23-.6.41-.9.55s-.59.23-.89.28c-.3.05-.6.08-.92.08-.52,0-1.01-.08-1.46-.24s-.84-.39-1.18-.69c-.33-.3-.6-.65-.79-1.07s-.28-.89-.28-1.4c0-.44.1-.82.3-1.15s.47-.6.8-.84.71-.45,1.13-.62.85-.33,1.29-.47.87-.27,1.29-.4.8-.26,1.13-.41c.33-.14.6-.3.8-.48.2-.18.3-.39.3-.64s-.06-.44-.19-.6c-.13-.16-.28-.29-.48-.39-.19-.1-.41-.17-.65-.22s-.47-.07-.7-.07-.46.03-.68.1c-.23.06-.43.16-.62.3s-.34.31-.47.52c-.13.21-.21.47-.25.76h-2.72c.05-.66.21-1.24.5-1.73.28-.49.65-.9,1.09-1.22.44-.32.94-.56,1.49-.72.55-.16,1.11-.24,1.68-.24M75.66,21.8c.53,0,1.06-.17,1.6-.52s1.03-.88,1.46-1.58v-1.44c-.17.11-.4.2-.68.28s-.58.17-.91.25c-.33.09-.66.18-.99.28-.33.1-.63.21-.89.34-.27.13-.48.28-.66.46-.17.18-.26.38-.26.62s.04.43.11.6c.08.16.18.3.3.41.13.11.27.18.43.23s.32.07.48.07M76.71,11.05c-.66,0-1.32.09-1.96.28-.66.19-1.27.49-1.81.88-.55.4-1.01.92-1.37,1.53-.36.62-.57,1.35-.63,2.17l-.08,1.09h2.75s-.05.02-.08.03c-.5.2-.95.45-1.34.74-.43.32-.79.7-1.06,1.13-.3.48-.46,1.05-.46,1.69s.13,1.27.38,1.82.6,1.02,1.04,1.41c.43.38.94.68,1.51.88.56.2,1.17.3,1.81.3.38,0,.75-.03,1.1-.1.38-.07.76-.19,1.13-.36.36-.17.73-.39,1.09-.66.03-.02.06-.04.08-.06.1.13.21.25.33.36.25.24.55.44.89.58.35.15.74.23,1.15.23h.29c.17,0,.35-.04.55-.09.18-.05.38-.11.59-.2.22-.09.45-.22.72-.38l.49-.3v-4.15l-1.39.76v-4.95c0-.81-.18-1.53-.52-2.14-.34-.59-.79-1.08-1.35-1.46-.53-.36-1.15-.63-1.83-.79-.64-.15-1.32-.23-2.02-.23h0ZM75.67,16.29l.02-.19c.02-.15.06-.27.11-.36.06-.1.12-.17.2-.23.09-.06.18-.11.3-.14.14-.04.28-.06.41-.06.17,0,.34.02.51.05.14.03.26.07.37.12.03.01.05.03.07.04-.09.07-.23.15-.43.23-.3.13-.64.25-1.02.37-.18.05-.36.11-.54.16h0ZM75.36,20.55c.09-.08.2-.16.34-.23.22-.11.46-.2.73-.28l.96-.27s.03,0,.05-.01c-.23.28-.47.5-.73.66-.38.24-.72.36-1.05.36-.06,0-.12,0-.18-.03-.04-.01-.06-.02-.07-.04,0,0-.02-.03-.03-.05,0,0-.02-.04-.02-.12h0Z"/>
    </g>
    <g>
      <polygon points="89.58 24.25 89.58 7.54 93.28 7.54 93.28 20.96 100.93 20.96 100.93 24.25 89.58 24.25"/>
      <path class="st2" d="M92.77,8.05v13.42h7.65v2.27h-10.33v-15.7h2.69M93.79,7.03h-4.72v17.73h12.37v-4.31h-7.65V7.03h0Z"/>
    </g>
    <g>
      <polygon points="115.16 24.25 115.16 16.35 112.37 24.25 109.37 24.25 106.51 16.27 106.51 24.25 102.81 24.25 102.81 7.54 106.7 7.54 110.79 18.88 114.97 7.54 118.86 7.54 118.86 24.25 115.16 24.25"/>
      <path class="st2" d="M118.35,8.05v15.7h-2.69v-10.36l-3.66,10.36h-2.28l-3.73-10.4v10.4h-2.69v-15.7h3.03l4.44,12.31,4.53-12.31h3.03M119.37,7.03h-4.76l-.25.67-3.57,9.69-3.5-9.69-.24-.67h-4.76v17.73h4.72v-5.56l1.75,4.89.24.67h3.71l.24-.68,1.68-4.77v5.44h4.72V7.03h.02Z"/>
    </g>
    <g>
      <path d="M127.62,24.65c-.84,0-1.67-.15-2.45-.44s-1.51-.71-2.14-1.26c-.63-.55-1.14-1.23-1.53-2.01-.39-.79-.6-1.69-.63-2.67v-.52h3.73l.03.47c.03.48.13.93.3,1.32s.37.72.63,1c.25.27.56.48.9.63.35.15.73.22,1.16.22.39,0,.77-.04,1.13-.12.34-.08.63-.2.89-.37.23-.16.42-.36.57-.62.14-.25.21-.57.21-.95,0-.3-.08-.54-.26-.73-.22-.24-.52-.46-.88-.65-.39-.2-.86-.39-1.38-.55-.55-.17-1.11-.35-1.68-.54-.58-.19-1.15-.41-1.71-.65-.59-.25-1.12-.57-1.58-.94-.48-.38-.87-.85-1.16-1.39-.3-.55-.46-1.22-.46-1.98s.16-1.46.47-2.06c.31-.6.75-1.11,1.31-1.51.54-.39,1.2-.7,1.95-.9.73-.19,1.53-.29,2.39-.29,1.16,0,2.14.17,2.93.51.79.34,1.44.8,1.93,1.35.49.55.84,1.17,1.06,1.84.21.65.34,1.29.38,1.91l.03.54h-3.75l-.04-.46c-.04-.44-.13-.82-.28-1.14-.14-.31-.32-.55-.54-.74-.22-.19-.48-.34-.76-.44-.29-.1-.62-.15-.96-.15-.32,0-.64.03-.96.1-.29.06-.55.16-.78.29-.21.12-.37.27-.49.47-.11.18-.17.4-.17.67,0,.31.09.56.26.76.22.25.52.47.89.66.4.21.87.4,1.38.56.55.18,1.11.36,1.68.55.58.19,1.15.41,1.71.65.59.25,1.12.56,1.58.92.47.38.86.83,1.16,1.37.3.55.46,1.2.46,1.95,0,.88-.17,1.66-.5,2.33-.34.67-.81,1.23-1.41,1.68-.58.43-1.28.76-2.07.98-.77.21-1.63.32-2.54.32v.03Z"/>
      <path class="st2" d="M127.42,7.66c1.09,0,2,.16,2.73.47.73.32,1.31.72,1.75,1.22s.76,1.05.96,1.66c.2.61.31,1.2.35,1.79h-2.75c-.05-.5-.15-.94-.32-1.31-.17-.37-.39-.67-.67-.91-.27-.24-.58-.42-.93-.53-.35-.12-.72-.17-1.12-.17-.36,0-.71.04-1.06.11s-.66.19-.93.35c-.27.16-.49.37-.66.63-.17.26-.25.58-.25.95,0,.43.13.8.39,1.1s.61.56,1.03.78c.42.22.91.42,1.46.6.55.18,1.11.36,1.67.55.57.19,1.13.4,1.68.64.55.23,1.03.52,1.46.85.42.34.77.74,1.03,1.21.26.47.39,1.04.39,1.7,0,.8-.15,1.5-.45,2.1s-.72,1.1-1.25,1.5c-.54.4-1.17.7-1.9.9-.73.2-1.54.3-2.41.3-.78,0-1.54-.14-2.28-.41s-1.4-.66-1.98-1.17-1.05-1.13-1.41-1.85c-.36-.72-.55-1.54-.57-2.46h2.75c.04.54.15,1.03.34,1.48.19.45.43.83.73,1.15s.66.57,1.07.75c.41.18.86.27,1.36.27.43,0,.85-.05,1.25-.14s.75-.24,1.05-.44.55-.47.73-.79c.18-.33.27-.73.27-1.2,0-.43-.13-.79-.39-1.07-.26-.29-.61-.54-1.03-.76s-.91-.41-1.46-.58-1.1-.35-1.67-.54-1.12-.4-1.67-.64c-.55-.24-1.03-.52-1.46-.87-.43-.34-.77-.75-1.03-1.23s-.39-1.06-.39-1.73.14-1.3.41-1.83c.27-.53.66-.97,1.16-1.33s1.09-.63,1.78-.82c.69-.18,1.44-.28,2.26-.28M127.42,6.64c-.91,0-1.75.1-2.52.31-.81.22-1.52.54-2.11.98-.62.45-1.12,1.02-1.46,1.69-.35.67-.52,1.44-.52,2.29s.17,1.59.52,2.22c.33.6.76,1.11,1.29,1.54.49.39,1.06.73,1.69,1.01.58.25,1.17.47,1.75.67.57.19,1.13.37,1.68.54.49.16.93.33,1.3.52.31.16.56.34.74.54.06.07.13.17.13.39,0,.29-.05.53-.14.7-.1.19-.24.33-.41.44-.2.13-.44.23-.71.29-.32.07-.67.11-1.02.11s-.67-.06-.95-.18c-.29-.12-.52-.29-.73-.51-.22-.23-.4-.51-.54-.85s-.23-.73-.26-1.16l-.07-.95h-4.74l.03,1.04c.03,1.06.26,2.03.68,2.89.42.84.98,1.57,1.65,2.16s1.45,1.05,2.3,1.36c.85.31,1.73.47,2.63.47.96,0,1.86-.11,2.68-.34.85-.24,1.61-.59,2.24-1.06.66-.49,1.18-1.11,1.56-1.86.37-.74.56-1.6.56-2.56,0-.83-.18-1.57-.52-2.19-.33-.59-.76-1.1-1.29-1.52-.5-.39-1.06-.73-1.69-.99-.57-.24-1.16-.47-1.75-.66-.57-.19-1.13-.38-1.69-.56-.49-.16-.93-.34-1.3-.53-.31-.16-.56-.35-.74-.55-.06-.07-.14-.19-.14-.42,0-.17.03-.31.09-.4.08-.13.19-.23.32-.31.18-.1.38-.18.62-.23.28-.06.57-.09.86-.09s.55.04.8.12c.22.07.41.18.58.33s.3.34.42.58c.12.26.2.58.23.97l.08.92h4.76l-.07-1.08c-.04-.66-.18-1.35-.4-2.04-.24-.74-.63-1.42-1.16-2.02-.54-.61-1.25-1.11-2.11-1.48-.85-.37-1.9-.56-3.13-.56h0l-.02.02Z"/>
    </g>
  </g>
  <path class="st1" d="M20.86,25.99c-.11.16-.35.15-.44-.02-.83-1.59-1.83-2.35-2.26-2.63-.12-.08-.28-.06-.38.05l-.88.96c-.14.15-.33.23-.53.23h-2.74c-.2,0-.4-.08-.53-.23l-.88-.96c-.1-.11-.26-.13-.38-.05-.43.28-1.43,1.04-2.26,2.63-.09.17-.33.18-.44.02-.71-1.07-2.46-4.47.62-8.19,0,0,0,0,0,0-.03-.1-.56-2.16-.21-4.93.32-2.58,1.41-5.77,4.38-8.53.61-.56,1.55-.56,2.16,0,2.98,2.77,4.06,5.96,4.38,8.54.34,2.76-.19,4.83-.21,4.93,0,0,0,0,0,0,3.09,3.73,1.33,7.12.62,8.19Z"/>
  <circle class="st1" cx="14.99" cy="16.29" r="1.95"/>
</svg>