<?xml version="1.0" encoding="UTF-8"?>
<svg id="Layer_1" xmlns="http://www.w3.org/2000/svg" xmlns:xlink="http://www.w3.org/1999/xlink" version="1.1" viewBox="0 0 70 70">
  <!-- Generator: Adobe Illustrator 29.7.1, SVG Export Plug-In . SVG Version: 2.1.1 Build 8)  -->
  <defs>
    <style>
      .st0 {
        fill: url(#linear-gradient);
      }

      .st1 {
        fill: none;
        stroke: #fff;
        stroke-miterlimit: 10;
        stroke-width: 1.2px;
      }
    </style>
    <linearGradient id="linear-gradient" x1="5.77" y1="47.99" x2="69.76" y2="19.56" gradientUnits="userSpaceOnUse">
      <stop offset="0" stop-color="#295c51"/>
      <stop offset=".99" stop-color="#00587a"/>
    </linearGradient>
  </defs>
  <circle class="st0" cx="35" cy="35" r="35"/>
  <path class="st1" d="M49.05,61.03c-.25.38-.83.36-1.04-.05-2-3.81-4.38-5.64-5.42-6.3-.29-.19-.68-.14-.91.12l-2.12,2.29c-.33.36-.79.56-1.28.56h-6.57c-.49,0-.95-.2-1.28-.56l-2.12-2.29c-.24-.25-.62-.31-.91-.12-1.03.66-3.42,2.49-5.42,6.3-.21.41-.79.44-1.04.05-1.69-2.57-5.9-10.7,1.49-19.63,0,0,0,0,0,0-.06-.23-1.34-5.18-.51-11.81.77-6.18,3.37-13.82,10.5-20.45,1.46-1.35,3.71-1.35,5.17,0,7.13,6.63,9.73,14.27,10.5,20.45.83,6.62-.45,11.57-.51,11.8,0,0,0,0,0,0,7.4,8.93,3.18,17.06,1.49,19.63Z"/>
  <circle class="st1" cx="35" cy="37.8" r="4.66"/>
</svg>