<svg width="330" height="43" viewBox="0 0 330 43" fill="none" xmlns="http://www.w3.org/2000/svg">
<path fill-rule="evenodd" clip-rule="evenodd" d="M83.6241 2.25623C86.5132 0.81237 89.773 0 93.2225 0C105.097 0 114.723 9.62588 114.723 21.5C114.723 25.4855 113.638 29.2177 111.748 32.4177C109.605 32.4938 107.48 32.1913 105.534 31.5301C104.455 31.1773 103.409 30.708 102.45 30.1222C103.014 29.3886 103.506 28.6031 103.904 27.7785C105.405 24.7514 105.767 21.2844 105.146 18.0503C104.836 16.4462 104.292 14.8679 103.594 13.419C102.895 11.9443 102.016 10.5989 101.058 9.30521C100.903 9.09822 100.722 8.91711 100.489 8.78775C99.5318 8.21854 98.3157 8.52902 97.7465 9.46045L97.643 9.61568C96.2976 12.4358 95.1851 15.4112 94.8488 18.6454C94.6935 20.2495 94.7453 21.9054 95.1075 23.5095C95.4697 25.1136 96.1941 26.666 97.2032 27.9338C97.5513 28.38 97.9333 28.7925 98.3406 29.1721C97.4411 29.9441 96.4066 30.5499 95.2886 30.935C94.1243 31.349 92.9083 31.5301 91.6664 31.5042C90.4245 31.4784 89.1567 31.2455 88.0442 30.8315C86.9057 30.4176 85.8967 29.7707 84.9911 28.9946C84.1115 28.1925 83.3353 27.2352 82.7143 26.1744C82.0934 25.1136 81.5759 23.9493 81.2137 22.7333C80.8515 21.4914 80.5927 20.2236 80.4634 18.93C80.3872 18.2955 80.3609 17.6362 80.3355 17.0008L80.334 16.9636C80.3081 16.3168 80.334 15.6441 80.3599 14.9973C80.4375 13.6777 80.5669 12.3582 80.8256 11.0646C81.3172 8.4514 82.1451 5.88998 83.2577 3.50966C83.3611 3.25093 83.4646 2.96633 83.5423 2.68172C83.5769 2.53985 83.6041 2.39789 83.6241 2.25623ZM73.6657 12.5554C73.6799 13.4146 73.7194 14.2743 73.7881 15.1266C73.8658 15.9287 73.9434 16.7308 74.0727 17.5328C74.2021 18.3349 74.3315 19.1369 74.5126 19.939C74.8748 21.5173 75.3664 23.0955 76.0132 24.622C76.66 26.1485 77.4362 27.6492 78.4453 29.0204C79.4284 30.4176 80.6445 31.6595 82.0416 32.6944C83.4388 33.7293 85.017 34.5055 86.6729 34.9971C87.5008 35.2558 88.3546 35.4111 89.1826 35.5145C90.0364 35.618 90.8643 35.6439 91.7181 35.618C93.4257 35.5663 95.1075 35.2041 96.6857 34.5572C97.4619 34.2209 98.2122 33.8328 98.9367 33.3671C99.6353 32.9272 100.308 32.3839 100.929 31.8147C101.109 31.6427 101.284 31.4661 101.456 31.2853C102.66 31.8705 103.932 32.2719 105.224 32.5392C106.724 32.8496 108.225 32.9531 109.726 32.9014C110.343 32.8694 110.956 32.8112 111.563 32.7249C107.783 38.8885 100.983 43 93.2225 43C81.3484 43 71.7225 33.3741 71.7225 21.5C71.7225 18.3083 72.418 15.279 73.6657 12.5554ZM99.689 27.7623C100.083 27.2606 100.43 26.7199 100.722 26.1485C101.291 25.036 101.653 23.82 101.809 22.5522C101.964 21.2844 101.86 20.0166 101.602 18.7488C101.343 17.4811 100.851 16.265 100.23 15.1266C100.079 14.8598 99.9201 14.5959 99.7543 14.3358C98.9737 15.8806 98.3506 17.4807 97.9794 19.1111C97.6948 20.4306 97.5654 21.7501 97.7206 23.0438C97.85 24.3374 98.264 25.6052 98.9626 26.7436C99.1803 27.0985 99.4233 27.4383 99.689 27.7623Z" fill="white"/>
<g clip-path="url(#clip0_14112_6808)">
<path d="M120.166 17.0586H126.04V35.2943L123.315 35.6703C122.343 35.6703 121.576 35.3883 121.012 34.8243C120.448 34.2603 120.166 33.5083 120.166 32.5683V17.0586ZM123.315 35.6703V30.8763H138.26C138.448 31.0957 138.605 31.409 138.73 31.8163C138.887 32.2236 138.965 32.678 138.965 33.1793C138.965 33.994 138.762 34.6206 138.354 35.0593C137.978 35.4666 137.461 35.6703 136.803 35.6703H123.315ZM126.04 23.5915H120.166V7.09474C120.416 7.03208 120.792 6.95374 121.294 6.85975C121.826 6.76575 122.359 6.71875 122.892 6.71875C123.988 6.71875 124.787 6.92241 125.288 7.32974C125.79 7.70573 126.04 8.41072 126.04 9.4447V23.5915Z" fill="white"/>
<path d="M145.407 27.4454L145.172 23.4035L157.815 21.5705C157.721 20.3485 157.251 19.2989 156.405 18.4215C155.591 17.5129 154.4 17.0586 152.833 17.0586C151.204 17.0586 149.857 17.6226 148.791 18.7505C147.726 19.8785 147.178 21.4922 147.146 23.5915L147.287 25.9884C147.538 27.9937 148.306 29.482 149.59 30.4533C150.875 31.3933 152.504 31.8633 154.478 31.8633C155.794 31.8633 157.016 31.6753 158.144 31.2993C159.272 30.892 160.165 30.4533 160.823 29.9834C161.23 30.2654 161.559 30.6257 161.81 31.0643C162.092 31.4717 162.233 31.9103 162.233 32.3803C162.233 33.195 161.873 33.9 161.152 34.4953C160.463 35.0593 159.507 35.4979 158.285 35.8113C157.063 36.1246 155.669 36.2812 154.102 36.2812C151.69 36.2812 149.543 35.8426 147.663 34.9653C145.815 34.0566 144.373 32.7093 143.339 30.9233C142.305 29.1374 141.788 26.9284 141.788 24.2965C141.788 22.3538 142.07 20.6618 142.634 19.2205C143.23 17.7792 144.029 16.5886 145.031 15.6486C146.065 14.6773 147.256 13.9566 148.603 13.4866C149.951 12.9853 151.361 12.7346 152.833 12.7346C154.901 12.7346 156.703 13.1576 158.238 14.0036C159.805 14.8183 161.027 15.9619 161.904 17.4346C162.781 18.9072 163.22 20.5992 163.22 22.5105C163.22 23.3878 163.001 24.0458 162.562 24.4844C162.123 24.8918 161.497 25.1424 160.682 25.2364L145.407 27.4454Z" fill="white"/>
<path d="M173.664 18.6565V25.1424H167.93V18.2336C167.93 17.4502 168.118 16.7922 168.494 16.2596C168.87 15.6956 169.402 15.1943 170.092 14.7556C171.032 14.1603 172.222 13.6746 173.664 13.2986C175.105 12.9226 176.656 12.7346 178.316 12.7346C181.23 12.7346 182.687 13.6433 182.687 15.4606C182.687 15.8679 182.625 16.2596 182.499 16.6356C182.374 17.0116 182.217 17.3249 182.029 17.5756C181.716 17.5129 181.324 17.4659 180.854 17.4346C180.384 17.3719 179.899 17.3406 179.397 17.3406C178.238 17.3406 177.157 17.4659 176.154 17.7166C175.183 17.9672 174.353 18.2806 173.664 18.6565ZM167.93 23.2155L173.664 23.4975V35.5293C173.413 35.6233 173.053 35.7016 172.583 35.7643C172.113 35.8583 171.611 35.9053 171.079 35.9053C170.013 35.9053 169.214 35.7173 168.682 35.3413C168.18 34.9653 167.93 34.2759 167.93 33.2733V23.2155Z" fill="white"/>
<path d="M206.643 21.1005V25.7064H200.956V21.3355C200.956 19.9255 200.548 18.9072 199.734 18.2806C198.95 17.6226 197.885 17.2936 196.538 17.2936C195.598 17.2936 194.736 17.4189 193.953 17.6696C193.17 17.8889 192.48 18.1709 191.885 18.5155V25.7064H186.151V18.1396C186.151 17.3876 186.308 16.7766 186.621 16.3066C186.934 15.8366 187.42 15.3823 188.078 14.9436C188.987 14.3483 190.177 13.8313 191.65 13.3926C193.154 12.954 194.799 12.7346 196.585 12.7346C199.749 12.7346 202.209 13.4396 203.964 14.8496C205.75 16.2596 206.643 18.3432 206.643 21.1005ZM186.151 23.3565H191.885V35.5293C191.634 35.6233 191.274 35.7016 190.804 35.7643C190.334 35.8583 189.833 35.9053 189.3 35.9053C188.235 35.9053 187.436 35.7173 186.903 35.3413C186.402 34.9653 186.151 34.2759 186.151 33.2733V23.3565ZM200.956 23.3565H206.643V35.5293C206.423 35.6233 206.063 35.7016 205.562 35.7643C205.092 35.8583 204.59 35.9053 204.058 35.9053C202.992 35.9053 202.209 35.7173 201.708 35.3413C201.206 34.9653 200.956 34.2759 200.956 33.2733V23.3565Z" fill="white"/>
<path d="M215.264 27.4454L215.029 23.4035L227.671 21.5705C227.577 20.3485 227.107 19.2989 226.261 18.4215C225.447 17.5129 224.256 17.0586 222.69 17.0586C221.06 17.0586 219.713 17.6226 218.648 18.7505C217.582 19.8785 217.034 21.4922 217.003 23.5915L217.144 25.9884C217.394 27.9937 218.162 29.482 219.447 30.4533C220.731 31.3933 222.361 31.8633 224.335 31.8633C225.65 31.8633 226.872 31.6753 228 31.2993C229.128 30.892 230.021 30.4533 230.679 29.9834C231.087 30.2654 231.416 30.6257 231.666 31.0643C231.948 31.4717 232.089 31.9103 232.089 32.3803C232.089 33.195 231.729 33.9 231.008 34.4953C230.319 35.0593 229.363 35.4979 228.141 35.8113C226.919 36.1246 225.525 36.2812 223.959 36.2812C221.546 36.2812 219.4 35.8426 217.52 34.9653C215.671 34.0566 214.23 32.7093 213.196 30.9233C212.162 29.1374 211.645 26.9284 211.645 24.2965C211.645 22.3538 211.927 20.6618 212.491 19.2205C213.086 17.7792 213.885 16.5886 214.888 15.6486C215.922 14.6773 217.112 13.9566 218.46 13.4866C219.807 12.9853 221.217 12.7346 222.69 12.7346C224.758 12.7346 226.559 13.1576 228.094 14.0036C229.661 14.8183 230.883 15.9619 231.76 17.4346C232.638 18.9072 233.076 20.5992 233.076 22.5105C233.076 23.3878 232.857 24.0458 232.418 24.4844C231.98 24.8918 231.353 25.1424 230.538 25.2364L215.264 27.4454Z" fill="white"/>
<path d="M258.277 21.1005V25.7064H252.591V21.3355C252.591 19.9255 252.183 18.9072 251.369 18.2806C250.585 17.6226 249.52 17.2936 248.173 17.2936C247.233 17.2936 246.371 17.4189 245.588 17.6696C244.804 17.8889 244.115 18.1709 243.52 18.5155V25.7064H237.786V18.1396C237.786 17.3876 237.942 16.7766 238.256 16.3066C238.569 15.8366 239.055 15.3823 239.713 14.9436C240.621 14.3483 241.812 13.8313 243.285 13.3926C244.789 12.954 246.434 12.7346 248.22 12.7346C251.384 12.7346 253.844 13.4396 255.599 14.8496C257.384 16.2596 258.277 18.3432 258.277 21.1005ZM237.786 23.3565H243.52V35.5293C243.269 35.6233 242.909 35.7016 242.439 35.7643C241.969 35.8583 241.467 35.9053 240.935 35.9053C239.869 35.9053 239.07 35.7173 238.538 35.3413C238.036 34.9653 237.786 34.2759 237.786 33.2733V23.3565ZM252.591 23.3565H258.277V35.5293C258.058 35.6233 257.698 35.7016 257.197 35.7643C256.727 35.8583 256.225 35.9053 255.693 35.9053C254.627 35.9053 253.844 35.7173 253.343 35.3413C252.841 34.9653 252.591 34.2759 252.591 33.2733V23.3565Z" fill="white"/>
</g>
<defs>
<clipPath id="clip0_14112_6808">
<rect width="138.112" height="29.5625" fill="white" transform="translate(120.166 6.71875)"/>
</clipPath>
</defs>
</svg>
