<svg width="185" height="272" viewBox="0 0 185 272" fill="none" xmlns="http://www.w3.org/2000/svg">
<rect x="0.339844" y="0.814453" width="184" height="270" fill="#D9D9D9"/>
<path d="M58.3849 134.955V149.5H56.6236V136.801H56.5384L52.9872 139.159V137.369L56.6236 134.955H58.3849ZM67.2273 149.699C66.2519 149.699 65.3902 149.526 64.642 149.18C63.8987 148.83 63.3187 148.349 62.902 147.739C62.4853 147.123 62.2794 146.422 62.2841 145.636C62.2794 145.021 62.4001 144.453 62.6463 143.932C62.8925 143.406 63.2287 142.968 63.6548 142.618C64.0857 142.263 64.5663 142.038 65.0966 141.943V141.858C64.4006 141.678 63.8466 141.287 63.4347 140.686C63.0227 140.08 62.8191 139.391 62.8239 138.619C62.8191 137.881 63.0062 137.22 63.3849 136.638C63.7637 136.055 64.2846 135.596 64.9474 135.26C65.6151 134.924 66.375 134.756 67.2273 134.756C68.0701 134.756 68.8229 134.924 69.4858 135.26C70.1487 135.596 70.6695 136.055 71.0483 136.638C71.4318 137.22 71.6259 137.881 71.6307 138.619C71.6259 139.391 71.4152 140.08 70.9986 140.686C70.5866 141.287 70.0398 141.678 69.358 141.858V141.943C69.8835 142.038 70.357 142.263 70.7784 142.618C71.1998 142.968 71.536 143.406 71.7869 143.932C72.0379 144.453 72.1657 145.021 72.1705 145.636C72.1657 146.422 71.9527 147.123 71.5312 147.739C71.1146 148.349 70.5346 148.83 69.7912 149.18C69.0526 149.526 68.1979 149.699 67.2273 149.699ZM67.2273 148.136C67.8854 148.136 68.4536 148.03 68.9318 147.817C69.41 147.604 69.7794 147.303 70.0398 146.915C70.3002 146.527 70.4328 146.072 70.4375 145.551C70.4328 145.002 70.2907 144.517 70.0114 144.095C69.732 143.674 69.3509 143.342 68.8679 143.101C68.3897 142.859 67.8428 142.739 67.2273 142.739C66.607 142.739 66.053 142.859 65.5653 143.101C65.0824 143.342 64.7012 143.674 64.4219 144.095C64.1473 144.517 64.0123 145.002 64.017 145.551C64.0123 146.072 64.1378 146.527 64.3935 146.915C64.6539 147.303 65.0256 147.604 65.5085 147.817C65.9915 148.03 66.5644 148.136 67.2273 148.136ZM67.2273 141.233C67.7481 141.233 68.2098 141.129 68.6122 140.92C69.0194 140.712 69.339 140.421 69.571 140.047C69.803 139.673 69.9214 139.235 69.9261 138.733C69.9214 138.241 69.8054 137.812 69.5781 137.447C69.3509 137.078 69.036 136.794 68.6335 136.595C68.2311 136.392 67.7623 136.29 67.2273 136.29C66.6828 136.29 66.2069 136.392 65.7997 136.595C65.3925 136.794 65.0777 137.078 64.8551 137.447C64.6326 137.812 64.5237 138.241 64.5284 138.733C64.5237 139.235 64.6349 139.673 64.8622 140.047C65.0942 140.421 65.4138 140.712 65.821 140.92C66.2282 141.129 66.697 141.233 67.2273 141.233ZM74.5515 146.517V145.068L80.9435 134.955H81.9947V137.199H81.2844L76.4549 144.841V144.955H85.0629V146.517H74.5515ZM81.3981 149.5V146.077V145.402V134.955H83.0742V149.5H81.3981ZM96.2756 146.886L88.2642 138.875L89.3438 137.795L97.3551 145.807L96.2756 146.886ZM89.3438 146.886L88.2642 145.807L96.2756 137.795L97.3551 138.875L89.3438 146.886ZM100.908 149.5V148.222L105.709 142.966C106.273 142.35 106.737 141.815 107.101 141.361C107.466 140.902 107.736 140.471 107.911 140.068C108.091 139.661 108.181 139.235 108.181 138.79C108.181 138.278 108.058 137.836 107.811 137.462C107.57 137.088 107.239 136.799 106.817 136.595C106.396 136.392 105.922 136.29 105.397 136.29C104.838 136.29 104.35 136.406 103.934 136.638C103.522 136.865 103.202 137.185 102.975 137.597C102.752 138.009 102.641 138.491 102.641 139.045H100.965C100.965 138.193 101.161 137.445 101.554 136.801C101.947 136.157 102.482 135.655 103.159 135.295C103.841 134.936 104.606 134.756 105.453 134.756C106.306 134.756 107.061 134.936 107.719 135.295C108.377 135.655 108.893 136.141 109.267 136.751C109.641 137.362 109.828 138.042 109.828 138.79C109.828 139.325 109.731 139.848 109.537 140.359C109.348 140.866 109.016 141.432 108.543 142.057C108.074 142.677 107.423 143.435 106.59 144.33L103.323 147.824V147.938H110.084V149.5H100.908ZM113.472 149.5L119.978 136.631V136.517H112.478V134.955H121.796V136.602L115.319 149.5H113.472ZM129.557 134.955V149.5H127.795V136.801H127.71L124.159 139.159V137.369L127.795 134.955H129.557Z" fill="black"/>
</svg>
