<svg xmlns="http://www.w3.org/2000/svg" width="267" height="183" viewBox="0 0 267 183"><rect width="100%" height="100%" fill="#DDDDDD"/><path fill="#999999" d="M62.81 100.375h6.68q.72 0 1.14.4.43.41.43 1.08v2.66H53.2v-1.48q0-.45.19-.94.19-.5.6-.89l7.9-7.92q.99-1.01 1.78-1.93.78-.92 1.3-1.82t.8-1.82q.28-.93.28-1.96 0-.93-.27-1.64-.27-.71-.76-1.2-.5-.49-1.19-.73t-1.56-.24q-.79 0-1.47.22-.67.23-1.19.63-.52.41-.88.95t-.54 1.19q-.31.82-.8 1.09-.48.27-1.4.13l-2.34-.41q.27-1.88 1.04-3.29.78-1.41 1.94-2.36 1.16-.94 2.66-1.42 1.51-.48 3.23-.48 1.8 0 3.3.53 1.49.54 2.55 1.51 1.07.97 1.66 2.34.59 1.37.59 3.04 0 1.44-.42 2.66-.42 1.23-1.13 2.34-.71 1.12-1.67 2.16-.95 1.05-2 2.13l-5.86 5.99q.84-.25 1.68-.39.84-.13 1.59-.13Zm27.02-21.89-7.72 9.45-.9 1.12q.75-.38 1.63-.59.87-.2 1.88-.2 1.47 0 2.87.48 1.39.49 2.46 1.47 1.06.98 1.71 2.44.64 1.46.64 3.4 0 1.82-.66 3.41-.67 1.59-1.87 2.78-1.21 1.19-2.91 1.87-1.7.69-3.75.69-2.09 0-3.75-.67-1.65-.66-2.82-1.86-1.17-1.2-1.79-2.88-.63-1.68-.63-3.74 0-1.83.75-3.77.75-1.93 2.31-4.02l6.21-8.33q.33-.44.95-.74.62-.31 1.43-.31h3.96Zm-6.71 22.68q1.06 0 1.95-.36.89-.36 1.53-1.01.64-.64 1-1.52.36-.87.36-1.9 0-1.11-.34-2-.35-.89-.98-1.52-.63-.62-1.51-.94-.88-.32-1.94-.32t-1.93.36q-.86.36-1.47.99-.62.64-.96 1.52-.34.87-.34 1.88 0 1.08.3 1.97.29.89.88 1.52.58.63 1.45.98.86.35 2 .35Zm12.15-22.68h17.98v1.93q0 .86-.18 1.39-.18.53-.36.89l-9.87 20.31q-.3.63-.86 1.07-.56.44-1.49.44h-3.23l10.07-19.89q.34-.61.67-1.13.33-.51.75-.98H96.29q-.41 0-.72-.3-.3-.31-.3-.72v-3.01Zm46.89 20.07-2.36 2.32-6.1-6.1-6.16 6.14-2.36-2.32 6.16-6.18-5.87-5.86 2.34-2.34 5.87 5.86 5.83-5.83 2.38 2.34-5.85 5.85 6.12 6.12Zm24.64 2.63h4.68v3.33h-14.4v-3.33h5.27v-15.17q0-.9.06-1.86l-3.75 3.13q-.32.26-.64.32-.31.06-.59.01-.28-.06-.5-.19-.21-.14-.32-.3l-1.4-1.92 7.93-6.75h3.66v22.73Zm17.37.14q1.1 0 1.92-.31.83-.32 1.4-.87.57-.56.85-1.34.29-.77.29-1.67 0-2.14-1.19-3.24-1.18-1.1-3.27-1.1t-3.28 1.1q-1.19 1.1-1.19 3.24 0 .9.29 1.67.29.78.86 1.34.56.55 1.39.87.83.31 1.93.31Zm0-19.78q-.99 0-1.71.31-.72.3-1.2.82-.48.51-.7 1.18-.23.66-.23 1.4 0 .77.19 1.5t.64 1.3q.45.57 1.19.91.74.34 1.82.34t1.82-.34q.73-.34 1.18-.91.45-.57.64-1.3.19-.73.19-1.5 0-.74-.23-1.4-.24-.67-.7-1.18-.47-.52-1.19-.82-.72-.31-1.71-.31Zm4.39 9.4q2.38.77 3.51 2.36 1.13 1.6 1.13 3.9 0 1.73-.65 3.13-.66 1.41-1.85 2.4t-2.85 1.53q-1.67.54-3.68.54-2.02 0-3.68-.54-1.67-.54-2.86-1.53-1.18-.99-1.84-2.4-.66-1.4-.66-3.13 0-2.3 1.14-3.9 1.13-1.59 3.51-2.36-1.89-.79-2.84-2.25-.94-1.46-.94-3.51 0-1.48.6-2.76.6-1.27 1.68-2.22 1.08-.94 2.59-1.48 1.5-.53 3.3-.53 1.8 0 3.3.53 1.5.54 2.58 1.48 1.08.95 1.69 2.22.6 1.28.6 2.76 0 2.05-.94 3.51-.95 1.46-2.84 2.25Zm10.33-4.79-2.34-.41q.27-1.88 1.05-3.29.77-1.41 1.93-2.36 1.16-.94 2.67-1.42 1.5-.48 3.23-.48 1.8 0 3.25.52 1.44.51 2.47 1.42 1.03.91 1.58 2.13.54 1.23.54 2.65 0 1.24-.27 2.18-.28.95-.81 1.65-.52.7-1.29 1.19-.78.49-1.75.81 2.34.74 3.49 2.25 1.16 1.51 1.16 3.8 0 1.94-.72 3.44-.72 1.49-1.95 2.51-1.22 1.01-2.83 1.54-1.61.52-3.41.52-1.97 0-3.42-.45-1.46-.45-2.54-1.33-1.08-.89-1.84-2.16-.75-1.28-1.29-2.96l1.96-.81q.77-.32 1.45-.17.67.16.98.73.32.63.71 1.24.39.62.93 1.09.54.48 1.27.78.72.29 1.73.29 1.14 0 1.98-.37.85-.36 1.42-.96.56-.59.84-1.32.28-.73.28-1.47 0-.93-.2-1.7-.2-.76-.83-1.3-.63-.54-1.8-.85-1.18-.31-3.16-.31v-3.16q1.63-.02 2.71-.31t1.72-.8q.64-.51.89-1.23.26-.72.26-1.59 0-1.83-1.03-2.79-1.03-.95-2.74-.95-.79 0-1.45.22-.67.23-1.2.63-.53.41-.89.95t-.54 1.19q-.31.82-.8 1.09-.5.27-1.4.13Z"/></svg>