<svg width="24" height="24" viewBox="0 0 24 24" fill="none" xmlns="http://www.w3.org/2000/svg">
<rect width="24" height="24" rx="12" fill="#295C51"/>
<path fill-rule="evenodd" clip-rule="evenodd" d="M8.555 5.09557C9.59179 4.57731 10.7616 4.28572 11.9996 4.28572C16.2601 4.28572 19.7139 7.73952 19.7139 12C19.7139 13.4297 19.3249 14.7686 18.6471 15.9166C17.8778 15.9441 17.115 15.8355 16.4166 15.5982C16.0294 15.4716 15.6542 15.3032 15.3101 15.093C15.5125 14.8298 15.6889 14.548 15.8318 14.2521C16.3702 13.1659 16.5002 11.922 16.2774 10.7616C16.166 10.186 15.971 9.61971 15.7204 9.09984C15.4697 8.57069 15.1541 8.08796 14.8106 7.62379C14.7549 7.54953 14.6899 7.48454 14.6064 7.43813C14.2629 7.23389 13.8266 7.34529 13.6223 7.67949L13.5852 7.73519C13.1025 8.74708 12.7033 9.81466 12.5826 10.9751C12.5269 11.5506 12.5455 12.1448 12.6754 12.7203C12.8054 13.2959 13.0653 13.8529 13.4274 14.3078C13.5523 14.4679 13.6893 14.6159 13.8355 14.7521C13.5128 15.0291 13.1416 15.2465 12.7404 15.3847C12.3227 15.5332 11.8863 15.5982 11.4407 15.5889C10.9951 15.5796 10.5403 15.4961 10.1411 15.3475C9.73261 15.199 9.37056 14.9669 9.04565 14.6884C8.73001 14.4006 8.45151 14.0571 8.22871 13.6765C8.00591 13.2959 7.82025 12.8782 7.69028 12.4418C7.56031 11.9962 7.46748 11.5414 7.42106 11.0772C7.39375 10.8496 7.38429 10.613 7.37518 10.385L7.37465 10.3717C7.36536 10.1396 7.37465 9.89821 7.38393 9.66613C7.41178 9.19268 7.4582 8.71923 7.55103 8.25506C7.72741 7.31744 8.02448 6.3984 8.42366 5.54433C8.4608 5.4515 8.49793 5.34938 8.52578 5.24726C8.53814 5.19668 8.54785 5.14607 8.555 5.09557ZM4.98206 8.79165C4.98717 9.09938 5.00134 9.40727 5.02596 9.71254C5.05381 10.0003 5.08166 10.2881 5.12808 10.5759C5.1745 10.8637 5.22091 11.1515 5.2859 11.4392C5.41586 12.0055 5.59225 12.5718 5.82433 13.1195C6.05641 13.6672 6.33491 14.2057 6.69696 14.6977C7.04973 15.199 7.48605 15.6446 7.98735 16.0159C8.48865 16.3873 9.05493 16.6658 9.64906 16.8421C9.94613 16.935 10.2525 16.9907 10.5495 17.0278C10.8559 17.0649 11.153 17.0742 11.4593 17.0649C12.072 17.0464 12.6754 16.9164 13.2417 16.6843C13.5202 16.5636 13.7894 16.4244 14.0494 16.2573C14.3 16.0995 14.5414 15.9045 14.7642 15.7003C14.8286 15.6386 14.8917 15.5752 14.9532 15.5103C15.3851 15.7203 15.8417 15.8643 16.3052 15.9602C16.8436 16.0716 17.3821 16.1088 17.9205 16.0902C18.1424 16.0787 18.3627 16.0578 18.5808 16.0267C17.2245 18.2387 14.7844 19.7143 11.9996 19.7143C7.7391 19.7143 4.2853 16.2605 4.2853 12C4.2853 10.8552 4.53467 9.76861 4.98206 8.79165ZM14.3193 14.2463C14.4605 14.0663 14.585 13.8723 14.6899 13.6672C14.8941 13.2681 15.0241 12.8317 15.0798 12.3769C15.1355 11.922 15.0984 11.4671 15.0055 11.0122C14.9127 10.5573 14.7363 10.121 14.5135 9.71254C14.4591 9.61682 14.4022 9.52211 14.3427 9.42879C14.0626 9.98307 13.8391 10.5572 13.7059 11.1422C13.6038 11.6156 13.5573 12.0891 13.613 12.5532C13.6595 13.0174 13.808 13.4723 14.0586 13.8808C14.1368 14.0081 14.2239 14.13 14.3193 14.2463Z" fill="white"/>
</svg>
