<svg width="36" height="49" viewBox="0 0 36 49" fill="none" xmlns="http://www.w3.org/2000/svg">
<path d="M30.6001 12.8009C32.5883 12.8009 34.2 14.4126 34.2 16.4008V39.8003C34.2 43.7767 30.9765 47.0002 27.0001 47.0002H9.00019C5.0238 47.0002 1.80029 43.7767 1.80029 39.8003V9.20099C1.80029 5.22459 5.0238 2.0011 9.00019 2.0011H19.8002C21.7884 2.0011 23.4001 3.61285 23.4001 5.60105V9.20093C23.4001 11.1891 25.0119 12.8009 27.0001 12.8009H30.6001Z" stroke="#EAEAEA" stroke-width="2.69996" stroke-miterlimit="10"/>
<path d="M17.6001 2.00012H20.4742C22.3479 2.00012 24.1478 2.73055 25.4916 4.03627L32.0134 10.3733C33.4087 11.729 34.196 13.5916 34.196 15.537V21.8537" stroke="#EAEAEA" stroke-width="2.69996" stroke-miterlimit="10"/>
<path d="M16.6482 36.1983C21.8672 36.1983 26.0981 31.9675 26.0981 26.7485C26.0981 21.5295 21.8672 17.2987 16.6482 17.2987C11.4291 17.2987 7.19824 21.5295 7.19824 26.7485C7.19824 31.9675 11.4291 36.1983 16.6482 36.1983Z" stroke="#EAEAEA" stroke-width="2.02497" stroke-miterlimit="10"/>
<path d="M15.1913 25.616C14.795 26.2939 14.0589 26.7519 13.221 26.7519C12.3754 26.7519 11.6418 26.2939 11.248 25.616" stroke="#EAEAEA" stroke-width="1.71004" stroke-miterlimit="10" stroke-linecap="round"/>
<path d="M22.0503 25.6162C21.655 26.2981 20.9166 26.7593 20.0757 26.7593C19.2272 26.7593 18.4914 26.2981 18.0986 25.6162" stroke="#EAEAEA" stroke-width="1.71004" stroke-miterlimit="10" stroke-linecap="round"/>
<path d="M16.6841 30.5795H16.6946" stroke="#EAEAEA" stroke-width="2.28006" stroke-linecap="round"/>
<path d="M28.7932 38.8977L26.0933 36.1978" stroke="#EAEAEA" stroke-width="2.02497" stroke-miterlimit="10" stroke-linecap="round"/>
</svg>
