<svg width="44" height="43" viewBox="0 0 44 43" fill="none" xmlns="http://www.w3.org/2000/svg">
<rect x="0.5" width="43" height="43" rx="13.1867" fill="#6A00FC"/>
<path fill-rule="evenodd" clip-rule="evenodd" d="M22.0001 8.6C14.8739 8.6 9.10006 14.3739 9.10006 21.5C9.10006 28.6261 14.8739 34.4 22.0001 34.4H32.873L23.9615 25.4885C22.9765 26.0864 21.8204 26.4307 20.5839 26.4307C16.9837 26.4307 14.0651 23.5121 14.0651 19.9119C14.0651 16.3116 16.9837 13.3931 20.5839 13.3931C24.1842 13.3931 27.1027 16.3116 27.1027 19.9119C27.1027 21.2376 26.707 22.4709 26.0272 23.5001L34.9001 32.373V21.5C34.9001 14.3739 29.1262 8.6 22.0001 8.6ZM6.2334 21.5C6.2334 12.7907 13.2907 5.73333 22.0001 5.73333C30.7094 5.73333 37.7667 12.7907 37.7667 21.5V37.2667H22.0001C13.2907 37.2667 6.2334 30.2093 6.2334 21.5ZM20.5839 16.2597C18.5669 16.2597 16.9318 17.8948 16.9318 19.9119C16.9318 21.9289 18.5669 23.564 20.5839 23.564C22.6009 23.564 24.2361 21.9289 24.2361 19.9119C24.2361 17.8948 22.6009 16.2597 20.5839 16.2597Z" fill="white"/>
</svg>
