<svg width="127" height="32" viewBox="0 0 127 32" fill="none" xmlns="http://www.w3.org/2000/svg">
<rect width="32" height="32" rx="8" fill="white"/>
<path fill-rule="evenodd" clip-rule="evenodd" d="M15.9999 6.39994C10.6968 6.39994 6.39994 10.6968 6.39994 15.9999C6.39994 21.3031 10.6968 25.5999 15.9999 25.5999H24.0914L17.4596 18.9681C16.7266 19.4131 15.8662 19.6693 14.9461 19.6693C12.2668 19.6693 10.0949 17.4973 10.0949 14.8181C10.0949 12.1388 12.2668 9.96687 14.9461 9.96687C17.6253 9.96687 19.7973 12.1388 19.7973 14.8181C19.7973 15.8047 19.5028 16.7225 18.9969 17.4884L25.5999 24.0914V15.9999C25.5999 10.6968 21.3031 6.39994 15.9999 6.39994ZM4.2666 15.9999C4.2666 9.51856 9.51856 4.2666 15.9999 4.2666C22.4813 4.2666 27.7333 9.51856 27.7333 15.9999V27.7333H15.9999C9.51856 27.7333 4.2666 22.4813 4.2666 15.9999ZM14.9461 12.1002C13.445 12.1002 12.2282 13.317 12.2282 14.8181C12.2282 16.3191 13.445 17.5359 14.9461 17.5359C16.4471 17.5359 17.6639 16.3191 17.6639 14.8181C17.6639 13.317 16.4471 12.1002 14.9461 12.1002Z" fill="#6A00FC"/>
<path d="M51.2676 8.78125H53.9531V18.2246C53.9531 19.3118 53.7188 20.2266 53.25 20.9688C52.7812 21.7044 52.1432 22.2611 51.3359 22.6387C50.5286 23.0098 49.6107 23.1953 48.582 23.1953C47.5404 23.1953 46.6126 23.0098 45.7988 22.6387C44.985 22.2611 44.347 21.7044 43.8848 20.9688C43.4225 20.2266 43.1914 19.3118 43.1914 18.2246V8.78125H45.877V18.2246C45.877 18.8887 45.9876 19.4323 46.209 19.8555C46.4303 20.2721 46.7428 20.5814 47.1465 20.7832C47.5501 20.985 48.0286 21.0859 48.582 21.0859C49.1419 21.0859 49.6204 20.985 50.0176 20.7832C50.4212 20.5814 50.7305 20.2721 50.9453 19.8555C51.1602 19.4323 51.2676 18.8887 51.2676 18.2246V8.78125ZM58.8848 14.4648V27.0625H56.2969V12.4336H58.6895L58.8848 14.4648ZM65.6719 17.6094V17.8145C65.6719 18.5827 65.5807 19.2956 65.3984 19.9531C65.2227 20.6042 64.9622 21.1738 64.6172 21.6621C64.2721 22.1439 63.8424 22.5215 63.3281 22.7949C62.8203 23.0618 62.2344 23.1953 61.5703 23.1953C60.9193 23.1953 60.3529 23.0716 59.8711 22.8242C59.3893 22.5703 58.9824 22.2122 58.6504 21.75C58.3184 21.2878 58.0514 20.7507 57.8496 20.1387C57.6543 19.5202 57.5078 18.8464 57.4102 18.1172V17.4629C57.5078 16.6882 57.6543 15.985 57.8496 15.3535C58.0514 14.7155 58.3184 14.1654 58.6504 13.7031C58.9824 13.2344 59.3861 12.873 59.8613 12.6191C60.3431 12.3652 60.9062 12.2383 61.5508 12.2383C62.2214 12.2383 62.8105 12.3652 63.3184 12.6191C63.8327 12.873 64.2656 13.2376 64.6172 13.7129C64.9688 14.1882 65.2324 14.7546 65.4082 15.4121C65.584 16.0697 65.6719 16.8021 65.6719 17.6094ZM63.084 17.8145V17.6094C63.084 17.1406 63.0417 16.7077 62.957 16.3105C62.8724 15.9069 62.7422 15.5553 62.5664 15.2559C62.3906 14.9499 62.1628 14.7122 61.8828 14.543C61.6029 14.3737 61.2643 14.2891 60.8672 14.2891C60.4701 14.2891 60.1283 14.3542 59.8418 14.4844C59.5553 14.6146 59.321 14.8001 59.1387 15.041C58.9564 15.2819 58.8132 15.5684 58.709 15.9004C58.6113 16.2259 58.5462 16.5872 58.5137 16.9844V18.6055C58.5723 19.0872 58.6862 19.5202 58.8555 19.9043C59.0247 20.2884 59.2721 20.5944 59.5977 20.8223C59.9297 21.0501 60.3594 21.1641 60.8867 21.1641C61.2839 21.1641 61.6224 21.0762 61.9023 20.9004C62.1823 20.7246 62.4102 20.4837 62.5859 20.1777C62.7617 19.8652 62.8887 19.5072 62.9668 19.1035C63.0449 18.6999 63.084 18.2702 63.084 17.8145ZM76.0723 18.3223H78.7578C78.6862 19.2728 78.4225 20.1159 77.9668 20.8516C77.5111 21.5807 76.8763 22.1536 76.0625 22.5703C75.2487 22.987 74.2624 23.1953 73.1035 23.1953C72.2116 23.1953 71.4076 23.0391 70.6914 22.7266C69.9818 22.4076 69.373 21.9551 68.8652 21.3691C68.3639 20.7767 67.9798 20.0671 67.7129 19.2402C67.446 18.4069 67.3125 17.4727 67.3125 16.4375V15.3535C67.3125 14.3184 67.4492 13.3841 67.7227 12.5508C67.9961 11.7174 68.3867 11.0078 68.8945 10.4219C69.4089 9.82943 70.0241 9.3737 70.7402 9.05469C71.4629 8.73568 72.2702 8.57617 73.1621 8.57617C74.321 8.57617 75.3008 8.79102 76.1016 9.2207C76.9023 9.64388 77.5241 10.2266 77.9668 10.9688C78.4095 11.7109 78.6764 12.5638 78.7676 13.5273H76.082C76.0299 12.9284 75.8997 12.4206 75.6914 12.0039C75.4896 11.5872 75.1836 11.2715 74.7734 11.0566C74.3698 10.8353 73.8327 10.7246 73.1621 10.7246C72.6413 10.7246 72.1823 10.8223 71.7852 11.0176C71.3945 11.2129 71.069 11.5059 70.8086 11.8965C70.5482 12.2806 70.3529 12.7624 70.2227 13.3418C70.0924 13.9147 70.0273 14.5788 70.0273 15.334V16.4375C70.0273 17.1602 70.0859 17.8079 70.2031 18.3809C70.3203 18.9538 70.5026 19.4388 70.75 19.8359C70.9974 20.2331 71.3164 20.5358 71.707 20.7441C72.0977 20.9525 72.5632 21.0566 73.1035 21.0566C73.7611 21.0566 74.2949 20.9525 74.7051 20.7441C75.1217 20.5358 75.4375 20.2298 75.6523 19.8262C75.8737 19.4225 76.0137 18.9212 76.0723 18.3223ZM85.3887 23.1953C84.5879 23.1953 83.8685 23.0651 83.2305 22.8047C82.5924 22.5443 82.0488 22.1829 81.5996 21.7207C81.1569 21.252 80.8151 20.7083 80.5742 20.0898C80.3398 19.4648 80.2227 18.7943 80.2227 18.0781V17.6875C80.2227 16.8737 80.3398 16.1348 80.5742 15.4707C80.8086 14.8001 81.1406 14.224 81.5703 13.7422C82 13.2604 82.5143 12.8893 83.1133 12.6289C83.7122 12.3685 84.373 12.2383 85.0957 12.2383C85.8444 12.2383 86.5052 12.3652 87.0781 12.6191C87.651 12.8665 88.1296 13.2181 88.5137 13.6738C88.8978 14.1296 89.1875 14.6764 89.3828 15.3145C89.5781 15.946 89.6758 16.6458 89.6758 17.4141V18.498H81.3945V16.7207H87.1367V16.5254C87.1237 16.1152 87.0456 15.7409 86.9023 15.4023C86.7591 15.0573 86.5378 14.7839 86.2383 14.582C85.9388 14.3737 85.5514 14.2695 85.0762 14.2695C84.6921 14.2695 84.3568 14.3542 84.0703 14.5234C83.7904 14.6862 83.556 14.9206 83.3672 15.2266C83.1849 15.526 83.0482 15.8841 82.957 16.3008C82.8659 16.7174 82.8203 17.1797 82.8203 17.6875V18.0781C82.8203 18.5208 82.8789 18.931 82.9961 19.3086C83.1198 19.6862 83.2988 20.015 83.5332 20.2949C83.7741 20.5684 84.0605 20.7832 84.3926 20.9395C84.7311 21.0892 85.1152 21.1641 85.5449 21.1641C86.0853 21.1641 86.5736 21.0599 87.0098 20.8516C87.4525 20.6367 87.8366 20.321 88.1621 19.9043L89.4609 21.252C89.2396 21.5775 88.9401 21.89 88.5625 22.1895C88.1914 22.4889 87.7422 22.7331 87.2148 22.9219C86.6875 23.1042 86.0788 23.1953 85.3887 23.1953ZM93.9824 14.5918V23H91.4043V12.4336H93.8457L93.9824 14.5918ZM97.1953 12.3652L97.1562 14.7676C97.013 14.7415 96.8503 14.722 96.668 14.709C96.4922 14.696 96.3262 14.6895 96.1699 14.6895C95.7728 14.6895 95.4245 14.7448 95.125 14.8555C94.8255 14.9596 94.5749 15.1126 94.373 15.3145C94.1777 15.5163 94.028 15.7637 93.9238 16.0566C93.8197 16.3431 93.7611 16.6686 93.748 17.0332L93.1914 16.9648C93.1914 16.2943 93.2598 15.6725 93.3965 15.0996C93.5332 14.5267 93.7318 14.0254 93.9922 13.5957C94.2526 13.166 94.5781 12.834 94.9688 12.5996C95.3659 12.3587 95.8216 12.2383 96.3359 12.2383C96.4792 12.2383 96.6322 12.2513 96.7949 12.2773C96.9642 12.2969 97.0977 12.3262 97.1953 12.3652ZM104.1 12.4336V14.2891H98.0449V12.4336H104.1ZM99.666 9.83594H102.254V19.9531C102.254 20.2656 102.296 20.5065 102.381 20.6758C102.465 20.8451 102.592 20.959 102.762 21.0176C102.931 21.0762 103.133 21.1055 103.367 21.1055C103.536 21.1055 103.693 21.0957 103.836 21.0762C103.979 21.0566 104.1 21.0371 104.197 21.0176L104.207 22.9512C103.992 23.0228 103.748 23.0814 103.475 23.127C103.208 23.1725 102.905 23.1953 102.566 23.1953C101.987 23.1953 101.479 23.0977 101.043 22.9023C100.607 22.7005 100.268 22.3783 100.027 21.9355C99.7865 21.4863 99.666 20.8939 99.666 20.1582V9.83594ZM108.553 12.4336V23H105.965V12.4336H108.553ZM105.789 9.66992C105.789 9.28581 105.919 8.9668 106.18 8.71289C106.447 8.45898 106.805 8.33203 107.254 8.33203C107.703 8.33203 108.058 8.45898 108.318 8.71289C108.585 8.9668 108.719 9.28581 108.719 9.66992C108.719 10.0475 108.585 10.3633 108.318 10.6172C108.058 10.8711 107.703 10.998 107.254 10.998C106.805 10.998 106.447 10.8711 106.18 10.6172C105.919 10.3633 105.789 10.0475 105.789 9.66992ZM114.393 23H111.795V11.457C111.795 10.6628 111.948 9.99544 112.254 9.45508C112.56 8.9082 112.996 8.49479 113.562 8.21484C114.129 7.9349 114.796 7.79492 115.564 7.79492C115.818 7.79492 116.059 7.8112 116.287 7.84375C116.521 7.8763 116.753 7.92188 116.98 7.98047L116.932 9.94336C116.808 9.91081 116.671 9.88802 116.521 9.875C116.378 9.86198 116.219 9.85547 116.043 9.85547C115.691 9.85547 115.392 9.91732 115.145 10.041C114.897 10.1647 114.708 10.347 114.578 10.5879C114.454 10.8223 114.393 11.112 114.393 11.457V23ZM116.531 12.4336V14.2891H110.203V12.4336H116.531ZM121.219 21.8281L124.051 12.4336H126.814L122.576 24.6016C122.479 24.862 122.352 25.1452 122.195 25.4512C122.046 25.7572 121.844 26.0469 121.59 26.3203C121.336 26.6003 121.017 26.8281 120.633 27.0039C120.255 27.1797 119.796 27.2676 119.256 27.2676C119.021 27.2676 118.813 27.2513 118.631 27.2188C118.449 27.1862 118.257 27.1439 118.055 27.0918V25.1582C118.12 25.1647 118.195 25.168 118.279 25.168C118.37 25.1745 118.449 25.1777 118.514 25.1777C118.891 25.1777 119.204 25.1322 119.451 25.041C119.699 24.9564 119.897 24.8164 120.047 24.6211C120.203 24.4323 120.333 24.1849 120.438 23.8789L121.219 21.8281ZM119.822 12.4336L122.215 20.2168L122.635 22.9414L120.857 23.2637L117.039 12.4336H119.822Z" fill="white"/>
</svg>
