<svg xmlns="http://www.w3.org/2000/svg" width="68" height="67" viewBox="0 0 68 67"><rect width="100%" height="100%" fill="#DDDDDD"/><path fill="#999999" d="m18.115 28.8-2.79 3.41-.32.41q.27-.14.59-.21.31-.08.68-.08.53 0 1.03.18.51.17.89.53.38.35.62.88.23.52.23 1.22 0 .66-.24 1.24-.24.57-.67 1-.44.43-1.05.68-.62.24-1.36.24-.75 0-1.35-.24-.6-.24-1.02-.67-.42-.43-.65-1.04-.22-.61-.22-1.35 0-.66.27-1.36.27-.7.83-1.45l2.24-3.01q.12-.16.35-.27.22-.11.51-.11h1.43Zm-2.42 8.19q.38 0 .7-.13.32-.13.56-.36.23-.24.36-.55.13-.32.13-.69 0-.4-.13-.72-.12-.32-.35-.55-.23-.22-.54-.34-.32-.12-.71-.12-.38 0-.69.13-.31.13-.53.36-.23.23-.35.55-.12.31-.12.68 0 .39.1.71.11.32.32.55.21.23.53.35.31.13.72.13Zm7.55.06q.4 0 .7-.11.3-.12.5-.32.21-.2.31-.48.1-.28.1-.61 0-.77-.43-1.17-.43-.39-1.18-.39t-1.18.39q-.43.4-.43 1.17 0 .33.1.61.11.28.31.48.21.2.51.32.29.11.69.11Zm0-7.14q-.36 0-.62.11t-.43.29q-.17.19-.25.43-.08.24-.08.5 0 .28.06.55.07.26.24.47.16.2.42.32.27.13.66.13t.66-.13q.26-.12.43-.32.16-.21.23-.47.07-.27.07-.55 0-.26-.09-.5-.08-.24-.25-.43-.17-.18-.43-.29-.26-.11-.62-.11Zm1.59 3.39q.86.28 1.26.85.41.58.41 1.41 0 .62-.23 1.13-.24.51-.67.87-.43.35-1.03.55-.6.19-1.33.19-.73 0-1.33-.19-.6-.2-1.03-.55-.43-.36-.66-.87-.24-.51-.24-1.13 0-.83.41-1.41.41-.57 1.26-.85-.68-.29-1.02-.81-.34-.53-.34-1.27 0-.53.22-1 .22-.46.61-.8t.93-.53q.54-.19 1.19-.19.65 0 1.19.19.55.19.94.53.39.34.6.8.22.47.22 1 0 .74-.34 1.27-.34.52-1.02.81Zm12.18 2.75-.85.84-2.21-2.21-2.22 2.22-.85-.84 2.22-2.23-2.12-2.12.85-.84 2.12 2.12 2.1-2.11.86.85-2.11 2.11 2.21 2.21Zm10.04-7.25-2.79 3.41-.32.41q.27-.14.59-.21.31-.08.67-.08.54 0 1.04.18.51.17.89.53.38.35.62.88.23.52.23 1.22 0 .66-.24 1.24-.24.57-.68 1-.43.43-1.05.68-.61.24-1.35.24-.76 0-1.35-.24-.6-.24-1.02-.67-.43-.43-.65-1.04-.22-.61-.22-1.35 0-.66.26-1.36.27-.7.84-1.45l2.24-3.01q.12-.16.34-.27.23-.11.52-.11h1.43Zm-2.42 8.19q.38 0 .7-.13.32-.13.55-.36.23-.24.36-.55.13-.32.13-.69 0-.4-.12-.72-.12-.32-.35-.55-.23-.22-.55-.34-.31-.12-.7-.12-.38 0-.69.13-.32.13-.54.36-.22.23-.34.55-.12.31-.12.68 0 .39.1.71.11.32.32.55.21.23.52.35.32.13.73.13Zm4.38-8.19h6.5v.7q0 .31-.07.5-.06.19-.13.32l-3.56 7.33q-.11.23-.31.39t-.54.16h-1.16l3.63-7.18q.12-.22.24-.41.12-.18.27-.35h-4.5q-.15 0-.26-.11-.11-.11-.11-.26V28.8Z"/></svg>