<svg width="100" height="71" viewBox="0 0 100 71" fill="none" xmlns="http://www.w3.org/2000/svg">
<path opacity="0.3" d="M7.19762 42.5456C7.19762 44.2915 5.78227 45.7068 4.03638 45.7068C2.29048 45.7068 0.875135 44.2915 0.875135 42.5456C0.875135 40.7996 2.29048 39.3843 4.03638 39.3843C5.78227 39.3843 7.19762 40.7996 7.19762 42.5456Z" stroke="#1570EF" stroke-width="1.75027"/>
<path opacity="0.8" d="M99.1253 30.2364C99.1253 31.9824 97.71 33.3977 95.9641 33.3977C94.2182 33.3977 92.8029 31.9824 92.8029 30.2364C92.8029 28.4905 94.2182 27.0751 95.9641 27.0751C97.71 27.0751 99.1253 28.4905 99.1253 30.2364Z" stroke="#90E8F6" stroke-width="1.75027"/>
<ellipse opacity="0.8" cx="8.07304" cy="8.83246" rx="2.29765" ry="2.29767" fill="#1570EF"/>
<ellipse opacity="0.3" cx="86.4839" cy="68.8093" rx="1.50926" ry="1.50927" fill="#1570EF"/>
<path opacity="0.3" d="M87.1188 3.64353L87.4384 4.76342L87.6709 5.57813L88.4928 5.37213L89.6224 5.08896L88.8123 5.92571L88.223 6.53441L88.8123 7.14312L89.6224 7.97986L88.4928 7.6967L87.6709 7.4907L87.4384 8.30541L87.1188 9.42529L86.7992 8.30541L86.5667 7.4907L85.7449 7.6967L84.6153 7.97986L85.4253 7.14312L86.0146 6.53441L85.4253 5.92571L84.6153 5.08896L85.7449 5.37213L86.5667 5.57813L86.7992 4.76342L87.1188 3.64353Z" fill="#003DB4" stroke="#1570EF" stroke-width="1.75027"/>
<path opacity="0.4" d="M18.5798 20.7333L19.9448 24.9344H24.362L20.7884 27.5308L22.1534 31.7318L18.5798 29.1354L15.0062 31.7318L16.3712 27.5308L12.7976 24.9344H17.2148L18.5798 20.7333Z" fill="#90E8F6"/>
<path d="M53.705 15.126C53.705 17.1917 53.0694 19.1302 52.0207 20.7192C50.2093 23.4523 47.0949 25.2637 43.5673 25.2637C40.0398 25.2637 36.9254 23.4523 35.114 20.7192C34.0653 19.1302 33.4297 17.1917 33.4297 15.126C33.4297 9.53277 37.9742 4.98828 43.5673 4.98828C49.1605 4.98828 53.705 9.53277 53.705 15.126Z" stroke="#1570EF" stroke-width="4.17" stroke-miterlimit="10" stroke-linecap="round" stroke-linejoin="round"/>
<path d="M65.4686 41.8606C69.1229 47.312 66.8201 54.6234 61.249 58.0926C56.3118 61.1671 50.1216 62.9862 43.5972 62.9862C36.7469 62.9862 29.7067 60.5794 24.5517 57.091C19.9901 54.004 18.2721 48.1611 20.8679 43.3032C21.9189 41.3363 23.309 39.4232 25.0062 37.9757C28.0252 35.4015 32.6332 34.7024 36.3197 36.6409C38.4489 37.7532 40.9277 38.3888 43.6289 38.3888C46.3302 38.3888 48.809 37.7532 50.9382 36.6409C54.6246 34.7024 59.4551 35.179 62.2517 37.9757C63.4327 39.1567 64.5298 40.4602 65.4686 41.8606Z" stroke="#1570EF" stroke-width="4.17" stroke-miterlimit="10" stroke-linecap="round" stroke-linejoin="round"/>
<path d="M63.0352 9.37329C66.5419 9.37329 69.3911 12.9348 69.3911 17.3182C69.3911 18.9371 68.9926 20.4563 68.3351 21.7016C67.1994 23.8435 65.2468 25.2631 63.0352 25.2631" stroke="#90E8F6" stroke-width="4.17" stroke-miterlimit="10" stroke-linecap="round" stroke-linejoin="round"/>
<path d="M73.7083 37.364C75.6596 35.5667 78.4907 35.5982 80.502 37.4698C82.0766 38.9394 83.4128 40.7868 84.3692 42.6969C85.7921 45.5386 85.4524 48.9494 83.6862 51.5916C81.323 55.1267 77.919 57.5413 73.4491 58.163" stroke="#90E8F6" stroke-width="4.17" stroke-miterlimit="10" stroke-linecap="round" stroke-linejoin="round"/>
<path opacity="0.2" fill-rule="evenodd" clip-rule="evenodd" d="M15.7183 70.3185C16.5196 70.3311 17.1425 69.6945 17.6892 69.1086C18.2113 68.549 18.6474 67.9021 18.6863 67.1377C18.7271 66.335 18.4796 65.5128 17.9005 64.9554C17.3303 64.4065 16.5098 64.276 15.7183 64.2809C14.9329 64.2858 14.1501 64.4606 13.563 64.9823C12.9409 65.5351 12.4534 66.307 12.5035 67.1377C12.5518 67.9378 13.2386 68.4839 13.8083 69.0476C14.3734 69.6068 14.9234 70.3061 15.7183 70.3185Z" fill="#004EA0"/>
</svg>
