<svg xmlns="http://www.w3.org/2000/svg" width="184" height="278" viewBox="0 0 184 278"><rect width="100%" height="100%" fill="#DDDDDD"/><path fill="#999999" d="M44.53 145.73h3.25v2.31h-10v-2.31h3.66v-10.54q0-.63.04-1.29l-2.6 2.18q-.22.17-.44.22-.22.04-.41 0-.2-.04-.35-.13-.15-.09-.22-.21l-.98-1.33 5.51-4.69h2.54v15.79Zm12.06.1q.77 0 1.34-.22.58-.22.97-.61t.59-.92q.2-.54.2-1.17 0-1.48-.82-2.25-.83-.76-2.28-.76-1.45 0-2.27.76-.83.77-.83 2.25 0 .63.2 1.17.2.53.6.92.39.39.97.61.57.22 1.33.22Zm0-13.74q-.68 0-1.18.21-.5.21-.83.57-.34.36-.49.82-.16.46-.16.97 0 .54.13 1.05.13.5.45.9.31.39.82.63t1.26.24q.75 0 1.27-.24.51-.24.82-.63.31-.4.45-.9.13-.51.13-1.05 0-.51-.17-.97-.16-.46-.48-.82-.33-.36-.83-.57-.5-.21-1.19-.21Zm3.05 6.52q1.65.54 2.44 1.65.79 1.1.79 2.7 0 1.2-.46 2.18-.45.97-1.28 1.66-.82.69-1.98 1.06-1.16.38-2.56.38-1.4 0-2.55-.38-1.16-.37-1.98-1.06-.83-.69-1.28-1.66-.46-.98-.46-2.18 0-1.6.79-2.7.78-1.11 2.43-1.65-1.31-.55-1.96-1.56-.66-1.01-.66-2.44 0-1.02.42-1.91.42-.89 1.17-1.54.75-.66 1.79-1.03t2.29-.37q1.25 0 2.3.37 1.04.37 1.79 1.03.75.65 1.17 1.54.42.89.42 1.91 0 1.43-.66 2.44-.65 1.01-1.97 1.56Zm7.6 2.62h5.5v-5.92q0-.83.12-1.85l-5.62 7.77Zm8.19 0h2.28v1.78q0 .25-.17.44-.16.18-.46.18h-1.65v4.41h-2.69v-4.41h-7.62q-.31 0-.55-.2-.24-.19-.3-.48l-.33-1.56 8.57-11.44h2.92v11.28Zm22.14 2.67-1.64 1.61-4.24-4.23-4.27 4.26-1.64-1.61 4.28-4.29-4.08-4.08 1.63-1.62 4.07 4.07 4.05-4.05 1.65 1.63-4.06 4.06 4.25 4.25Zm15.05 1.26h4.64q.5 0 .79.29.29.28.29.74v1.85h-12.4v-1.03q0-.31.14-.65.13-.34.41-.62l5.49-5.5q.69-.7 1.23-1.34.55-.64.91-1.26.36-.63.56-1.27.19-.64.19-1.36 0-.65-.19-1.14-.19-.49-.53-.83-.34-.34-.82-.51-.49-.17-1.09-.17-.55 0-1.01.16-.47.16-.84.44-.36.28-.61.65-.25.38-.37.83-.22.57-.55.76-.34.19-.98.09l-1.62-.29q.18-1.3.72-2.28.54-.98 1.35-1.64.8-.65 1.85-.98 1.04-.34 2.24-.34 1.25 0 2.29.37 1.03.37 1.77 1.05.74.67 1.15 1.62.42.95.42 2.11 0 1-.3 1.85-.29.85-.79 1.63-.49.77-1.15 1.5-.67.72-1.39 1.47l-4.08 4.17q.59-.18 1.17-.27.58-.1 1.11-.1Zm8.04-15.19h12.48v1.33q0 .6-.12.97-.13.37-.25.62l-6.85 14.1q-.21.44-.6.74-.39.31-1.04.31h-2.24l6.99-13.81q.24-.43.47-.78.23-.36.52-.69h-8.65q-.29 0-.5-.21-.21-.21-.21-.5v-2.08Zm20.58 15.86q.77 0 1.34-.22.58-.22.97-.61t.59-.92q.2-.54.2-1.17 0-1.48-.82-2.25-.83-.76-2.28-.76-1.44 0-2.27.76-.83.77-.83 2.25 0 .63.2 1.17.2.53.6.92.39.39.97.61.57.22 1.33.22Zm0-13.74q-.68 0-1.18.21-.5.21-.83.57-.34.36-.49.82-.16.46-.16.97 0 .54.13 1.05.13.5.45.9.31.39.82.63t1.26.24q.75 0 1.27-.24.51-.24.82-.63.31-.4.45-.9.13-.51.13-1.05 0-.51-.17-.97-.16-.46-.48-.82-.33-.36-.83-.57-.5-.21-1.19-.21Zm3.06 6.52q1.64.54 2.43 1.65.79 1.1.79 2.7 0 1.2-.46 2.18-.45.97-1.28 1.66-.82.69-1.98 1.06-1.16.38-2.56.38-1.4 0-2.55-.38-1.16-.37-1.98-1.06-.83-.69-1.28-1.66-.46-.98-.46-2.18 0-1.6.79-2.7.78-1.11 2.43-1.65-1.31-.55-1.96-1.56-.66-1.01-.66-2.44 0-1.02.42-1.91.42-.89 1.17-1.54.75-.66 1.79-1.03t2.29-.37q1.25 0 2.3.37 1.04.37 1.79 1.03.75.65 1.17 1.54.42.89.42 1.91 0 1.43-.66 2.44-.65 1.01-1.96 1.56Z"/></svg>