<svg xmlns="http://www.w3.org/2000/svg" width="206" height="276" viewBox="0 0 206 276"><rect width="100%" height="100%" fill="#DDDDDD"/><path fill="#999999" d="M47.83 144.905h5.19q.56 0 .89.31.33.32.33.84v2.07H40.35v-1.15q0-.35.15-.73.14-.39.47-.7l6.14-6.16q.77-.78 1.38-1.49.61-.72 1.02-1.42.4-.7.62-1.42.22-.72.22-1.52 0-.73-.21-1.28t-.6-.93q-.38-.38-.92-.57-.54-.19-1.21-.19-.62 0-1.15.18-.52.17-.93.49-.4.31-.68.73t-.42.93q-.24.64-.62.85-.38.21-1.09.1l-1.82-.32q.21-1.46.81-2.56.6-1.1 1.51-1.83.9-.74 2.07-1.11 1.17-.37 2.51-.37 1.4 0 2.56.42 1.17.41 1.99 1.16.83.76 1.29 1.82.46 1.07.46 2.37 0 1.12-.33 2.07-.33.95-.88 1.82-.55.87-1.29 1.68-.75.81-1.56 1.65l-4.56 4.67q.66-.2 1.31-.31.65-.1 1.24-.1Zm23.24-6.9q0 2.64-.57 4.6-.57 1.95-1.57 3.22-1 1.28-2.37 1.9-1.36.62-2.94.62-1.58 0-2.94-.62-1.35-.62-2.34-1.9-.99-1.27-1.55-3.22-.56-1.96-.56-4.6 0-2.66.56-4.61.56-1.94 1.55-3.22.99-1.27 2.34-1.89 1.36-.63 2.94-.63 1.58 0 2.94.63 1.37.62 2.37 1.89 1 1.28 1.57 3.22.57 1.95.57 4.61Zm-3.57 0q0-2.2-.33-3.64-.32-1.44-.86-2.3-.54-.85-1.24-1.19-.7-.35-1.45-.35-.74 0-1.44.35-.69.34-1.22 1.19-.53.86-.85 2.3-.31 1.44-.31 3.64t.31 3.64q.32 1.44.85 2.29.53.86 1.22 1.2.7.34 1.44.34.75 0 1.45-.34t1.24-1.2q.54-.85.86-2.29.33-1.44.33-3.64Zm17.58-10.12-6.01 7.35-.7.86q.59-.29 1.27-.45.68-.16 1.46-.16 1.15 0 2.24.38 1.08.37 1.91 1.14.82.76 1.33 1.89.5 1.14.5 2.65 0 1.41-.52 2.65-.51 1.24-1.45 2.17-.94.92-2.26 1.45-1.33.53-2.92.53-1.63 0-2.91-.51-1.29-.52-2.2-1.45-.91-.93-1.4-2.24-.48-1.31-.48-2.91 0-1.43.58-2.93.58-1.51 1.8-3.13l4.83-6.48q.25-.34.74-.58.48-.23 1.11-.23h3.08Zm-5.22 17.64q.82 0 1.52-.28.69-.28 1.19-.79.49-.5.77-1.18.28-.68.28-1.48 0-.87-.26-1.56-.27-.69-.76-1.17-.49-.49-1.17-.74-.69-.25-1.52-.25-.82 0-1.49.28-.68.28-1.15.77-.48.5-.74 1.18-.27.68-.27 1.46 0 .84.23 1.54.23.69.69 1.18.45.49 1.12.76.68.28 1.56.28Zm29.68-2.03-1.84 1.8-4.74-4.74-4.79 4.77-1.83-1.81 4.78-4.8-4.56-4.56 1.82-1.82 4.56 4.56 4.54-4.53 1.85 1.82-4.55 4.55 4.76 4.76Zm16.85 1.41h5.2q.56 0 .89.31.33.32.33.84v2.07h-13.89v-1.15q0-.35.14-.73.15-.39.47-.7l6.15-6.16q.77-.78 1.38-1.49.61-.72 1.01-1.42.41-.7.63-1.42.21-.72.21-1.52 0-.73-.21-1.28t-.59-.93q-.39-.38-.93-.57-.53-.19-1.21-.19-.61 0-1.14.18-.52.17-.93.49-.4.31-.68.73t-.42.93q-.24.64-.62.85-.38.21-1.09.1l-1.82-.32q.21-1.46.81-2.56.6-1.1 1.5-1.83.91-.74 2.08-1.11 1.17-.37 2.51-.37 1.4 0 2.56.42 1.16.41 1.99 1.16.83.76 1.29 1.82.46 1.07.46 2.37 0 1.12-.33 2.07-.33.95-.88 1.82-.55.87-1.3 1.68-.74.81-1.55 1.65l-4.56 4.67q.65-.2 1.3-.31.66-.1 1.24-.1Zm9.01-17.02h13.98v1.49q0 .68-.14 1.09-.14.41-.28.69l-7.67 15.79q-.24.49-.67.84-.44.34-1.16.34h-2.51l7.83-15.47q.26-.48.52-.87.26-.4.58-.77h-9.69q-.32 0-.56-.24-.23-.23-.23-.56v-2.33Zm28.25 0-6.01 7.35-.7.86q.59-.29 1.27-.45.68-.16 1.46-.16 1.15 0 2.23.38 1.09.37 1.92 1.14.82.76 1.33 1.89.5 1.14.5 2.65 0 1.41-.52 2.65t-1.45 2.17q-.94.92-2.27 1.45-1.32.53-2.91.53-1.63 0-2.92-.51-1.28-.52-2.19-1.45-.91-.93-1.4-2.24-.48-1.31-.48-2.91 0-1.43.58-2.93.58-1.51 1.8-3.13l4.83-6.48q.25-.34.73-.58.49-.23 1.12-.23h3.08Zm-5.22 17.64q.82 0 1.52-.28.69-.28 1.18-.79.5-.5.78-1.18.28-.68.28-1.48 0-.87-.26-1.56-.27-.69-.76-1.17-.49-.49-1.18-.74-.68-.25-1.51-.25-.82 0-1.5.28-.67.28-1.14.77-.48.5-.75 1.18-.26.68-.26 1.46 0 .84.23 1.54.23.69.68 1.18.46.49 1.13.76.67.28 1.56.28Z"/></svg>