<?xml version="1.0" standalone="no"?>
<!DOCTYPE svg PUBLIC "-//W3C//DTD SVG 1.1//EN" "http://www.w3.org/Graphics/SVG/1.1/DTD/svg11.dtd" >
<svg xmlns="http://www.w3.org/2000/svg">
<metadata>Generated by IcoMoon</metadata>
<defs>
<font id="icomoon" horiz-adv-x="1024">
<font-face units-per-em="1024" ascent="960" descent="-64" />
<missing-glyph horiz-adv-x="1024" />
<glyph unicode="&#x20;" horiz-adv-x="512" d="" />
<glyph unicode="&#xe900;" glyph-name="activity-rec-01" d="M0 699.449c0 143.91 116.662 260.572 260.571 260.572h502.859c143.906 0 260.57-116.662 260.57-260.571v-345.244c0-143.91-116.663-260.574-260.57-260.574h-502.859c-143.91 0-260.571 116.663-260.571 260.574v345.243zM260.571 896.021c-108.563 0-196.571-88.008-196.571-196.572v-345.243c0-108.565 88.008-196.574 196.571-196.574h502.859c108.561 0 196.57 88.009 196.57 196.574v345.244c0 108.563-88.009 196.571-196.57 196.571h-502.859zM430.276 627.519v-196.743c0-80.862 99.012-119.949 154.244-60.89l49.374 52.783c43.004 45.978 103.142 72.073 166.097 72.073 17.673 0 32 14.327 32 32 0 17.675-14.327 32.002-32 32.002-80.674 0-157.734-33.44-212.838-92.358l-49.374-52.783c-15.578-16.657-43.503-5.632-43.503 17.173v196.743c0 74.205-95.706 104.070-137.908 43.032l-32.307-46.727c-22.72-32.86-60.123-52.472-100.072-52.472-17.673 0-32-14.327-32-32 0-17.671 14.327-31.999 32-31.999 60.964 0 118.043 29.928 152.714 80.073l32.307 46.727c6.507 9.411 21.265 4.807 21.265-6.635zM80-32.004c0-17.673 14.327-32 32-32h800c17.673 0 32 14.327 32 32s-14.327 32-32 32h-800c-17.673 0-32-14.327-32-32z" />
<glyph unicode="&#xe901;" glyph-name="activity-rec-02" d="M0 699.491c0 143.91 116.662 260.572 260.571 260.572h502.859c143.906 0 260.57-116.662 260.57-260.572v-345.247c0-143.906-116.663-260.57-260.57-260.57h-502.859c-143.91 0-260.571 116.663-260.571 260.57v345.247zM260.571 896.062c-108.563 0-196.571-88.008-196.571-196.571v-345.247c0-108.561 88.008-196.57 196.571-196.57h502.859c108.561 0 196.57 88.009 196.57 196.57v345.247c0 108.564-88.009 196.571-196.57 196.571h-502.859zM430.285 627.561v-196.742c0-80.862 99.012-119.949 154.249-60.894l49.37 52.787c43.004 45.978 103.142 72.073 166.097 72.073 17.673 0 32 14.327 32 32s-14.327 32.001-32 32.001c-80.67 0-157.734-33.439-212.838-92.357l-49.37-52.783c-15.582-16.657-43.507-5.636-43.507 17.173v196.742c0 74.205-95.704 104.070-137.906 43.032l-32.307-46.727c-22.719-32.86-60.122-52.472-100.072-52.472-17.673 0-32-14.327-32-32s14.327-32.002 32-32.002c60.964 0 118.044 29.931 152.714 80.076l32.307 46.727c6.507 9.411 21.263 4.807 21.263-6.635zM308.573-31.962c0-17.673 14.327-32 32-32h342.857c17.673 0 32 14.327 32 32s-14.327 32-32 32h-342.857c-17.673 0-32-14.327-32-32z" />
<glyph unicode="&#xe902;" glyph-name="activity-rec-03" d="M0 646.095c0 143.91 116.662 260.571 260.571 260.571h502.859c143.906 0 260.57-116.662 260.57-260.571v-396.192c0-143.906-116.663-260.57-260.57-260.57h-502.859c-143.91 0-260.571 116.663-260.571 260.57v396.192zM260.571 842.667c-108.563 0-196.571-88.008-196.571-196.571v-396.192c0-108.561 88.008-196.57 196.571-196.57h502.859c108.561 0 196.57 88.009 196.57 196.57v396.192c0 108.563-88.009 196.571-196.57 196.571h-502.859zM430.285 548.393v-195.958c0-80.798 98.88-119.915 154.159-60.988l49.306 52.557c43.089 45.935 103.266 71.996 166.251 71.996 17.673 0 32 14.327 32 32s-14.327 32-32 32c-80.666 0-157.739-33.374-212.928-92.207l-49.306-52.561c-15.59-16.619-43.482-5.585-43.482 17.203v195.958c0 74.154-95.594 104.056-137.851 43.121l-32.244-46.498c-22.78-32.849-60.215-52.446-100.189-52.446-17.673 0-32-14.323-32-32 0-17.673 14.327-32 32-32 60.958 0 118.044 29.884 152.781 79.974l32.244 46.499c6.517 9.398 21.259 4.786 21.259-6.65z" />
<glyph unicode="&#xe903;" glyph-name="activity-rec-04" d="M430.49 628.918c-16.568 98.57-156.074 99.108-173.383 0.669l-6.951-39.532c-18.026-102.515-105.976-177.177-208.711-177.177h-9.444c-17.673 0-32 14.524-32 32.435s14.327 32.435 32 32.435h9.444c71.721 0 133.12 52.122 145.704 123.689l6.951 39.532c29.898 170.031 270.861 169.103 299.482-1.155l62.656-372.716c15.684-93.303 145.058-100.868 171.226-10.010l18.999 65.988c26.398 91.661 109.303 154.671 203.511 154.671h42.027c17.673 0 32-14.524 32-32.435s-14.327-32.435-32-32.435h-42.027c-65.766 0-123.644-43.985-142.071-107.977l-19.004-65.988c-45.193-156.937-268.659-143.872-295.753 17.289l-62.656 372.717z" />
<glyph unicode="&#xe904;" glyph-name="ai" d="M336.634 960c-17.673 0-32-14.327-32-32v-64.001h-48.63c-88.366 0-160-71.634-160-160v-48.64h-64.003c-17.673 0-32-14.327-32-32s14.327-32 32-32h64.003v-111.359h-64.003c-17.673 0-32-14.327-32-32s14.327-32 32-32h64.003v-111.36h-64.003c-17.673 0-32-14.327-32-32 0-17.677 14.327-32 32-32h64.003v-48.644c0-88.363 71.635-160 160-160h48.63v-63.996c0-17.673 14.327-32 32-32s32 14.327 32 32v63.996h111.362v-63.996c0-17.673 14.327-32 32-32s32 14.327 32 32v63.996h111.36v-63.996c0-17.673 14.327-32 32-32s32 14.327 32 32v63.996h48.649c88.367 0 160 71.637 160 160v48.644h64.004c17.677 0 32 14.327 32 32s-14.323 32-32 32h-64.004v111.36h64.004c17.677 0 32 14.327 32 32s-14.323 32-32 32h-64.004v111.36h64.004c17.677 0 32 14.327 32 32s-14.323 32-32 32h-64.004v48.638c0 88.366-71.633 160-160 160h-48.649v64.001c0 17.673-14.327 32-32 32s-32-14.327-32-32v-64.001h-111.36v64.001c0 17.673-14.327 32-32 32s-32-14.327-32-32v-64.001h-111.362v64.001c0 17.673-14.327 32-32 32zM337.059 95.996c-0.141 0.004-0.283 0.004-0.425 0.004s-0.284 0-0.425-0.004h-80.205c-53.020 0-96 42.982-96 96v512.003c0 53.019 42.981 96 96 96h512c53.022 0 96-42.981 96-96v-512.003c0-53.018-42.978-96-96-96h-80.226c-0.141 0.004-0.282 0.004-0.422 0.004-0.145 0-0.286 0-0.427-0.004h-174.511c-0.141 0.004-0.282 0.004-0.422 0.004-0.145 0-0.286 0-0.427-0.004h-174.51zM735.258 643.518c-17.673 0-32-14.327-32-32v-312.318c0-17.677 14.327-32 32-32s32 14.323 32 32v312.318c0 17.673-14.327 32-32 32zM441.050 638.401c12.365 0.010 23.625-7.101 28.932-18.267l152.96-321.92c7.582-15.962 0.789-35.051-15.172-42.637s-35.051-0.794-42.637 15.168l-36.932 77.734h-173.761l-36.757-77.687c-7.559-15.974-26.637-22.797-42.612-15.236-15.975 7.556-22.798 26.637-15.239 42.611l152.32 321.92c5.287 11.174 16.538 18.304 28.899 18.314zM384.721 412.48h113.071l-56.653 119.232-56.418-119.232z" />
<glyph unicode="&#xe905;" glyph-name="airplay-01" d="M0 694.783v-553.526c0-83.925 68.072-151.923 152-151.923 17.673 0 32 14.327 32 32s-14.327 32-32 32c-48.62 0-88 39.386-88 87.923v553.526c0 81.655 66.243 147.884 148 147.884h599.998c81.758 0 148.002-66.229 148.002-147.884v-553.526c0-48.538-39.381-87.923-88-87.923-17.673 0-32-14.327-32-32s14.327-32 32-32c83.93 0 152 67.998 152 151.923v553.526c0 117.040-94.933 211.884-212.002 211.884h-599.998c-117.065 0-212-94.844-212-211.884zM536.657 297.856c-10.569 19.618-38.746 19.618-49.314 0l-109.547-203.311c-10.021-18.598 3.439-41.212 24.657-41.212h219.094c21.218 0 34.679 22.613 24.657 41.212l-109.547 203.311zM431.002 328.213c34.739 64.474 127.258 64.474 161.997 0l109.547-203.311c33.028-61.299-11.413-135.569-80.998-135.569h-219.094c-69.583 0-114.027 74.27-80.999 135.569l109.548 203.311z" />
<glyph unicode="&#xe906;" glyph-name="airplay-02" d="M0 694.651v-373.311c0-83.947 68.052-152 152-152 17.673 0 32 14.327 32 32s-14.327 32-32 32c-48.601 0-88 39.398-88 88v373.311c0 81.738 66.262 148 148 148h599.998c81.741 0 148.002-66.262 148.002-148v-373.311c0-48.602-39.398-88-88-88-17.673 0-32-14.327-32-32s14.327-32 32-32c83.947 0 152 68.053 152 152v373.311c0 117.084-94.916 212-212.002 212h-599.998c-117.084 0-212-94.915-212-212zM535.023 321.877c-11.136 16.081-34.91 16.081-46.046 0l-155.484-224.593c-12.857-18.569 0.435-43.938 23.021-43.938h310.972c22.588 0 35.878 25.37 23.023 43.938l-155.486 224.593zM436.356 358.306c36.587 52.843 114.701 52.843 151.287 0l155.486-224.589c42.24-61.018-1.429-144.371-75.644-144.371h-310.972c-74.213 0-117.884 83.354-75.642 144.371l155.484 224.589z" />
<glyph unicode="&#xe907;" glyph-name="airplay-03" d="M545.647 310.558c-20.139 14.34-47.155 14.34-67.294 0l-274.895-195.755c-22.207-15.817-11.019-50.812 16.243-50.812h584.6c27.26 0 38.447 34.995 16.243 50.812l-274.897 195.755zM441.233 362.688c42.355 30.165 99.179 30.165 141.534 0l274.897-195.755c72.964-51.955 36.207-166.942-53.363-166.942h-584.6c-89.571 0-126.329 114.987-53.367 166.942l274.899 195.755zM512 653.385c-146.006 0-263.844-117.158-263.844-261.040 0-8.371 0.398-16.644 1.173-24.802 1.673-17.591-11.233-33.212-28.826-34.884s-33.213 11.234-34.886 28.826c-0.967 10.167-1.461 20.463-1.461 30.861 0 179.802 147.068 325.040 327.844 325.040 180.77 0 327.838-145.238 327.838-325.040 0-10.398-0.491-20.693-1.459-30.861-1.673-17.591-17.293-30.498-34.884-28.826-17.596 1.673-30.502 17.293-28.83 34.884 0.777 8.158 1.173 16.431 1.173 24.802 0 143.882-117.837 261.040-263.838 261.040zM512 832c-247.712 0-448-198.827-448-443.452 0-50.33 8.457-98.637 24.018-143.65 5.775-16.704-3.085-34.923-19.788-40.7-16.703-5.773-34.925 3.085-40.699 19.789-17.853 51.644-27.531 107.012-27.531 164.561 0 280.544 229.518 507.452 512 507.452s512-226.907 512-507.452c0-57.549-9.677-112.917-27.533-164.561-5.773-16.704-23.996-25.562-40.695-19.789-16.704 5.777-25.566 23.996-19.789 40.7 15.561 45.013 24.017 93.321 24.017 143.65 0 244.625-200.29 443.452-448 443.452z" />
<glyph unicode="&#xe908;" glyph-name="anchor" d="M223.031 959.755c17.536 2.192 33.53-10.247 35.722-27.784l26.496-211.969h385.501l-25.502 204.031c-2.193 17.537 10.244 33.53 27.785 35.722 17.536 2.192 33.527-10.247 35.721-27.784l26.496-211.969h196.753c17.673 0 32-14.327 32-32s-14.327-32-32-32h-188.753l51.998-416.002h196.753c17.673 0 32-14.323 32-32 0-17.673-14.327-32-32-32h-188.753l25.506-204.028c2.193-17.536-10.249-33.532-27.785-35.725-17.536-2.189-33.527 10.249-35.721 27.785l-26.496 211.968h-385.503l25.504-204.028c2.192-17.536-10.247-33.532-27.784-35.725-17.537-2.189-33.53 10.249-35.722 27.785l-26.496 211.968h-196.751c-17.673 0-32 14.327-32 32 0 17.677 14.327 32 32 32h188.751l-52 416.002h-196.751c-17.673 0-32 14.327-32 32s14.327 32 32 32h188.751l-25.504 204.031c-2.192 17.537 10.247 33.53 27.784 35.722zM293.249 656.002l52-416.002h385.503l-52.002 416.002h-385.501z" />
<glyph unicode="&#xe909;" glyph-name="anchor-1" d="M697.195 955.683c9.873-5.724 15.949-16.272 15.949-27.683v-250.353h193.523c17.673 0 32-14.327 32-32v-677.647c0-17.673-14.327-32-32-32h-789.333c-17.673 0-32 14.327-32 32v564.706c0 17.673 14.327 32 32 32h137.143v137.412c0 11.476 6.145 22.073 16.105 27.773l394.665 225.882c9.907 5.668 22.076 5.634 31.949-0.090zM318.476 564.706h80.762c17.673 0 31.998-14.327 31.998-32v-532.706h217.907v872.815l-330.667-189.253v-118.856zM713.143 0h161.523v613.647h-161.523v-613.647zM367.238 0v500.706h-217.905v-500.706h217.905zM556.983 677.647c-17.673 0-32-14.327-32-32v-56.471c0-17.673 14.327-32 32-32s32 14.327 32 32v56.471c0 17.673-14.327 32-32 32zM556.983 451.763c-17.673 0-32-14.327-32-32v-56.469c0-17.673 14.327-32 32-32s32 14.327 32 32v56.469c0 17.673-14.327 32-32 32zM258.286 423.531c-17.673 0-32-14.327-32-32v-56.474c0-17.673 14.327-32 32-32s32 14.327 32 32v56.474c0 17.673-14.327 32-32 32zM556.983 225.882c-17.673 0-32-14.327-32-32v-56.469c0-17.673 14.327-32 32-32s32 14.327 32 32v56.469c0 17.673-14.327 32-32 32zM258.286 197.649c-17.673 0-32-14.327-32-32v-56.474c0-17.673 14.327-32 32-32s32 14.327 32 32v56.474c0 17.673-14.327 32-32 32z" />
<glyph unicode="&#xe90a;" glyph-name="archive-01" d="M117.333 588.77c17.673 0 32-14.327 32-32v-428.748c0-70.694 57.308-128 128-128h469.333c70.694 0 128 57.306 128 128v428.748c0 17.673 14.327 32 32 32s32-14.327 32-32v-428.748c0-106.039-85.961-192-192-192h-469.333c-106.039 0-192 85.961-192 192v428.748c0 17.673 14.327 32 32 32zM0 847.979c0 61.856 50.144 112 112 112h800c61.854 0 112-50.144 112-112v-53.333c0-61.856-50.146-112-112-112h-800c-61.856 0-112 50.144-112 112v53.333zM112 895.979c-26.51 0-48-21.49-48-48v-53.333c0-26.51 21.49-48 48-48h800c26.509 0 48 21.49 48 48v53.333c0 26.51-21.491 48-48 48h-800zM373.333 402.573c0 17.673 14.327 32 32 32h213.333c17.673 0 32-14.327 32-32s-14.327-32-32-32h-213.333c-17.673 0-32 14.327-32 32z" />
<glyph unicode="&#xe90b;" glyph-name="archive-02" d="M332.26 600c-17.673 0-32-14.327-32-32s14.327-32 32-32h359.469c17.673 0 32 14.327 32 32s-14.327 32-32 32h-359.469zM117.876 874.502l-75.755-113.632c-25.978-25.202-42.122-60.484-42.122-99.537v-586.667c0-76.582 62.083-138.667 138.667-138.667h746.667c76.582 0 138.667 62.084 138.667 138.667v586.667c0 39.050-16.141 74.33-42.116 99.532l-75.759 113.638c-35.61 53.414-95.556 85.498-159.753 85.498h-468.742c-64.196 0-124.144-32.083-159.754-85.498zM138.667 736h746.667c41.237 0 74.667-33.429 74.667-74.667v-586.667c0-41.237-33.429-74.667-74.667-74.667h-746.667c-41.237 0-74.667 33.429-74.667 74.667v586.667c0 41.237 33.429 74.667 74.667 74.667zM852.873 839.002l26.001-39.002h-733.747l26.001 39.002c23.74 35.61 63.705 56.998 106.502 56.998h468.742c42.795 0 82.761-21.389 106.5-56.998z" />
<glyph unicode="&#xe90c;" glyph-name="arrow-01" horiz-adv-x="1067" d="M38.333 653.714c0 169.157 137.129 306.286 306.286 306.286h411.43c169.156 0 306.283-137.129 306.283-306.286v-411.427c0-169.156-137.126-306.287-306.283-306.287h-411.43c-169.157 0-306.286 137.131-306.286 306.287v411.427zM344.619 896c-133.811 0-242.286-108.475-242.286-242.286v-411.427c0-133.811 108.475-242.287 242.286-242.287h411.43c133.811 0 242.283 108.476 242.283 242.287v411.427c0 133.811-108.471 242.286-242.283 242.286h-411.43zM321.993 573.508c-12.497-12.497-12.497-32.758 0-45.257l205.713-205.713c12.497-12.497 32.759-12.497 45.257 0l205.713 205.713c12.497 12.498 12.497 32.76 0 45.257s-32.759 12.497-45.252 0l-183.087-183.087-183.089 183.087c-12.497 12.497-32.758 12.497-45.255 0z" />
<glyph unicode="&#xe90d;" glyph-name="arrow-02" horiz-adv-x="1067" d="M38.333 653.714c0 169.157 137.129 306.286 306.286 306.286h411.43c169.156 0 306.283-137.129 306.283-306.286v-411.427c0-169.156-137.126-306.287-306.283-306.287h-411.43c-169.157 0-306.286 137.131-306.286 306.287v411.427zM344.619 896c-133.811 0-242.286-108.475-242.286-242.286v-411.427c0-133.811 108.475-242.287 242.286-242.287h411.43c133.811 0 242.283 108.476 242.283 242.287v411.427c0 133.811-108.471 242.286-242.283 242.286h-411.43zM527.706 573.449l-205.715-205.713c-12.497-12.497-12.497-32.759 0-45.257s32.758-12.497 45.255 0l183.086 183.087 183.087-183.087c12.497-12.497 32.759-12.497 45.257 0s12.497 32.759 0 45.257l-205.713 205.713c-12.497 12.497-32.759 12.497-45.257 0z" />
<glyph unicode="&#xe90e;" glyph-name="arrow-02-1" horiz-adv-x="1067" d="M582.195 951.026c-12.719-12.273-13.077-32.531-0.806-45.248l121.391-125.79h-326.161c-146.656 0-263.619-122.865-263.619-272.008v-59.213c0-17.673 14.327-32 32-32s32 14.327 32 32v59.213c0 115.962 90.436 208.008 199.619 208.008h326.156l-121.387-125.782c-12.271-12.717-11.913-32.975 0.806-45.248 12.715-12.275 32.973-11.912 45.248 0.805l173.713 180.007c11.964 12.399 11.964 32.044 0 44.443l-173.713 180.007c-12.275 12.717-32.533 13.077-45.248 0.805zM955.665 480.252c-17.673 0-32-14.323-32-32v-60.284c0-115.964-90.436-208.009-199.616-208.009h-326.005l121.435 125.833c12.271 12.719 11.913 32.977-0.806 45.248-12.715 12.271-32.973 11.913-45.248-0.806l-173.712-180.006c-11.965-12.399-11.965-32.043 0-44.442l173.712-180.006c12.275-12.719 32.533-13.077 45.248-0.806 12.719 12.275 13.077 32.533 0.806 45.248l-121.341 125.739h325.911c146.654 0 263.616 122.863 263.616 272.009v60.284c0 17.677-14.323 32-32 32z" />
<glyph unicode="&#xe90f;" glyph-name="arrow-03" horiz-adv-x="1067" d="M48.447 727.345c12.893 12.087 33.144 11.434 45.231-1.459l456.653-487.098 456.657 487.098c12.087 12.893 32.337 13.547 45.231 1.459s13.547-32.338 1.459-45.231l-480-512.002c-6.050-6.451-14.502-10.112-23.347-10.112s-17.293 3.661-23.343 10.112l-480 512.002c-12.088 12.893-11.434 33.144 1.459 45.231z" />
<glyph unicode="&#xe910;" glyph-name="arrow-04" horiz-adv-x="1067" d="M550.332 736c8.845 0 17.297-3.661 23.347-10.114l480-511.998c12.087-12.894 11.435-33.148-1.459-45.235s-33.143-11.43-45.231 1.459l-456.657 487.1-456.653-487.1c-12.087-12.89-32.338-13.547-45.231-1.459s-13.546 32.341-1.459 45.235l480 511.998c6.050 6.452 14.498 10.114 23.343 10.114z" />
<glyph unicode="&#xe911;" glyph-name="arrow-05" horiz-adv-x="1067" d="M829.679 949.886c12.087-12.893 11.435-33.144-1.459-45.231l-487.099-456.655 487.099-456.653c12.894-12.087 13.547-32.341 1.459-45.235-12.087-12.89-32.337-13.547-45.231-1.459l-512.001 480c-6.453 6.050-10.114 14.502-10.114 23.347s3.661 17.297 10.114 23.343l512.001 480.002c12.894 12.087 33.143 11.434 45.231-1.459z" />
<glyph unicode="&#xe912;" glyph-name="arrow-06" d="M403.971 811.705c-12.355 12.636-32.615 12.864-45.252 0.508l-349.091-341.331c-6.157-6.025-9.628-14.272-9.628-22.882s3.471-16.858 9.628-22.882l349.091-341.333c12.637-12.352 32.896-12.126 45.252 0.512 12.356 12.634 12.128 32.896-0.508 45.252l-325.691 318.451 325.691 318.453c12.636 12.356 12.864 32.616 0.508 45.252zM620.028 811.705c-12.356-12.637-12.126-32.896 0.508-45.252l325.692-318.453-325.692-318.451c-12.634-12.356-12.864-32.619-0.508-45.252 12.356-12.638 32.619-12.864 45.252-0.512l349.090 341.333c6.161 6.025 9.63 14.272 9.63 22.882s-3.469 16.858-9.63 22.882l-349.090 341.331c-12.634 12.356-32.896 12.128-45.252-0.508z" />
<glyph unicode="&#xe913;" glyph-name="arrow-06-1" horiz-adv-x="1067" d="M270.988 949.886c-12.087-12.893-11.434-33.144 1.459-45.231l487.101-456.655-487.101-456.653c-12.893-12.087-13.546-32.341-1.459-45.235 12.087-12.89 32.338-13.547 45.231-1.459l512 480c6.451 6.050 10.112 14.502 10.112 23.347s-3.661 17.297-10.112 23.343l-512 480.002c-12.893 12.087-33.144 11.434-45.231-1.459z" />
<glyph unicode="&#xe914;" glyph-name="arrow-bottom-circle" horiz-adv-x="1067" d="M165.205 358.801c-12.588-12.407-12.736-32.666-0.33-45.257l361.389-366.703c5.862-6.647 14.447-10.842 24.009-10.842 2.714 0 5.35 0.337 7.868 0.973 5.641 1.421 10.837 4.361 14.985 8.572l362.667 368c12.407 12.591 12.258 32.849-0.329 45.257-12.587 12.403-32.849 12.258-45.252-0.333l-307.938-312.465v881.997c0 17.673-14.327 32-32 32s-32-14.327-32-32v-881.869l-307.813 312.337c-12.405 12.591-32.666 12.736-45.254 0.333z" />
<glyph unicode="&#xe915;" glyph-name="arrow-bottom-circle-1" horiz-adv-x="1067" d="M550.332 960c-282.768 0-511.998-229.23-511.998-512s229.23-512 511.998-512c282.773 0 512 229.231 512 512s-229.227 512-512 512zM102.333 448c0 247.424 200.576 448 447.998 448 247.424 0 448-200.576 448-448s-200.576-448-448-448c-247.422 0-447.998 200.576-447.998 448zM352.444 417.293c12.497 12.497 32.758 12.497 45.255 0l120.603-120.602-0.034 379.877c0 17.673 14.323 32.002 31.996 32.003s32.004-14.324 32.004-31.997l0.034-379.896 120.619 120.614c12.497 12.497 32.759 12.497 45.257 0 12.493-12.497 12.493-32.755 0-45.252l-175.241-175.241c-5.999-5.999-14.14-9.37-22.626-9.37s-16.627 3.371-22.626 9.37l-175.24 175.241c-12.497 12.497-12.497 32.755 0 45.252z" />
<glyph unicode="&#xe916;" glyph-name="arrow-bottom-circle-2" horiz-adv-x="1067" d="M390.333 960c-194.404 0-352-157.596-352-352v-320c0-194.402 157.596-352 352-352h319.998c194.406 0 352 157.598 352 352v320c0 194.404-157.594 352-352 352h-319.998zM102.333 608c0 159.058 128.942 288 288 288h319.998c159.061 0 288-128.942 288-288v-320c0-159.057-128.939-288-288-288h-319.998c-159.058 0-288 128.943-288 288v320zM352.492 417.293c12.497 12.497 32.758 12.497 45.255 0l120.624-120.623 0.060 379.907c0.004 17.673 14.332 31.997 32.009 31.994 17.673-0.003 31.996-14.332 31.991-32.005l-0.060-379.871 120.597 120.597c12.497 12.497 32.759 12.497 45.257 0s12.497-32.755 0-45.252l-175.241-175.241c-5.999-5.999-14.14-9.37-22.626-9.37s-16.627 3.371-22.626 9.37l-175.24 175.241c-12.497 12.497-12.497 32.755 0 45.252z" />
<glyph unicode="&#xe917;" glyph-name="arrow-bottom-left" horiz-adv-x="1067" d="M1052.975 950.627c-12.493 12.497-32.755 12.497-45.252 0l-900.637-900.622-4.753 660.748c-0.127 17.673-14.557 31.896-32.23 31.769s-31.896-14.557-31.769-32.23l5.304-737.22c0.126-17.493 14.276-31.642 31.769-31.77l737.218-5.303c17.673-0.128 32.102 14.097 32.23 31.77s-14.097 32.102-31.77 32.23l-660.744 4.753 900.633 900.619c12.497 12.497 12.497 32.758 0 45.255z" />
<glyph unicode="&#xe918;" glyph-name="arrow-bottom-right" horiz-adv-x="1067" d="M47.706 950.669c12.497 12.497 32.758 12.497 45.255 0l900.635-900.621 4.753 660.748c0.128 17.673 14.558 31.896 32.23 31.769s31.898-14.557 31.77-32.229l-5.303-737.219c-0.128-17.493-14.276-31.642-31.77-31.77l-737.22-5.303c-17.673-0.128-32.102 14.097-32.23 31.77s14.096 32.102 31.769 32.23l660.744 4.753-900.633 900.618c-12.497 12.497-12.497 32.758 0 45.255z" />
<glyph unicode="&#xe919;" glyph-name="arrow-compare-01" d="M312.876 800.852c-12.253-12.736-11.861-32.994 0.876-45.246l118.82-114.307-400.574-0.026c-17.673-0.001-31.999-14.329-31.998-32.002s14.329-31.999 32.002-31.998l400.557 0.026-118.807-114.297c-12.736-12.254-13.128-32.508-0.876-45.244 12.253-12.74 32.51-13.129 45.246-0.879l176.047 169.364c6.272 6.033 9.813 14.359 9.813 23.061s-3.541 17.028-9.813 23.061l-176.047 169.363c-12.736 12.253-32.994 11.86-45.246-0.876zM711.125 478.242c-12.254 12.74-32.512 13.129-45.248 0.879l-176.047-169.365c-6.272-6.033-9.813-14.357-9.813-23.061 0-8.7 3.541-17.028 9.813-23.061l176.047-169.361c12.736-12.254 32.994-11.861 45.248 0.875 12.25 12.736 11.857 32.994-0.879 45.248l-118.805 114.295 400.559-0.026c17.673 0 32 14.323 32 32 0 17.673-14.323 32-32 32l-400.572 0.026 118.818 114.308c12.736 12.254 13.129 32.508 0.879 45.244z" />
<glyph unicode="&#xe91a;" glyph-name="arrow-compare-01-1" horiz-adv-x="1067" d="M351.564 811.881c-12.453-12.541-12.381-32.802 0.16-45.255l120.96-120.108-402.351-0.027c-17.673-0.001-31.999-14.329-31.998-32.002s14.329-31.999 32.002-31.998l402.334 0.027-120.947-120.096c-12.541-12.454-12.612-32.717-0.16-45.257s32.714-12.612 45.254-0.158l176.046 174.809c6.050 6.007 9.455 14.181 9.455 22.707s-3.405 16.7-9.455 22.707l-176.046 174.81c-12.541 12.453-32.802 12.381-45.254-0.16zM749.103 478.818c-12.454 12.54-32.713 12.612-45.252 0.158l-176.051-174.81c-6.050-6.007-9.451-14.182-9.451-22.707s3.401-16.7 9.451-22.707l176.051-174.81c12.54-12.454 32.798-12.382 45.252 0.158 12.454 12.544 12.382 32.802-0.158 45.257l-120.951 120.098 402.338-0.030c17.673 0 32 14.327 32 32 0.004 17.673-14.323 32-31.996 32l-402.351 0.030 120.96 120.107c12.54 12.454 12.612 32.717 0.158 45.257z" />
<glyph unicode="&#xe91b;" glyph-name="arrow-compare" d="M267.427 867.721c-13.837 10.994-33.967 8.69-44.961-5.147l-215.52-271.245c-7.64-9.616-9.103-22.756-3.764-33.817s16.537-18.090 28.819-18.090h890.44c17.673 0 32 14.327 32 32s-14.327 32-32 32h-824.143l174.277 219.338c10.994 13.837 8.69 33.967-5.147 44.961zM69.548 325.086c0-17.673 14.327-32 32-32h824.114l-174.805-219.836c-11.004-13.833-8.704-33.963 5.129-44.962s33.963-8.704 44.962 5.129l216.090 271.753c7.646 9.617 9.114 22.758 3.776 33.822-5.342 11.063-16.538 18.095-28.821 18.095h-890.443c-17.673 0-32-14.327-32-32z" />
<glyph unicode="&#xe91c;" glyph-name="arrow-compare-1" horiz-adv-x="1067" d="M530.658 950.626c-12.497 12.497-32.755 12.498-45.252 0.002l-373.698-373.665c-9.152-9.152-11.891-22.916-6.938-34.874 4.953-11.956 16.622-19.756 29.565-19.756h757.147c17.673 0 32 14.327 32 32s-14.327 32-32 32h-679.888l319.065 319.037c12.497 12.496 12.497 32.757 0 45.255zM177.066 341.666c0-17.673 14.327-32 32-32h679.885l-319.061-319.036c-12.497-12.497-12.497-32.759 0-45.257 12.493-12.497 32.755-12.497 45.252 0l373.696 373.662c9.152 9.152 11.891 22.916 6.938 34.876-4.954 11.955-16.619 19.755-29.564 19.755h-757.146c-17.673 0-32-14.327-32-32z" />
<glyph unicode="&#xe91d;" glyph-name="arrow-corner-ccw-lb" horiz-adv-x="1067" d="M1062.332 928c0 17.673-14.323 32-32 32h-376.213c-160.563 0-291.461-128.541-291.461-288.004v-627.469l-269.849 266.257c-12.58 12.412-32.841 12.275-45.254-0.303-12.413-12.582-12.277-32.841 0.303-45.252l324.325-320.009c12.461-12.292 32.489-12.292 44.95 0l324.324 320.009c12.582 12.412 12.715 32.67 0.303 45.252-12.412 12.578-32.674 12.715-45.252 0.303l-269.85-266.257v627.469c0 123.311 101.432 224.004 227.461 224.004h376.213c17.677 0 32 14.327 32 32z" />
<glyph unicode="&#xe91e;" glyph-name="arrow-corner-ccw-lt" horiz-adv-x="1067" d="M1062.332-32c0-17.673-14.323-32-32-32h-376.213c-160.563 0-291.461 128.542-291.461 288.004v627.468l-269.849-266.256c-12.58-12.413-32.841-12.277-45.254 0.303s-12.277 32.841 0.303 45.254l324.325 320.006c12.461 12.295 32.489 12.295 44.95 0l324.324-320.006c12.582-12.413 12.715-32.673 0.303-45.254s-32.674-12.716-45.252-0.303l-269.85 266.256v-627.468c0-123.311 101.432-224.004 227.461-224.004h376.213c17.677 0 32-14.327 32-32z" />
<glyph unicode="&#xe91f;" glyph-name="arrow-corner-ccw-rb" horiz-adv-x="1067" d="M70.333 960c-17.673 0-32-14.327-32-32v-376.216c0-160.564 128.541-291.457 288.004-291.457h627.467l-266.257-269.85c-12.412-12.582-12.275-32.845 0.303-45.257 12.582-12.412 32.845-12.275 45.257 0.303l320.004 324.326c12.297 12.459 12.297 32.491 0 44.949l-320.004 324.325c-12.412 12.58-32.674 12.716-45.257 0.303-12.578-12.413-12.715-32.673-0.303-45.254l266.257-269.851-627.467 0.004c-123.311 0-224.004 101.427-224.004 227.457v376.216c0 17.673-14.327 32-32 32z" />
<glyph unicode="&#xe920;" glyph-name="arrow-corner-ccw-rb-1" horiz-adv-x="1067" d="M1030.332 960c17.673 0 32-14.327 32-32v-376.216c0-160.564-128.538-291.457-288.004-291.457h-627.466l266.256-269.85c12.413-12.582 12.277-32.845-0.303-45.257s-32.841-12.275-45.254 0.303l-320.006 324.326c-12.295 12.459-12.295 32.491 0 44.949l320.006 324.325c12.413 12.58 32.674 12.716 45.254 0.303s12.716-32.673 0.303-45.254l-266.256-269.851 627.466 0.004c123.311 0 224.004 101.427 224.004 227.457v376.216c0 17.673 14.327 32 32 32z" />
<glyph unicode="&#xe921;" glyph-name="arrow-corner-ccw-rt" horiz-adv-x="1067" d="M38.333-32c0-17.673 14.327-32 32-32h376.216c160.563 0 291.46 128.542 291.46 288.004v627.468l269.85-266.256c12.578-12.413 32.841-12.277 45.252 0.303s12.279 32.841-0.303 45.254l-324.322 320.006c-12.463 12.295-32.491 12.295-44.954 0l-324.323-320.006c-12.58-12.413-12.716-32.673-0.303-45.254s32.674-12.716 45.254-0.303l269.85 266.256v-627.468c0-123.311-101.431-224.004-227.46-224.004h-376.216c-17.673 0-32-14.327-32-32z" />
<glyph unicode="&#xe922;" glyph-name="arrow-corner-cw-lt" horiz-adv-x="1067" d="M1030.332-64c17.673 0 32 14.327 32 32v376.218c0 160.563-128.538 291.458-288.004 291.458h-627.466l266.256 269.849c12.413 12.58 12.277 32.841-0.303 45.254s-32.841 12.277-45.254-0.303l-320.006-324.324c-12.295-12.461-12.295-32.489 0-44.95l320.006-324.326c12.413-12.578 32.674-12.715 45.254-0.303s12.716 32.674 0.303 45.257l-266.256 269.847h627.466c123.311 0 224.004-101.434 224.004-227.458v-376.218c0-17.673 14.327-32 32-32z" />
<glyph unicode="&#xe923;" glyph-name="arrow-corner-cw-rb" horiz-adv-x="1067" d="M38.333 928.010c0 17.673 14.327 32 32 32h376.216c160.563 0 291.46-128.541 291.46-288.004v-627.466l269.85 266.253c12.578 12.416 32.841 12.279 45.252-0.303 12.412-12.578 12.279-32.841-0.303-45.252l-324.326-320.004c-12.459-12.297-32.486-12.297-44.949 0l-324.323 320.004c-12.58 12.412-12.716 32.674-0.303 45.252 12.413 12.582 32.674 12.719 45.254 0.303l269.85-266.253v627.466c0 123.311-101.431 224.004-227.46 224.004h-376.216c-17.673 0-32 14.327-32 32z" />
<glyph unicode="&#xe924;" glyph-name="arrow-corner-cw-rt" horiz-adv-x="1067" d="M70.333-64c-17.673 0-32 14.327-32 32v376.218c0 160.563 128.541 291.458 288.004 291.458h627.467l-266.257 269.849c-12.412 12.58-12.275 32.841 0.303 45.254 12.582 12.413 32.845 12.277 45.257-0.303l320.004-324.324c12.297-12.461 12.297-32.489 0-44.95l-320.004-324.326c-12.412-12.578-32.674-12.715-45.257-0.303-12.578 12.412-12.715 32.674-0.303 45.257l266.257 269.847h-627.467c-123.311 0-224.004-101.434-224.004-227.458v-376.218c0-17.673-14.327-32-32-32z" />
<glyph unicode="&#xe925;" glyph-name="arrow-down" horiz-adv-x="1067" d="M550.327 960c17.677 0 32-14.327 32-32l-0.004-883.524 318.857 314.304c12.587 12.403 32.845 12.258 45.252-0.329s12.262-32.845-0.324-45.252l-373.321-367.987c-12.459-12.284-32.474-12.284-44.928 0l-373.323 367.987c-12.587 12.407-12.732 32.666-0.326 45.252s32.667 12.732 45.254 0.329l318.859-314.304 0.004 883.525c0 17.673 14.327 32 32 32z" />
<glyph unicode="&#xe926;" glyph-name="arrow-left" horiz-adv-x="1067" d="M1062.332 447.983c0-17.673-14.327-32-32-32l-883.522 0.009 314.302-318.857c12.407-12.587 12.262-32.849-0.324-45.257-12.587-12.403-32.849-12.258-45.255 0.329l-367.988 373.321c-12.281 12.459-12.281 32.469 0 44.928l367.988 373.321c12.406 12.587 32.669 12.732 45.255 0.326s12.732-32.667 0.324-45.254l-314.303-318.857 883.523-0.009c17.677 0 32-14.327 32-32z" />
<glyph unicode="&#xe927;" glyph-name="arrow-left-1" horiz-adv-x="1067" d="M1052.962-54.665c12.497 12.497 12.497 32.759 0 45.257l-900.622 900.634 660.746 4.753c17.673 0.127 31.898 14.557 31.77 32.229s-14.558 31.896-32.23 31.769l-737.218-5.304c-17.493-0.126-31.643-14.276-31.769-31.769l-5.304-737.22c-0.127-17.673 14.096-32.102 31.769-32.23 17.673-0.124 32.102 14.097 32.23 31.77l4.753 660.746 900.62-900.635c12.497-12.497 32.759-12.497 45.257 0z" />
<glyph unicode="&#xe928;" glyph-name="arrow-left-circle" horiz-adv-x="1067" d="M639.535 833.128c12.403 12.588 32.666 12.736 45.252 0.331l366.703-361.391c6.647-5.862 10.842-14.443 10.842-24.009 0-2.714-0.337-5.35-0.973-7.868-1.421-5.636-4.361-10.833-8.572-14.985l-368-362.667c-12.587-12.403-32.849-12.258-45.252 0.333-12.407 12.587-12.258 32.845 0.329 45.252l312.465 307.934h-881.995c-17.673 0-32 14.327-32 32 0 17.677 14.327 32 32 32h881.871l-312.341 307.815c-12.587 12.405-12.736 32.666-0.329 45.254z" />
<glyph unicode="&#xe929;" glyph-name="arrow-left-circle-1" horiz-adv-x="1067" d="M38.333 448c0 282.77 229.23 512 511.998 512 282.773 0 512-229.23 512-512s-229.227-512-512-512c-282.768 0-511.998 229.231-511.998 512zM550.332 896c-247.422 0-447.998-200.576-447.998-448s200.576-448 447.998-448c247.424 0 448 200.576 448 448s-200.576 448-448 448zM581.039 645.889c-12.497-12.497-12.497-32.758 0-45.255l120.606-120.605-379.88 0.034c-17.673 0.004-32.001-14.323-32.003-31.996s14.324-32 31.997-32.004l379.898-0.034-120.619-120.619c-12.497-12.493-12.497-32.755 0-45.252s32.759-12.497 45.257 0l175.236 175.236c6.003 6.003 9.374 14.14 9.374 22.63 0 8.486-3.371 16.623-9.374 22.626l-175.236 175.238c-12.497 12.497-32.759 12.497-45.257 0z" />
<glyph unicode="&#xe92a;" glyph-name="arrow-left-circle-2" horiz-adv-x="1067" d="M38.333 608c0 194.404 157.596 352 352 352h319.998c194.406 0 352-157.596 352-352v-320c0-194.402-157.594-352-352-352h-319.998c-194.404 0-352 157.598-352 352v320zM390.333 896c-159.058 0-288-128.942-288-288v-320c0-159.057 128.942-288 288-288h319.998c159.061 0 288 128.943 288 288v320c0 159.058-128.939 288-288 288h-319.998zM581.039 645.841c-12.497-12.497-12.497-32.758 0-45.255l120.623-120.625-379.905-0.060c-17.673-0.004-31.997-14.332-31.994-32.004s14.332-32 32.005-31.996l379.869 0.060-120.597-120.597c-12.497-12.497-12.497-32.755 0-45.252s32.759-12.497 45.257 0l175.236 175.236c6.003 6.003 9.374 14.14 9.374 22.626 0 8.491-3.371 16.627-9.374 22.63l-175.236 175.237c-12.497 12.497-32.759 12.497-45.257 0z" />
<glyph unicode="&#xe92b;" glyph-name="arrow-left-curved-circle" horiz-adv-x="1067" d="M421.711 949.854c-12.070 12.91-32.32 13.59-45.229 1.52l-328.002-306.67c-9.597-8.973-12.735-22.901-7.911-35.122s16.627-20.253 29.766-20.253h633.328c162.743 0 294.673-131.927 294.673-294.67s-131.93-294.669-294.673-294.669h-172.463c-17.673 0-32-14.327-32-32s14.327-32 32-32h172.463c198.089 0 358.673 160.58 358.673 358.669s-160.585 358.67-358.673 358.67h-552.247l268.775 251.295c12.91 12.070 13.588 32.32 1.52 45.229z" />
<glyph unicode="&#xe92c;" glyph-name="arrow-left-curved-circle-1" horiz-adv-x="1067" d="M1062.332 448c0 282.77-229.227 512-512 512-282.768 0-511.998-229.23-511.998-512s229.23-512 511.998-512c282.773 0 512 229.231 512 512zM550.332 896c247.424 0 448-200.576 448-448s-200.576-448-448-448c-247.422 0-447.998 200.576-447.998 448s200.576 448 447.998 448zM506.155 683.188c12.070-12.91 11.392-33.16-1.519-45.23l-86.551-80.921h200.398c97.856 0 177.182-79.328 177.182-177.184s-79.326-177.186-177.182-177.186h-76.651c-17.673 0-32 14.327-32 32s14.327 32 32 32h76.651c62.507 0 113.182 50.675 113.182 113.186s-50.675 113.186-113.182 113.186h-281.479c-13.138 0-24.942 8.030-29.766 20.25-4.823 12.224-1.686 26.15 7.911 35.123l145.778 136.297c12.907 12.070 33.156 11.389 45.227-1.52z" />
<glyph unicode="&#xe92d;" glyph-name="arrow-left-curved-circle-2" horiz-adv-x="1067" d="M1062.332 608c0 194.404-157.594 352-352 352h-319.998c-194.404 0-352-157.596-352-352v-320c0-194.402 157.596-352 352-352h319.998c194.406 0 352 157.598 352 352v320zM710.332 896c159.061 0 288-128.942 288-288v-320c0-159.057-128.939-288-288-288h-319.998c-159.058 0-288 128.943-288 288v320c0 159.058 128.942 288 288 288h319.998zM506.044 683.206c12.079-12.902 11.409-33.152-1.493-45.231l-86.449-80.936h200.279c97.86 0 177.186-79.327 177.186-177.187 0-97.856-79.326-177.182-177.186-177.182h-76.646c-17.673 0-32 14.327-32 32s14.327 32 32 32h76.646c62.511 0 113.186 50.675 113.186 113.182 0 62.511-50.675 113.186-113.186 113.186h-281.282c-13.135 0-24.936 8.026-29.762 20.245-4.826 12.215-1.696 26.139 7.892 35.116l145.584 136.296c12.902 12.079 33.152 11.412 45.231-1.49z" />
<glyph unicode="&#xe92e;" glyph-name="arrow-right" horiz-adv-x="1067" d="M38.333 448c0 17.673 14.327 32 32 32l883.523-0.009-314.3 318.857c-12.407 12.586-12.262 32.847 0.324 45.254s32.849 12.261 45.252-0.326l367.991-373.321c12.279-12.459 12.279-32.469 0-44.928l-367.991-373.321c-12.403-12.587-32.666-12.732-45.252-0.329-12.587 12.407-12.732 32.67-0.324 45.257l314.304 318.857-883.527 0.009c-17.673 0-32 14.327-32 32z" />
<glyph unicode="&#xe92f;" glyph-name="arrow-right-circle" horiz-adv-x="1067" d="M461.133 833.128c-12.403 12.588-32.666 12.736-45.253 0.331l-366.703-361.391c-6.649-5.862-10.843-14.443-10.843-24.009 0-2.714 0.338-5.35 0.975-7.868 1.419-5.636 4.36-10.833 8.572-14.985l368-362.667c12.588-12.403 32.85-12.258 45.253 0.333 12.407 12.587 12.258 32.845-0.329 45.252l-312.466 307.934h881.994c17.677 0 32 14.327 32 32 0 17.677-14.323 32-32 32h-881.869l312.341 307.815c12.587 12.405 12.736 32.666 0.329 45.254z" />
<glyph unicode="&#xe930;" glyph-name="arrow-right-circle-1" horiz-adv-x="1067" d="M1062.332 448c0 282.77-229.227 512-512 512-282.768 0-511.998-229.23-511.998-512s229.23-512 511.998-512c282.773 0 512 229.231 512 512zM550.332 896c247.424 0 448-200.576 448-448s-200.576-448-448-448c-247.422 0-447.998 200.576-447.998 448s200.576 448 447.998 448zM519.629 645.889c12.497-12.497 12.497-32.758 0-45.255l-120.605-120.605 379.878 0.034c17.673 0.004 32-14.323 32.004-31.996 0-17.673-14.323-32-32-32.004l-379.896-0.034 120.619-120.619c12.497-12.493 12.497-32.755 0-45.252s-32.759-12.497-45.257 0l-175.238 175.236c-6.001 6.003-9.373 14.14-9.373 22.63 0 8.486 3.372 16.623 9.373 22.626l175.238 175.238c12.497 12.497 32.759 12.497 45.257 0z" />
<glyph unicode="&#xe931;" glyph-name="arrow-right-circle-2" horiz-adv-x="1067" d="M1062.332 608c0 194.404-157.594 352-352 352h-319.998c-194.404 0-352-157.596-352-352v-320c0-194.402 157.596-352 352-352h319.998c194.406 0 352 157.598 352 352v320zM710.332 896c159.061 0 288-128.942 288-288v-320c0-159.057-128.939-288-288-288h-319.998c-159.058 0-288 128.943-288 288v320c0 159.058 128.942 288 288 288h319.998zM519.629 645.841c12.497-12.497 12.497-32.758 0-45.255l-120.625-120.625 379.906-0.060c17.673-0.004 31.996-14.332 31.996-32.004-0.004-17.673-14.332-32-32.004-31.996l-379.872 0.060 120.599-120.597c12.497-12.497 12.497-32.755 0-45.252s-32.759-12.497-45.257 0l-175.238 175.236c-6.001 6.003-9.373 14.14-9.373 22.626 0 8.491 3.372 16.627 9.373 22.63l175.238 175.237c12.497 12.497 32.759 12.497 45.257 0z" />
<glyph unicode="&#xe932;" glyph-name="arrow-right-curved-circle" horiz-adv-x="1067" d="M678.959 949.854c12.066 12.91 32.316 13.59 45.227 1.52l328.004-306.67c9.596-8.973 12.732-22.901 7.91-35.122-4.826-12.221-16.627-20.253-29.769-20.253h-633.329c-162.742 0-294.67-131.927-294.67-294.67s131.928-294.669 294.67-294.669h172.465c17.673 0 32-14.327 32-32s-14.327-32-32-32h-172.465c-198.088 0-358.67 160.58-358.67 358.669s160.582 358.67 358.67 358.67h552.249l-268.774 251.295c-12.911 12.070-13.589 32.32-1.519 45.229z" />
<glyph unicode="&#xe933;" glyph-name="arrow-right-curved-circle-1" horiz-adv-x="1067" d="M38.333 448c0 282.77 229.23 512 511.998 512 282.773 0 512-229.23 512-512s-229.227-512-512-512c-282.768 0-511.998 229.231-511.998 512zM550.332 896c-247.422 0-447.998-200.576-447.998-448s200.576-448 447.998-448c247.424 0 448 200.576 448 448s-200.576 448-448 448zM594.509 683.188c-12.066-12.91-11.388-33.16 1.523-45.23l86.549-80.921h-200.397c-97.856 0-177.184-79.328-177.184-177.184s79.328-177.186 177.184-177.186h76.651c17.673 0 32 14.327 32 32s-14.327 32-32 32h-76.651c-62.51 0-113.184 50.675-113.184 113.186s50.675 113.186 113.184 113.186h281.476c13.141 0 24.943 8.030 29.769 20.25 4.821 12.224 1.685 26.15-7.91 35.123l-145.779 136.297c-12.911 12.070-33.161 11.389-45.231-1.52z" />
<glyph unicode="&#xe934;" glyph-name="arrow-right-curved-circle-2" horiz-adv-x="1067" d="M38.333 608c0 194.404 157.596 352 352 352h319.998c194.406 0 352-157.596 352-352v-320c0-194.402-157.594-352-352-352h-319.998c-194.404 0-352 157.598-352 352v320zM390.333 896c-159.058 0-288-128.942-288-288v-320c0-159.057 128.942-288 288-288h319.998c159.061 0 288 128.943 288 288v320c0 159.058-128.939 288-288 288h-319.998zM594.624 683.206c-12.079-12.902-11.409-33.152 1.489-45.231l86.451-80.936h-200.282c-97.855 0-177.184-79.327-177.184-177.187 0-97.856 79.328-177.182 177.184-177.182h76.651c17.673 0 32 14.327 32 32s-14.327 32-32 32h-76.651c-62.509 0-113.184 50.675-113.184 113.182 0 62.511 50.675 113.186 113.184 113.186h281.284c13.137 0 24.939 8.026 29.764 20.245 4.826 12.215 1.694 26.139-7.893 35.116l-145.583 136.296c-12.902 12.079-33.152 11.412-45.231-1.49z" />
<glyph unicode="&#xe935;" glyph-name="arrows-expand" horiz-adv-x="1067" d="M70.25 960h257.064c17.673 0 32-14.327 32-32s-14.327-32-32-32h-179.809l402.784-402.786 402.786 402.786h-179.81c-17.673 0-32 14.327-32 32s14.327 32 32 32h257.062c17.673 0 32-14.327 32-32v-257.063c0-17.673-14.327-32-32-32s-32 14.327-32 32v179.808l-402.743-402.745 402.743-402.743v179.806c0 17.673 14.327 32 32 32s32-14.327 32-32v-257.062c0-17.673-14.327-32-32-32h-257.062c-17.673 0-32 14.327-32 32s14.327 32 32 32h179.81l-402.786 402.786c-1.873-1.664-3.895-3.072-6.020-4.22-1.429-2.603-3.243-5.047-5.449-7.249l-391.315-391.317h179.808c17.673 0 32-14.327 32-32s-14.327-32-32-32h-257.063c-17.673 0-32 14.327-32 32v257.062c0 17.673 14.327 32 32 32s32-14.327 32-32v-179.806l391.314 391.313c2.253 2.253 4.757 4.1 7.424 5.542 1.122 2.044 2.487 3.994 4.087 5.807l-402.825 402.826v-179.808c0-17.673-14.327-32-32-32s-32 14.327-32 32v257.063c0 17.673 14.327 32 32 32z" />
<glyph unicode="&#xe936;" glyph-name="arrows-move" horiz-adv-x="1067" d="M550.327 960c-8.909 0-17.455-3.539-23.757-9.84l-159.909-159.91c-13.12-13.12-13.12-34.39 0-47.51s34.391-13.12 47.51 0l102.56 102.562 0.004-190.833c0-18.554 15.044-33.594 33.596-33.594 18.556 0 33.596 15.041 33.596 33.595l-0.004 190.828 102.558-102.558c13.12-13.12 34.389-13.12 47.509 0s13.12 34.39 0 47.51l-159.91 159.91c-6.298 6.3-14.844 9.84-23.753 9.84zM845.073 631.667c-13.12-13.12-13.12-34.391 0-47.51l102.558-102.557h-190.827c-18.556 0.004-33.596-15.040-33.596-33.591 0-18.556 15.040-33.596 33.596-33.596l190.831-0.004-102.562-102.562c-13.12-13.12-13.12-34.389 0-47.509s34.389-13.12 47.509 0l159.91 159.91c6.302 6.298 9.839 14.844 9.839 23.753 0 8.913-3.537 17.455-9.839 23.757l-159.91 159.91c-13.12 13.12-34.389 13.12-47.509 0zM255.593 631.655c-13.12 13.12-34.391 13.12-47.51 0l-159.91-159.911c-6.3-6.298-9.839-14.844-9.839-23.753 0-8.913 3.539-17.455 9.839-23.757l159.91-159.91c13.119-13.12 34.39-13.12 47.51 0s13.12 34.389 0 47.509l-102.559 102.558h190.829c18.554-0.004 33.595 15.040 33.595 33.591 0 18.556-15.040 33.596-33.594 33.596l-190.833 0.004 102.562 102.562c13.12 13.12 13.12 34.391 0 47.51zM550.332 482.244c-18.914 0-34.249-15.334-34.249-34.253 0-18.914 15.334-34.249 34.249-34.249 18.918 0 34.253 15.334 34.253 34.249 0 18.918-15.334 34.253-34.253 34.253zM448.896 447.991c0 56.026 45.414 101.44 101.436 101.44 56.026 0 101.44-45.415 101.44-101.44 0-56.021-45.414-101.436-101.44-101.436-56.021 0-101.436 45.414-101.436 101.436zM550.345 275.123c-18.556 0-33.596-15.040-33.596-33.591l0.004-190.831-102.56 102.558c-13.119 13.12-34.39 13.12-47.51 0s-13.12-34.389 0-47.509l159.908-159.91c6.302-6.298 14.848-9.839 23.757-9.839s17.455 3.541 23.757 9.839l159.906 159.91c13.12 13.12 13.12 34.389 0 47.509-13.116 13.12-34.389 13.12-47.509 0l-102.562-102.562-0.004 190.835c0 18.551-15.040 33.591-33.591 33.591z" />
<glyph unicode="&#xe937;" glyph-name="arrows-move-1" horiz-adv-x="1067" d="M550.383 960.031c-8.486 0-16.627-3.371-22.626-9.373l-160.445-160.443c-12.497-12.497-12.497-32.758 0-45.255s32.758-12.497 45.255 0l137.816 137.815 137.813-137.815c12.497-12.497 32.759-12.497 45.257 0s12.497 32.758 0 45.255l-160.444 160.443c-5.999 6.001-14.14 9.373-22.626 9.373zM847.262 631.002c-12.497-12.497-12.497-32.758 0-45.255l137.818-137.816-137.818-137.813c-12.497-12.497-12.497-32.759 0-45.257s32.759-12.497 45.257 0l160.444 160.444c5.999 5.999 9.37 14.14 9.37 22.626s-3.371 16.627-9.37 22.626l-160.444 160.445c-12.497 12.497-32.759 12.497-45.257 0zM253.404 630.991c-12.497 12.497-32.758 12.497-45.255 0l-160.443-160.441c-6.001-6.003-9.373-14.144-9.373-22.63s3.371-16.627 9.373-22.626l160.443-160.444c12.497-12.497 32.758-12.497 45.255 0s12.497 32.759 0 45.257l-137.815 137.813 137.815 137.817c12.497 12.497 12.497 32.758 0 45.255zM550.327 529.382c-44.983 0-81.451-36.467-81.451-81.451s36.467-81.451 81.451-81.451c44.983 0 81.451 36.467 81.451 81.451s-36.467 81.451-81.451 81.451zM404.877 447.932c0 80.329 65.122 145.451 145.451 145.451s145.451-65.123 145.451-145.451c0-80.329-65.122-145.451-145.451-145.451s-145.451 65.122-145.451 145.451zM367.334 151.1c-12.497-12.493-12.497-32.755 0-45.252l160.444-160.444c5.999-5.999 14.14-9.374 22.626-9.374s16.627 3.375 22.626 9.374l160.444 160.444c12.497 12.497 12.497 32.759 0 45.252-12.497 12.497-32.755 12.497-45.252 0l-137.818-137.813-137.815 137.813c-12.497 12.497-32.758 12.497-45.255 0z" />
<glyph unicode="&#xe938;" glyph-name="arrow-swap" horiz-adv-x="1067" d="M317.761 951.011c-12.709 12.281-32.967 11.934-45.248-0.775l-193.191-199.921c-11.985-12.402-11.985-32.071 0-44.474l193.191-199.922c12.281-12.706 32.539-13.056 45.248-0.772 12.709 12.279 13.056 32.538 0.775 45.247l-140.776 145.68 540.896-0.033c17.677-0.001 32.004 14.325 32.004 31.998s-14.327 32.001-32 32.002l-540.909 0.033 140.785 145.688c12.281 12.709 11.934 32.967-0.775 45.248zM782.903 390.852c-12.706-12.279-13.052-32.538-0.772-45.248l140.783-145.69-540.909-0.030c-17.673 0-31.999-14.332-31.998-32.004s14.329-31.996 32.002-31.996l540.896 0.030-140.774-145.677c-12.279-12.71-11.934-32.969 0.772-45.248 12.71-12.284 32.969-11.934 45.248 0.772l193.195 199.923c11.985 12.403 11.985 32.068 0 44.471l-193.195 199.923c-12.279 12.706-32.538 13.056-45.248 0.772z" />
<glyph unicode="&#xe939;" glyph-name="arrow-swap-1" horiz-adv-x="1067" d="M351.783 907.878c-12.451 12.543-32.712 12.617-45.255 0.166l-258.738-256.844c-9.2-9.133-11.981-22.915-7.043-34.901s16.621-19.808 29.585-19.809l825.437-0.048c17.673-0.001 32 14.325 32 31.998 0.004 17.673-14.323 32-31.996 32.002l-747.786 0.043 203.629 202.139c12.543 12.451 12.617 32.712 0.166 45.254zM204.896 299.465c-17.673-0.004-31.999-14.332-31.998-32.004s14.329-32 32.002-31.996l747.77 0.043-203.618-202.129c-12.544-12.45-12.617-32.713-0.166-45.257 12.45-12.54 32.713-12.617 45.257-0.166l258.735 256.845c9.203 9.135 11.985 22.916 7.044 34.906-4.941 11.985-16.623 19.806-29.589 19.806l-825.436-0.047z" />
<glyph unicode="&#xe93a;" glyph-name="arrow-swap-2" horiz-adv-x="1067" d="M412.961 790.627c-12.497 12.497-32.758 12.497-45.255 0l-320-320.001c-12.497-12.497-12.497-32.755 0-45.252l320-320c12.497-12.497 32.758-12.497 45.255 0s12.497 32.755 0 45.252l-297.373 297.374 297.373 297.373c12.497 12.497 12.497 32.758 0 45.255zM687.706 790.627c-12.497-12.497-12.497-32.758 0-45.255l297.374-297.373-297.374-297.374c-12.497-12.497-12.497-32.755 0-45.252s32.759-12.497 45.257 0l320 320c12.497 12.497 12.497 32.755 0 45.252l-320 320.001c-12.497 12.497-32.759 12.497-45.257 0z" />
<glyph unicode="&#xe93b;" glyph-name="arrow-swap-3" horiz-adv-x="1067" d="M402.579 797.563c11.957-4.953 19.754-16.622 19.754-29.564v-639.999c0-12.945-7.796-24.61-19.754-29.564s-25.721-2.219-34.873 6.933l-320 320c-12.497 12.497-12.497 32.759 0 45.257l320 320c9.152 9.152 22.915 11.889 34.873 6.937zM698.086 797.563c11.959 4.953 25.724 2.215 34.876-6.937l320-320c12.497-12.497 12.497-32.759 0-45.257l-320-320c-9.152-9.152-22.916-11.887-34.876-6.933-11.955 4.954-19.755 16.619-19.755 29.564v639.999c0 12.943 7.799 24.611 19.755 29.564zM115.588 448l242.745-242.748v485.492l-242.745-242.744zM742.332 690.744v-485.492l242.748 242.748-242.748 242.744z" />
<glyph unicode="&#xe93c;" glyph-name="arrow-top-circle" horiz-adv-x="1067" d="M935.462 537.2c12.587 12.405 12.736 32.666 0.329 45.254l-361.387 366.703c-5.867 6.649-14.447 10.843-24.009 10.843-2.718 0-5.35-0.338-7.872-0.975-5.636-1.419-10.833-4.36-14.98-8.571l-362.669-368c-12.405-12.588-12.257-32.848 0.33-45.254s32.849-12.259 45.254 0.33l307.937 312.465v-881.995c0-17.673 14.327-32 32-32s32 14.327 32 32v881.87l307.814-312.34c12.403-12.59 32.666-12.735 45.252-0.33z" />
<glyph unicode="&#xe93d;" glyph-name="arrow-top-circle-1" horiz-adv-x="1067" d="M550.332-64c282.773 0 512 229.231 512 512s-229.227 512-512 512c-282.768 0-511.998-229.23-511.998-512s229.23-512 511.998-512zM998.332 448c0-247.424-200.576-448-448-448-247.422 0-447.998 200.576-447.998 448s200.576 448 447.998 448c247.424 0 448-200.576 448-448zM748.224 478.707c-12.497-12.497-32.759-12.497-45.257 0l-120.602 120.602 0.034-379.879c0-17.673-14.323-32-32-32-17.673-0.004-32 14.323-32 31.996l-0.034 379.898-120.62-120.617c-12.497-12.497-32.758-12.497-45.255 0s-12.497 32.755 0 45.252l175.24 175.239c5.999 6.001 14.14 9.373 22.626 9.373s16.627-3.371 22.626-9.373l175.241-175.239c12.497-12.497 12.497-32.755 0-45.252z" />
<glyph unicode="&#xe93e;" glyph-name="arrow-top-circle-2" horiz-adv-x="1067" d="M710.332-64.021c194.406 0 352 157.598 352 352v320c0 194.404-157.594 352-352 352h-319.998c-194.404 0-352-157.596-352-352v-320c0-194.402 157.596-352 352-352h319.998zM998.332 287.979c0-159.057-128.939-288-288-288h-319.998c-159.058 0-288 128.943-288 288v320c0 159.058 128.942 288 288 288h319.998c159.061 0 288-128.942 288-288v-320zM748.177 478.686c-12.497-12.497-32.759-12.497-45.257 0l-120.623 120.623-0.064-379.908c0-17.673-14.332-31.996-32.004-31.991-17.673 0-31.996 14.332-31.996 32.004l0.064 379.87-120.599-120.597c-12.497-12.497-32.758-12.497-45.255 0s-12.497 32.755 0 45.252l175.236 175.24c6.003 6.001 14.144 9.373 22.63 9.373s16.627-3.372 22.626-9.373l175.241-175.24c12.493-12.497 12.493-32.755 0-45.252z" />
<glyph unicode="&#xe93f;" glyph-name="arrow-top-left-circle" horiz-adv-x="1067" d="M806.332 896c17.673 0 32 14.327 32 32s-14.327 32-32 32h-735.998c-17.673 0-32-14.327-32-32v-736c0-17.673 14.327-32 32-32s32 14.327 32 32v658.745l905.372-905.371c12.497-12.497 32.759-12.497 45.257 0s12.497 32.755 0 45.252l-905.374 905.374h658.743z" />
<glyph unicode="&#xe940;" glyph-name="arrow-top-left-circle-1" horiz-adv-x="1067" d="M1062.332 448c0 282.77-229.227 512-512 512-282.768 0-511.998-229.23-511.998-512s229.23-512 511.998-512c282.773 0 512 229.231 512 512zM550.332 896c247.424 0 448-200.576 448-448s-200.576-448-448-448c-247.422 0-447.998 200.576-447.998 448s200.576 448 447.998 448zM668.527 609.71c0-17.673-14.327-32-32-32h-170.581l268.642-268.709c12.497-12.497 12.493-32.759-0.004-45.257-12.501-12.493-32.759-12.489-45.257 0.009l-268.623 268.689v-170.556c0-17.673-14.327-32-32-32s-32 14.327-32 32v247.824c0 17.673 14.327 32 32 32h247.823c17.673 0 32-14.327 32-32z" />
<glyph unicode="&#xe941;" glyph-name="arrow-top-left-circle-2" horiz-adv-x="1067" d="M1062.332 608c0 194.404-157.594 352-352 352h-319.998c-194.404 0-352-157.596-352-352v-320c0-194.402 157.596-352 352-352h319.998c194.406 0 352 157.598 352 352v320zM710.332 896c159.061 0 288-128.942 288-288v-320c0-159.057-128.939-288-288-288h-319.998c-159.058 0-288 128.943-288 288v320c0 159.058 128.942 288 288 288h319.998zM668.484 609.667c0-17.673-14.327-32-32-32h-170.569l268.621-268.623c12.497-12.493 12.497-32.755 0-45.252s-32.759-12.497-45.257 0l-268.62 268.621v-170.569c0-17.673-14.327-32-32-32s-32 14.327-32 32v247.823c0 17.673 14.327 32 32 32h247.824c17.673 0 32-14.327 32-32z" />
<glyph unicode="&#xe942;" glyph-name="arrow-top-right" horiz-adv-x="1067" d="M47.706-54.626c12.497-12.497 32.758-12.497 45.255 0l900.635 900.62 4.753-660.748c0.128-17.673 14.558-31.898 32.23-31.77s31.898 14.558 31.77 32.23l-5.303 737.22c-0.128 17.493-14.276 31.643-31.77 31.769l-737.22 5.304c-17.673 0.127-32.102-14.096-32.23-31.769s14.096-32.102 31.769-32.229l660.744-4.753-900.633-900.621c-12.497-12.497-12.497-32.755 0-45.252z" />
<glyph unicode="&#xe943;" glyph-name="arrow-top-right-circle" horiz-adv-x="1067" d="M294.333 896.021c-17.673 0-32 14.327-32 32s14.327 32 32 32h735.998c17.673 0 32-14.327 32-32v-735.999c0-17.673-14.327-32-32-32s-32 14.327-32 32v658.745l-905.371-905.371c-12.497-12.497-32.758-12.497-45.255 0s-12.497 32.755 0 45.252l905.373 905.373h-658.746z" />
<glyph unicode="&#xe944;" glyph-name="arrow-top-right-circle-1" horiz-adv-x="1067" d="M38.333 448c0 282.77 229.23 512 511.998 512 282.773 0 512-229.23 512-512s-229.227-512-512-512c-282.768 0-511.998 229.231-511.998 512zM550.332 896c-247.422 0-447.998-200.576-447.998-448s200.576-448 447.998-448c247.424 0 448 200.576 448 448s-200.576 448-448 448zM432.137 609.71c0-17.673 14.327-32 32-32h170.586l-268.643-268.709c-12.495-12.497-12.493-32.759 0.006-45.257 12.498-12.493 32.759-12.489 45.255 0.009l268.623 268.689v-170.556c0-17.673 14.327-32 32-32s32 14.327 32 32v247.824c0 17.673-14.327 32-32 32h-247.825c-17.673 0-32-14.327-32-32z" />
<glyph unicode="&#xe945;" glyph-name="arrow-top-right-circle-2" horiz-adv-x="1067" d="M38.333 608c0 194.404 157.596 352 352 352h319.998c194.406 0 352-157.596 352-352v-320c0-194.402-157.594-352-352-352h-319.998c-194.404 0-352 157.598-352 352v320zM390.333 896c-159.058 0-288-128.942-288-288v-320c0-159.057 128.942-288 288-288h319.998c159.061 0 288 128.943 288 288v320c0 159.058-128.939 288-288 288h-319.998zM432.183 609.667c0-17.673 14.327-32 32-32h170.569l-268.622-268.623c-12.497-12.493-12.497-32.755 0-45.252s32.758-12.497 45.255 0l268.623 268.621v-170.569c0-17.673 14.323-32 32-32 17.673 0 32 14.327 32 32v247.823c0 17.673-14.327 32-32 32h-247.825c-17.673 0-32-14.327-32-32z" />
<glyph unicode="&#xe946;" glyph-name="arrow-up" horiz-adv-x="1067" d="M550.315-64c-17.677 0-32 14.327-32 32l0.004 883.524-318.855-314.301c-12.586-12.405-32.847-12.26-45.254 0.326s-12.261 32.847 0.326 45.254l373.323 367.988c12.454 12.28 32.469 12.28 44.928 0l373.321-367.988c12.587-12.407 12.732-32.667 0.324-45.254s-32.666-12.731-45.252-0.326l-318.861 314.303-0.004-883.525c0-17.673-14.327-32-32-32z" />
<glyph unicode="&#xe947;" glyph-name="at" d="M512 896c-247.424 0-448-200.576-448-448s200.576-448 448-448c94.857 0 182.741 29.444 255.134 79.693 14.519 10.078 34.458 6.481 44.535-8.038s6.477-34.458-8.038-44.535c-82.765-57.446-183.313-91.119-291.631-91.119-282.77 0-512 229.231-512 512s229.23 512 512 512c282.769 0 512-229.23 512-512 0-59.499-10.163-116.698-28.873-169.903-17.395-49.459-65.429-76.267-113.156-76.198-51.541 0.073-95.953 30.519-116.305 74.398-55.078-81.216-148.139-134.583-253.666-134.583-169.157 0-306.286 137.131-306.286 306.287s137.129 306.286 306.286 306.286c98.295 0 185.775-46.302 241.818-118.285v3.291c0 17.673 14.327 32 32 32s32-14.327 32-32v-174.204c0.311-5.653 0.469-11.354 0.469-17.088s-0.158-11.435-0.469-17.088v-100.681c0-35.494 28.749-64.286 64.243-64.333 25.387-0.038 45.828 13.922 52.689 33.429 16.346 46.481 25.25 96.503 25.25 148.672 0 247.424-200.576 448-448 448zM753.818 463.194c-7.842 126.734-113.109 227.092-241.818 227.092-133.811 0-242.286-108.475-242.286-242.286s108.475-242.287 242.286-242.287c128.708 0 233.975 100.361 241.818 227.093v30.387z" />
<glyph unicode="&#xe948;" glyph-name="at-1" d="M512 896c-247.424 0-448-200.576-448-448s200.576-448 448-448c81.574 0 157.969 21.773 223.787 59.806 15.3 8.841 34.876 3.605 43.716-11.699 8.841-15.3 3.605-34.876-11.699-43.716-75.29-43.503-162.688-68.39-255.804-68.39-282.77 0-512 229.231-512 512s229.23 512 512 512c282.769 0 512-229.23 512-512 0-36.629-3.853-72.393-11.183-106.897-15.945-75.046-86.694-115.981-155.575-115.981-71.386 0-132.915 42.202-161.003 103.019-72.742-131.814-216.542-206.972-341.991-153.353-135.983 58.116-177.513 236.378-112.278 389.015s222.777 245.821 358.755 187.705c31.565-13.489 58.039-33.452 79.27-58.065v1.415c0 17.673 14.327 32 32 32 17.677 0 32-14.327 32-32v-292.494c0-62.541 50.701-113.242 113.246-113.242 46.848 0 84.868 27.127 92.975 65.284 6.404 30.157 9.783 61.466 9.783 93.594 0 247.424-200.576 448-448 448zM575.578 692.657c-91.661 39.174-217.755-20.631-274.757-154.006-57.002-133.373-13.082-265.841 78.579-305.013 91.662-39.177 217.755 20.629 274.753 154.005 57.003 133.376 13.086 265.84-78.575 305.014z" />
<glyph unicode="&#xe949;" glyph-name="atm-card-01" d="M0.48 667.429c0 104.4 74.872 196.571 175.928 196.571h671.665c101.056 0 175.927-92.172 175.927-196.571v-438.859c0-104.397-74.871-196.57-175.927-196.57h-671.665c-101.056 0-175.928 92.173-175.928 196.57v381.742c-0.315 1.803-0.48 3.658-0.48 5.551s0.164 3.748 0.48 5.551v46.015zM64.48 583.863v-355.293c0-77.38 54.006-132.57 111.928-132.57h671.665c57.92 0 111.927 55.189 111.927 132.57v355.293h-895.52zM960 647.863v19.566c0 77.38-54.007 132.571-111.927 132.571h-671.665c-57.922 0-111.928-55.191-111.928-132.571v-19.566h895.52zM150.165 425.51c0-17.677 14.327-32 32-32h361.741c17.673 0 32 14.323 32 32 0 17.673-14.327 32-32 32h-361.741c-17.673 0-32-14.327-32-32zM150.165 254.353c0-17.673 14.327-32 32-32h590.584c17.673 0 32 14.327 32 32s-14.327 32-32 32h-590.584c-17.673 0-32-14.327-32-32z" />
<glyph unicode="&#xe94a;" glyph-name="atm-card-02" d="M0.48 688.072c0 97.162 78.766 175.928 175.928 175.928h671.665c97.161 0 175.927-78.766 175.927-175.928v-72.107c0-0.035 0-0.069 0-0.103s0-0.069 0-0.103v-407.831c0-97.161-78.767-175.927-175.927-175.927h-671.665c-97.162 0-175.928 78.767-175.928 175.927v402.385c-0.315 1.803-0.48 3.657-0.48 5.55s0.164 3.747 0.48 5.55v66.66zM64.48 583.862v-375.935c0-61.815 50.112-111.927 111.928-111.927h671.665c61.815 0 111.927 50.112 111.927 111.927v375.935h-895.52zM960 647.862v40.21c0 61.816-50.112 111.928-111.927 111.928h-671.665c-61.816 0-111.928-50.112-111.928-111.928v-40.21h895.52zM150.167 425.506c0-17.673 14.327-32 32-32h191.904c17.673 0 32 14.327 32 32 0 17.677-14.327 32-32 32h-191.904c-17.673 0-32-14.323-32-32z" />
<glyph unicode="&#xe94b;" glyph-name="atm-card-03" d="M0.48 667.429c0 104.4 74.872 196.571 175.928 196.571h671.665c101.056 0 175.927-92.172 175.927-196.571v-438.859c0-104.397-74.871-196.57-175.927-196.57h-671.665c-101.056 0-175.928 92.173-175.928 196.57v381.742c-0.315 1.803-0.48 3.658-0.48 5.551s0.164 3.748 0.48 5.551v46.015zM64.48 583.863v-355.293c0-77.38 54.006-132.57 111.928-132.57h671.665c57.92 0 111.927 55.189 111.927 132.57v355.293h-895.52zM960 647.863v19.566c0 77.38-54.007 132.571-111.927 132.571h-671.665c-57.922 0-111.928-55.191-111.928-132.571v-19.566h895.52zM150.165 309.21c0-17.673 14.327-32 32-32h590.584c17.673 0 32 14.327 32 32 0 17.677-14.327 32-32 32h-590.584c-17.673 0-32-14.323-32-32z" />
<glyph unicode="&#xe94c;" glyph-name="atm-card-05" d="M0 722.286c0 74.119 53.428 141.714 128 141.714h768c74.573 0 128-67.595 128-141.714v-548.573c0-74.116-53.427-141.713-128-141.713h-768c-74.572 0-128 67.597-128 141.713v548.573zM64 502.857v-329.143c0-47.066 32.534-77.713 64-77.713h768c31.467 0 64 30.647 64 77.713v329.143c0 47.069-32.533 77.715-64 77.715h-768c-31.466 0-64-30.646-64-77.715zM960 625.83v96.455c0 47.068-32.533 77.714-64 77.714h-768c-31.466 0-64-30.647-64-77.714v-96.455c18.467 11.828 40.152 18.741 64 18.741h768c23.846 0 45.534-6.912 64-18.741zM149.766 420.57c0-17.673 14.327-32 32-32h361.919c17.673 0 32 14.327 32 32 0 17.677-14.327 32-32 32h-361.919c-17.673 0-32-14.323-32-32zM149.766 249.399c0-17.673 14.327-32 32-32h590.881c17.673 0 32 14.327 32 32s-14.327 32-32 32h-590.881c-17.673 0-32-14.327-32-32z" />
<glyph unicode="&#xe94d;" glyph-name="atom-01" d="M1019.716 110.955c-29.867 119.467-76.8 234.667-140.8 337.067 59.733 98.135 106.667 204.801 136.533 320.001 12.8 51.2-4.267 102.4-38.4 136.533-38.4 34.133-89.6 46.933-136.533 34.133l-76.8-21.333c-85.333-25.6-162.133-64-238.933-106.667-102.4 64-217.6 115.2-341.333 145.067-51.2 12.8-98.133-4.267-136.533-42.667-34.133-38.4-42.666-89.6-29.866-140.8l8.533-21.333c34.133-102.4 81.066-196.267 136.533-281.601-72.533-106.667-128-226.133-157.866-354.133-12.8-51.2 4.267-102.4 38.4-136.533 29.866-29.867 64-42.667 98.133-42.667 12.8 0 29.867 0 42.667 8.533l76.8 25.6c98.133 29.867 187.733 72.533 273.067 128 89.6-59.733 183.467-106.667 285.867-140.8l21.333-8.533c12.8-4.267 29.867-8.533 46.933-8.533 34.133 0 68.267 12.8 93.867 38.4 34.133 29.867 51.2 81.067 38.4 132.267zM780.783 857.623l76.8 25.6c8.533 4.267 17.067 4.267 21.333 4.267 17.067 0 38.4-8.533 51.2-21.333 21.333-21.333 29.867-46.933 21.333-76.8-25.6-98.133-64-192-115.2-277.335-72.533 102.401-157.867 187.735-260.267 260.268 68.267 34.133 136.533 64 204.8 85.333zM85.316 772.289l-4.267 21.333c-8.533 25.6-4.267 55.467 17.067 76.8 17.067 21.333 42.667 29.867 72.533 25.6 106.667-25.6 204.8-64 294.4-119.467-102.4-72.533-187.733-157.867-264.533-251.735-46.933 76.801-85.333 157.868-115.2 247.468zM238.916 25.621l-76.8-25.6c-25.6-8.533-55.467 0-76.8 17.067-21.333 21.333-29.867 46.933-21.333 76.8 29.867 110.933 72.533 217.6 136.533 315.733 76.8-106.667 170.667-200.533 273.067-277.333-72.533-42.667-149.333-81.067-234.667-106.667zM533.316 170.688c-115.2 81.067-213.333 179.2-290.133 294.4 76.8 106.668 174.933 196.268 285.867 268.801 110.933-76.8 204.8-174.933 281.6-285.868-81.067-106.667-170.667-200.533-277.333-277.333zM934.383 21.355c-21.333-17.067-46.933-25.6-76.8-17.067l-21.333 8.533c-89.6 29.867-170.667 68.267-247.467 119.467 98.133 72.533 183.467 157.867 251.733 260.267 51.2-89.6 93.867-187.733 115.2-294.4 8.533-29.867 0-55.467-21.333-76.8z" />
<glyph unicode="&#xe94e;" glyph-name="atom-02" d="M1024 768c0 106.667-85.333 192-192 192-115.2 0-221.867-21.333-320-64-98.133 42.667-204.8 64-320 64-106.667 0-192-85.333-192-192 0-115.2 21.333-221.867 64-320-42.667-98.133-64-204.8-64-320 0-106.667 85.333-192 192-192 115.2 0 221.867 21.333 320 64 98.133-42.667 204.8-64 320-64 106.667 0 192 85.333 192 192 0 115.2-21.333 221.867-64 320 42.667 98.133 64 204.8 64 320zM832 896c72.533 0 128-55.467 128-128 0-85.333-12.8-166.4-38.4-238.933-76.8 136.533-192 251.733-328.533 328.533 72.533 25.6 153.6 38.4 238.933 38.4zM887.467 448c-76.8-166.4-209.067-298.667-375.467-375.467-166.4 76.8-298.667 209.067-375.467 375.467 76.8 166.4 209.067 298.667 375.467 375.467 166.4-76.8 298.667-209.067 375.467-375.467zM64 768c0 72.533 55.467 128 128 128 85.333 0 162.133-12.8 238.933-38.4-136.533-76.8-251.733-192-328.533-328.533-25.6 72.533-38.4 153.6-38.4 238.933zM192 0c-72.533 0-128 55.467-128 128 0 85.333 12.8 162.133 38.4 238.933 76.8-136.533 192-251.733 328.533-328.533-76.8-25.6-153.6-38.4-238.933-38.4zM960 128c0-72.533-55.467-128-128-128-85.333 0-166.4 12.8-238.933 38.4 136.533 76.8 251.733 192 328.533 328.533 25.6-76.8 38.4-153.6 38.4-238.933z" />
<glyph unicode="&#xe94f;" glyph-name="audio-01" d="M0 653.714c0 169.157 137.129 306.286 306.286 306.286h411.427c169.156 0 306.287-137.129 306.287-306.286v-411.427c0-169.156-137.131-306.287-306.287-306.287h-411.427c-169.157 0-306.286 137.131-306.286 306.287v411.427zM306.286 896c-133.811 0-242.286-108.475-242.286-242.286v-411.427c0-133.811 108.475-242.287 242.286-242.287h411.427c133.811 0 242.287 108.476 242.287 242.287v411.427c0 133.811-108.476 242.286-242.287 242.286h-411.427zM710.404 621.359v-160.388c-5.705 1.263-11.639 1.929-17.724 1.929-45.129 0-81.715-36.587-81.715-81.715v-26.743c0-45.129 36.587-81.715 81.715-81.715s81.715 36.587 81.715 81.715l0.009 18.846v248.072c0 66.408-63.219 114.585-127.249 96.968l-224.229-61.695c-43.647-12.009-73.891-51.699-73.891-96.968v-197.407c-5.706 1.259-11.635 1.924-17.72 1.924-45.129 0-81.714-36.582-81.714-81.715v-26.739c0-45.133 36.585-81.715 81.714-81.715s81.714 36.582 81.714 81.715l0.006 18.133v285.804c0 16.461 10.998 30.894 26.871 35.261l224.226 61.695c23.283 6.406 46.272-11.113 46.272-35.261z" />
<glyph unicode="&#xe950;" glyph-name="audio-02" d="M938.667 784.382c0 73.538-70.242 127.103-141.585 107.533l-431.686-118.413c-48.605-13.332-82.206-57.382-82.206-107.533v-63.948l655.477 179.8v2.562zM938.667 715.456l-655.477-179.8v-468.981c0-72.252-58.695-130.679-130.928-130.679s-130.928 58.428-130.928 130.679v53.824c0 72.247 58.695 130.675 130.928 130.675 24.443 0 47.335-6.69 66.928-18.342v433.137c0 79.074 52.965 148.321 129.276 169.254l431.686 118.413c111.868 30.686 222.515-53.259 222.515-169.253v-520.352c0-72.247-58.697-130.679-130.927-130.679-72.235 0-130.931 58.432-130.931 130.679v53.824c0 72.247 58.697 130.675 130.931 130.675 24.444 0 47.334-6.69 66.927-18.342v285.27zM938.667 317.854c0 36.749-29.888 66.675-66.927 66.675-37.043 0-66.931-29.926-66.931-66.675v-53.824c0-36.749 29.888-66.679 66.931-66.679 37.039 0 66.927 29.931 66.927 66.679v53.824zM219.189 120.499c0 36.745-29.888 66.675-66.928 66.675s-66.928-29.931-66.928-66.675v-53.824c0-36.749 29.888-66.679 66.928-66.679s66.928 29.931 66.928 66.679v53.824z" />
<glyph unicode="&#xe951;" glyph-name="audio-03" d="M0 448c0 282.77 229.23 512 512 512s512-229.23 512-512v-342.857c0-93.414-75.729-169.143-169.143-169.143s-169.143 75.729-169.143 169.143v137.143c0 93.414 75.729 169.143 169.143 169.143 39.74 0 76.275-13.705 105.143-36.642v73.212c0 247.424-200.576 448-448 448s-448-200.576-448-448v-73.212c28.869 22.938 65.405 36.642 105.143 36.642 93.415 0 169.143-75.729 169.143-169.143v-137.143c0-93.414-75.728-169.143-169.143-169.143s-169.143 75.729-169.143 169.143v342.857zM64 105.143c0-58.069 47.074-105.143 105.143-105.143s105.143 47.074 105.143 105.143v137.143c0 58.069-47.074 105.143-105.143 105.143s-105.143-47.074-105.143-105.143v-137.143zM960 242.287c0 58.069-47.074 105.143-105.143 105.143s-105.143-47.074-105.143-105.143v-137.143c0-58.069 47.074-105.143 105.143-105.143s105.143 47.074 105.143 105.143v137.143z" />
<glyph unicode="&#xe952;" glyph-name="award-01" d="M512 896.047c-176.594 0-320-143.851-320-321.606 0-98.114 43.672-185.909 112.605-244.926 55.884-47.851 128.257-76.681 207.395-76.681 79.232 0 151.684 28.902 207.599 76.851 68.813 59.021 112.401 146.739 112.401 244.755 0 177.756-143.407 321.606-320 321.606zM128 574.441c0 212.827 171.785 385.606 384 385.606s384-172.779 384-385.606c0-110.726-46.511-210.601-120.934-280.911l36.087-201.493c18.543-107.226-92.39-190.716-189.961-141.705l-78.579 39.467c-19.277 9.681-41.95 9.681-61.227 0l-78.449-39.403c-97.603-49.024-208.559 34.534-189.946 141.786l0.034 0.188 36.12 200.964c-74.547 70.319-121.146 170.278-121.146 281.107zM306.177 248.853l-30.127-167.616c-0.005-0.030-0.010-0.060-0.015-0.090-9.664-56.077 48.154-98.688 98.177-73.562l78.447 39.403c37.35 18.761 81.331 18.761 118.682 0l78.579-39.467c50.005-25.118 107.81 17.459 98.18 73.523-0.004 0.030-0.009 0.055-0.013 0.085l-30.063 167.851c-59.524-38.067-130.227-60.147-206.025-60.147-75.712 0-146.34 22.029-205.823 60.019z" />
<glyph unicode="&#xe953;" glyph-name="award-02" d="M512 896.047c-170.84 0-309.333-138.493-309.333-309.333 0-92.348 40.427-175.215 104.655-231.94 54.559-48.188 126.168-77.393 204.679-77.393 78.507 0 150.114 29.205 204.672 77.389 64.23 56.725 104.661 139.593 104.661 231.945 0 170.84-138.492 309.333-309.333 309.333zM138.667 586.714c0 206.186 167.147 373.333 373.333 373.333s373.333-167.147 373.333-373.333c0-106.185-44.365-202.039-115.477-269.982v-292.156c0-72.9-83.226-114.513-141.547-70.771l-67.755 50.816c-28.774 21.581-68.343 21.581-97.118 0l-67.756-50.816c-58.319-43.742-141.543-2.129-141.543 70.771v292.164c-71.109 67.942-115.471 163.793-115.471 269.973zM318.138 267.601v-243.025c0-20.16 23.016-31.667 39.143-19.571l67.758 50.816c51.531 38.647 122.383 38.647 173.916 0l67.755-50.816c16.128-12.096 39.147-0.589 39.147 19.571v243.021c-56.508-34.394-122.889-54.217-193.856-54.217-70.972 0-137.353 19.827-193.862 54.221zM480 754.214c0-17.673 14.327-32 32-32 74.833 0 135.501-60.666 135.501-135.5 0-17.673 14.327-32 32-32s32 14.327 32 32c0 110.181-89.318 199.5-199.501 199.5-17.673 0-32-14.327-32-32z" />
<glyph unicode="&#xe954;" glyph-name="award-03" d="M512.004 960.031c11.524 0 22.157-6.196 27.84-16.222l58.867-103.867c24.806-43.77 71.373-70.67 121.681-70.291l132.591 0.999c11.52 0.087 22.199-6.026 27.959-16.006 5.756-9.979 5.709-22.283-0.132-32.215l-60.493-102.868c-25.515-43.388-25.515-97.194 0-140.582l60.493-102.869c5.841-9.929 5.888-22.234 0.132-32.213-5.76-9.98-16.439-16.094-27.959-16.004l-140.642 1.058v-318.758c0-61.052-69.696-95.898-118.537-59.268l-50.5 37.875c-18.547 13.914-44.053 13.914-62.605 0l-50.5-37.875c-48.838-36.629-118.534-1.783-118.534 59.268v318.758l-140.757-1.058c-11.521-0.090-22.199 6.025-27.957 16.004s-5.708 22.285 0.132 32.213l60.492 102.869c25.514 43.388 25.514 97.194 0 140.581l-60.492 102.869c-5.84 9.932-5.891 22.236-0.132 32.215s16.436 16.092 27.957 16.006l132.706-1c50.309-0.379 96.877 26.521 121.683 70.291l58.868 103.868c5.679 10.026 16.316 16.222 27.84 16.222zM375.665 321.856v-311.663c0-8.311 9.487-13.056 16.135-8.068l50.499 37.875c41.306 30.98 98.099 30.98 139.405 0l50.5-37.875c6.647-4.988 16.137-0.243 16.137 8.068v311.663c-12.301-6.118-22.75-15.825-29.764-28.198l-78.733-138.923c-5.683-10.027-16.316-16.222-27.84-16.222s-22.157 6.195-27.84 16.222l-78.735 138.923c-7.013 12.373-17.465 22.080-29.764 28.198zM512.004 863.131l-31.027-54.746c-36.258-63.971-104.317-103.287-177.846-102.733l-76.275 0.575 31.887-54.224c37.289-63.412 37.289-142.051 0-205.463l-31.887-54.225 116.567 0.879c48.656 0.367 93.692-25.651 117.683-67.981l50.897-89.805 50.893 89.805c23.991 42.33 69.030 68.348 117.683 67.981l116.454-0.879-31.885 54.225c-37.291 63.411-37.291 142.050 0 205.463l31.885 54.223-76.16-0.574c-73.527-0.554-141.589 38.762-177.843 102.733l-31.027 54.746zM512.004 590.919c-23.002 0-41.647-18.646-41.647-41.648s18.645-41.649 41.647-41.649 41.647 18.645 41.647 41.649c0 23.002-18.645 41.648-41.647 41.648zM406.355 549.271c0 58.348 47.298 105.648 105.649 105.648 58.347 0 105.647-47.3 105.647-105.648s-47.3-105.649-105.647-105.649c-58.351 0-105.649 47.3-105.649 105.649z" />
<glyph unicode="&#xe955;" glyph-name="baby-carriage-01" d="M1019.746 571.16c0-93.43-76.54-169.876-170.091-169.876h-489.013l-55.28-67.951c-12.757-12.74-12.757-29.73-4.252-46.716 8.505-16.99 21.261-25.481 38.271-25.481h650.601c17.007 0 34.018-12.74 34.018-33.975s-12.757-33.975-34.018-33.975h-650.601c-42.523 0-80.794 25.481-97.803 63.701-17.009 38.225-12.757 80.691 12.757 114.667l25.513 33.975c-76.541 16.99-136.073 84.941-136.073 165.631 0 29.728 12.757 55.21 29.766 72.198-46.775 21.235-85.046 55.21-114.812 97.679l-51.028 72.198c-12.757 12.741-8.505 33.975 4.252 42.469s34.018 8.494 46.775-4.247l51.027-67.951c51.028-67.951 131.821-106.173 216.867-106.173h323.176c17.007 127.407 127.565 229.333 259.388 229.333h25.515c46.775-4.247 85.043-42.469 85.043-84.938v-250.568zM849.655 469.235c59.533 0 106.308 46.716 106.308 106.172 0 21.235-17.011 38.222-38.272 38.222h-671.861c-21.262 0-38.271-16.987-38.271-38.222 0-59.456 46.775-106.172 106.307-106.172h535.788zM717.837 673.086h238.127v148.642c0 8.494-8.503 16.988-17.011 16.988h-25.51c-97.805 0-182.852-72.198-195.605-165.63zM466.948-10.667c29.769 0 55.283 25.481 55.283 59.456 0 29.73-25.515 59.456-55.283 59.456-29.764 0-55.278-25.481-55.278-59.456s25.514-59.456 55.278-59.456zM836.898-10.667c29.769 0 55.279 25.481 55.279 59.456 0 29.73-25.51 59.456-55.279 59.456-29.764 0-55.279-25.481-55.279-59.456s25.515-59.456 55.279-59.456z" />
<glyph unicode="&#xe956;" glyph-name="baby-carriage-02" d="M1024 875.372c0 46.545-38.050 84.628-84.561 84.628h-25.37c-135.296 0-245.222-101.554-262.135-228.496h-372.065c-97.244 0-186.033 67.703-207.173 160.793-8.456 21.157-25.368 33.851-46.508 25.389-16.912-4.231-29.596-21.157-25.368-42.314 21.14-80.397 71.876-143.868 143.753-181.95v-25.389c0-241.191 198.717-440.065 439.714-440.065s439.714 198.874 439.714 440.065v207.339zM584.286 299.9c-198.717 0-363.61 160.794-367.837 359.671h735.675c-4.228-198.877-169.122-359.671-367.838-359.671zM723.81 731.504c16.913 88.859 93.018 156.562 190.259 156.562h25.37c8.457 0 16.913-8.463 16.913-16.925v-139.636h-232.542zM364.429 198.349c-71.876 0-131.069-59.243-131.069-131.174 0-71.936 59.192-131.174 131.069-131.174s131.067 59.238 131.067 131.174c0 71.932-59.191 131.174-131.067 131.174zM364.429 7.936c-33.824 0-59.192 25.387-59.192 59.238s25.368 59.238 59.192 59.238c33.824 0 59.192-25.387 59.192-59.238s-25.368-59.238-59.192-59.238zM804.143 198.349c-71.876 0-131.068-59.243-131.068-131.174 0-71.936 59.191-131.174 131.068-131.174s131.068 59.238 131.068 131.174c0 71.932-59.191 131.174-131.068 131.174zM804.143 7.936c-33.826 0-59.191 25.387-59.191 59.238s25.365 59.238 59.191 59.238c33.826 0 59.191-25.387 59.191-59.238s-25.365-59.238-59.191-59.238z" />
<glyph unicode="&#xe957;" glyph-name="bar-chart-01" d="M0 653.673c0 169.157 137.129 306.286 306.286 306.286h411.427c169.156 0 306.287-137.129 306.287-306.286v-411.428c0-169.156-137.131-306.287-306.287-306.287h-411.427c-169.157 0-306.286 137.131-306.286 306.287v411.428zM306.286 895.958c-133.811 0-242.286-108.475-242.286-242.286v-411.428c0-133.811 108.475-242.287 242.286-242.287h411.427c133.811 0 242.287 108.476 242.287 242.287v411.428c0 133.811-108.476 242.286-242.287 242.286h-411.427zM501.722 730.25c-17.673 0-32-14.327-32-32v-511.545c0-17.673 14.327-32 32-32 17.677 0 32 14.327 32 32v511.545c0 17.673-14.323 32-32 32zM261.723 566.321c-17.673 0-32-14.327-32-32v-347.659c0-17.673 14.327-32 32-32s32 14.327 32 32v347.659c0 17.673-14.327 32-32 32zM741.722 462.793c-17.673 0-32-14.323-32-32v-244.113c0-17.673 14.327-32 32-32 17.677 0 32 14.327 32 32v244.113c0 17.677-14.323 32-32 32z" />
<glyph unicode="&#xe958;" glyph-name="bar-chart-02" d="M0 653.031c0 169.534 137.435 306.969 306.969 306.969h410.061c169.536 0 306.97-137.435 306.97-306.969v-410.061c0-169.536-137.434-306.97-306.97-306.97h-410.061c-169.534 0-306.969 137.434-306.969 306.97v410.061zM306.969 892.811c-132.427 0-239.78-107.353-239.78-239.78v-410.061c0-132.429 107.353-239.778 239.78-239.778h410.061c132.429 0 239.778 107.349 239.778 239.778v410.061c0 132.427-107.349 239.78-239.778 239.78h-410.061zM817.097 622.013c-15.138 10.725-36.109 7.146-46.835-7.993l-76.51-108.006c-32.832-46.345-100.489-49.468-137.451-6.345-66.756 77.884-189.489 70.249-246.079-15.309l-111.919-169.207c-10.236-15.475-5.988-36.318 9.487-46.554s36.317-5.986 46.553 9.489l111.919 169.207c31.971 48.337 101.309 52.651 139.026 8.649 65.425-76.331 185.178-70.801 243.29 11.23l76.51 108.005c10.726 15.14 7.147 36.108-7.991 46.833z" />
<glyph unicode="&#xe959;" glyph-name="bar-chart-03" d="M32 960c-17.673 0-32-14.327-32-32v-685.713c0-169.165 137.188-306.287 306.337-306.287h685.663c17.673 0 32 14.327 32 32s-14.327 32-32 32h-685.663c-133.818 0-242.337 108.484-242.337 242.287v685.713c0 17.673-14.327 32-32 32zM648 653.714c0 55.544 45.026 100.571 100.57 100.571h68.574c55.543 0 100.57-45.027 100.57-100.571v-411.427c0-55.543-45.026-100.574-100.57-100.574h-68.574c-55.543 0-100.57 45.030-100.57 100.574v411.427zM748.57 690.286c-20.194 0-36.57-16.373-36.57-36.571v-411.427c0-20.198 16.375-36.574 36.57-36.574h68.574c20.198 0 36.57 16.375 36.57 36.574v411.427c0 20.198-16.371 36.571-36.57 36.571h-68.574zM202.286 432.23c0 55.543 45.027 100.57 100.571 100.57h68.572c55.545 0 100.571-45.026 100.571-100.57v-189.943c0-55.543-45.026-100.57-100.571-100.57h-68.572c-55.544 0-100.571 45.026-100.571 100.57v189.943zM302.857 468.8c-20.198 0-36.571-16.371-36.571-36.57v-189.943c0-20.198 16.374-36.57 36.571-36.57h68.572c20.198 0 36.571 16.371 36.571 36.57v189.943c0 20.198-16.374 36.57-36.571 36.57h-68.572z" />
<glyph unicode="&#xe95a;" glyph-name="bar-chart-04" d="M0 653.714c0 169.157 137.129 306.286 306.286 306.286h411.427c169.156 0 306.287-137.129 306.287-306.286v-411.427c0-169.156-137.131-306.287-306.287-306.287h-411.427c-169.157 0-306.286 137.131-306.286 306.287v411.427zM306.286 896c-133.811 0-242.286-108.475-242.286-242.286v-411.427c0-133.811 108.475-242.287 242.286-242.287h411.427c133.811 0 242.287 108.476 242.287 242.287v411.427c0 133.811-108.476 242.286-242.287 242.286h-411.427zM575.996 567.988c0 55.544 45.026 100.571 100.57 100.571h51.43c55.543 0 100.57-45.027 100.57-100.571v-342.857c0-55.543-45.026-100.57-100.57-100.57h-51.43c-55.543 0-100.57 45.026-100.57 100.57v342.857zM676.565 604.559c-20.194 0-36.57-16.373-36.57-36.571v-342.857c0-20.198 16.375-36.57 36.57-36.57h51.43c20.198 0 36.57 16.371 36.57 36.57v342.857c0 20.198-16.371 36.571-36.57 36.571h-51.43zM181.703 346.47c0 55.543 45.027 100.57 100.571 100.57h51.429c55.544 0 100.571-45.026 100.571-100.57v-121.37c0-55.548-45.027-100.574-100.571-100.574h-51.429c-55.544 0-100.571 45.026-100.571 100.574v121.37zM282.275 383.040c-20.198 0-36.571-16.371-36.571-36.57v-121.37c0-20.198 16.373-36.574 36.571-36.574h51.429c20.198 0 36.571 16.375 36.571 36.574v121.37c0 20.198-16.374 36.57-36.571 36.57h-51.429z" />
<glyph unicode="&#xe95b;" glyph-name="bed-01" d="M106.667 746.667c0 76.583 62.083 138.667 138.667 138.667h533.333c76.582 0 138.667-62.083 138.667-138.667v-272.128c28.207-35.332 46.844-78.703 51.93-126.089 32.013-12.301 54.737-43.341 54.737-79.689v-52.702c0-47.13-38.204-85.333-85.333-85.333h-96.393l65.643-65.387c12.523-12.471 12.561-32.734 0.090-45.257s-32.734-12.561-45.252-0.090l-111.168 110.733h-479.168l-111.169-110.733c-12.521-12.471-32.783-12.433-45.254 0.090s-12.432 32.785 0.089 45.257l65.645 65.387h-96.396c-47.128 0-85.333 38.204-85.333 85.333v52.702c0 36.348 22.723 67.388 54.739 79.689 5.085 47.386 23.72 90.756 51.928 126.089v272.128zM170.667 530.957c37.044 22.597 80.588 35.635 127.161 35.635h428.346c46.571 0 90.116-13.038 127.159-35.635v215.71c0 41.237-33.429 74.667-74.667 74.667h-533.333c-41.237 0-74.667-33.429-74.667-74.667v-215.71zM120.157 354.095h783.685c-5.939 33.242-20.975 63.305-42.47 87.586-33.114 37.406-81.391 60.911-135.198 60.911h-428.346c-53.808 0-102.086-23.505-135.201-60.911-21.493-24.282-36.529-54.345-42.47-87.586zM259.19 194.726c0.007 0 0.013 0 0.020 0h505.582c0.009 0 0.013 0 0.021 0h173.854c11.78 0 21.333 9.553 21.333 21.333v52.702c0 11.785-9.553 21.333-21.333 21.333h-853.333c-11.782 0-21.333-9.549-21.333-21.333v-52.702c0-11.78 9.551-21.333 21.333-21.333h173.856z" />
<glyph unicode="&#xe95c;" glyph-name="bed-02" d="M53.333 639.99c0 135.494 109.839 245.333 245.333 245.333h426.667c135.492 0 245.333-109.84 245.333-245.333v-187.535c31.275-12.659 53.333-43.319 53.333-79.13v-156.753c0-47.125-38.204-85.333-85.333-85.333h-96.64l65.937-65.933c12.497-12.497 12.497-32.759 0-45.257s-32.759-12.497-45.257 0l-111.189 111.189h-479.034l-111.189-111.189c-12.497-12.497-32.758-12.497-45.255 0s-12.497 32.759 0 45.257l65.935 65.933h-96.64c-47.128 0-85.333 38.208-85.333 85.333v156.753c0 35.81 22.060 66.47 53.333 79.13v187.535zM117.333 458.658h78.222v117.332c0 53.019 42.981 96 96 96h85.333c53.021 0 95.999-42.981 95.999-96v-117.332h78.221v117.332c0 53.019 42.978 96 96 96h85.333c53.018 0 96-42.981 96-96v-117.332h78.225v181.332c0 100.148-81.186 181.333-181.333 181.333h-426.667c-100.148 0-181.333-81.186-181.333-181.333v-181.332zM85.333 394.658c-11.782 0-21.333-9.553-21.333-21.333v-156.753c0-11.78 9.551-21.333 21.333-21.333h853.333c11.78 0 21.333 9.553 21.333 21.333v156.753c0 11.78-9.553 21.333-21.333 21.333h-853.333zM764.442 458.658v117.332c0 17.673-14.327 32-32 32h-85.333c-17.673 0-32-14.327-32-32v-117.332h149.333zM408.889 458.658v117.332c0 17.673-14.327 32-32 32h-85.333c-17.673 0-32-14.327-32-32v-117.332h149.333z" />
<glyph unicode="&#xe95d;" glyph-name="bed-03" d="M80 693.312c0 106.039 85.961 192 192 192h480c106.039 0 192-85.961 192-192v-247.651c47.258-22.097 80-70.067 80-125.683v-156.749c0-17.673-14.327-32-32-32h-149.973l65.937-65.937c12.497-12.497 12.497-32.755 0-45.252s-32.759-12.497-45.257 0l-111.189 111.189h-479.034l-111.189-111.189c-12.497-12.497-32.758-12.497-45.255 0s-12.497 32.755 0 45.252l65.935 65.937h-149.974c-17.673 0-32 14.327-32 32v156.749c0 55.616 32.741 103.586 80 125.683v247.651zM144 458.645h88.885v53.333c0 64.802 52.532 117.334 117.333 117.334s117.335-52.532 117.335-117.334v-53.333h88.883v53.333c0 64.802 52.531 117.334 117.333 117.334s117.333-52.532 117.333-117.334v-53.333h88.896v234.667c0 70.693-57.306 128-128 128h-480c-70.692 0-128-57.307-128-128v-234.667zM620.437 458.645h106.667v53.333c0 29.456-23.876 53.334-53.333 53.334s-53.333-23.878-53.333-53.334v-53.333zM138.667 394.645c-41.237 0-74.667-33.429-74.667-74.667v-124.749h896v124.749c0 41.237-33.429 74.667-74.667 74.667h-746.667zM296.885 458.645h106.667v53.333c0 29.456-23.878 53.334-53.333 53.334s-53.333-23.878-53.333-53.334v-53.333z" />
<glyph unicode="&#xe95e;" glyph-name="bed-04" d="M80 693.312c0 106.039 85.961 192 192 192h480c106.039 0 192-85.961 192-192v-247.651c47.258-22.097 80-70.067 80-125.683v-117.333c0-47.13-38.204-85.333-85.333-85.333h-5.431c6.903-14.541 10.765-30.805 10.765-47.974v-26.667c0-17.673-14.327-32-32-32s-32 14.327-32 32v26.667c0 25.997-20.668 47.168-46.473 47.974h-643.055c-25.803-0.806-46.473-21.978-46.473-47.974v-26.667c0-17.673-14.327-32-32-32s-32 14.327-32 32v26.667c0 17.165 3.863 33.434 10.767 47.974h-5.434c-47.128 0-85.333 38.204-85.333 85.333v117.333c0 55.616 32.741 103.586 80 125.683v247.651zM144 458.645h178.655c15.235 90.807 94.209 160 189.345 160 95.134 0 174.11-69.193 189.346-160h178.654v234.667c0 70.693-57.306 128-128 128h-480c-70.692 0-128-57.307-128-128v-234.667zM138.667 394.645c-41.237 0-74.667-33.429-74.667-74.667v-117.333c0-11.78 9.551-21.333 21.333-21.333h104.332c0.776 0.017 1.554 0.026 2.334 0.026h640c0.781 0 1.557-0.009 2.334-0.026h104.333c11.78 0 21.333 9.553 21.333 21.333v117.333c0 41.237-33.429 74.667-74.667 74.667h-746.667zM388.032 458.645h247.936c-14.208 55.206-64.324 96-123.968 96s-109.758-40.794-123.968-96z" />
<glyph unicode="&#xe95f;" glyph-name="bluetooth" d="M550.507 887.017v-354.572l163.136 177.286-163.136 177.285zM486.315 531.977v360.304c0 60.211 66.987 90.364 106.163 47.789l167.974-182.549c24.286-26.393 24.286-69.185 0-95.578l-196.864-213.943 196.864-213.943c24.286-26.394 24.286-69.184 0-95.578l-167.974-182.549c-39.177-42.577-106.163-12.42-106.163 47.791v360.303l-186.188-202.342c-12.535-13.619-32.858-13.619-45.393 0-12.535 13.623-12.535 35.712 0 49.331l218.068 236.988-218.068 236.986c-12.535 13.622-12.535 35.708 0 49.331s32.858 13.622 45.393 0l186.188-202.34zM550.507 363.554v-354.573l163.136 177.284-163.136 177.289z" />
<glyph unicode="&#xe960;" glyph-name="bluetooth-1" d="M386.527 895.7l180.035-183.588c0.098-0.102 0.154-0.192 0.201-0.305 0.051-0.134 0.098-0.328 0.098-0.561s-0.047-0.427-0.098-0.561c-0.047-0.113-0.102-0.203-0.201-0.305l-180.26-183.818v368.288c0 0.476 0.066 0.69 0.076 0.72zM386.377 895.57l0.005 0.016c-0.001-0.004-0.003-0.009-0.005-0.016zM398.88 448l213.386 217.597c24.794 25.283 24.794 66.015 0 91.298l-180.049 183.604c-41.338 42.152-109.916 10.938-109.916-45.649v-368.762l-203.45 207.468c-12.371 12.616-32.631 12.818-45.252 0.451s-12.823-32.619-0.451-45.235l236.112-240.773-236.112-240.772c-12.372-12.617-12.169-32.87 0.451-45.235s32.881-12.164 45.252 0.452l203.45 207.467v-368.759c0-56.589 68.577-87.804 109.916-45.649l180.049 183.603c24.794 25.28 24.794 66.014 0 91.298l-213.386 217.596zM386.302 369.438l180.26-183.817c0.098-0.102 0.154-0.192 0.201-0.307 0.051-0.132 0.098-0.329 0.098-0.559 0-0.235-0.047-0.427-0.098-0.563-0.047-0.111-0.102-0.201-0.201-0.303l-180.035-183.59c-0.112 0.068-0.157 0.132-0.15 0.119 0.013-0.017 0.012-0.026 0 0.013-0.009 0.030-0.076 0.243-0.076 0.721v368.286zM811.541 703.834c-12.685-12.297-13.001-32.547-0.7-45.231 52.497-54.128 85.158-128.457 85.158-210.603s-32.661-156.476-85.158-210.603c-12.301-12.685-11.985-32.934 0.7-45.231 12.689-12.297 32.951-11.985 45.252 0.7 63.616 65.596 103.206 155.721 103.206 255.134s-39.59 189.539-103.206 255.133c-12.301 12.684-32.563 12.998-45.252 0.701zM673.711 563.294c-12.45-12.538-12.378-32.79 0.166-45.236 17.86-17.719 28.604-41.796 28.604-70.050 0-27.682-10.807-52.395-28.604-70.050-12.544-12.446-12.617-32.7-0.166-45.235 12.45-12.54 32.713-12.617 45.252-0.171 29.943 29.705 47.518 70.775 47.518 115.456 0 45.423-17.638 85.809-47.518 115.454-12.54 12.445-32.802 12.369-45.252-0.169z" />
<glyph unicode="&#xe961;" glyph-name="bluetooth-2" d="M0 688c0 150.222 121.778 272 272 272h480c150.221 0 272-121.778 272-272v-480c0-150.221-121.779-272-272-272h-480c-150.222 0-272 121.779-272 272v480zM272 896c-114.875 0-208-93.125-208-208v-480c0-114.876 93.125-208 208-208h480c114.876 0 208 93.124 208 208v480c0 114.875-93.124 208-208 208h-480zM514.108 685.823v-175.572l122.884 87.81-122.884 87.762zM450.108 525.12v186.448c0 41.277 46.656 65.289 80.247 41.299l158.925-113.504c28.335-20.237 28.339-62.347 0.013-82.59l-152.247-108.793 152.235-108.749c28.339-20.241 28.335-62.357-0.004-82.594l-158.921-113.502c-33.591-23.991-80.247 0.021-80.247 41.297v186.419l-72.9-72.879c-12.499-12.493-32.76-12.493-45.255 0.009-12.495 12.497-12.492 32.759 0.007 45.252l104.78 104.747-104.787 104.787c-12.497 12.497-12.497 32.758 0 45.255s32.758 12.497 45.255 0l72.9-72.901zM514.108 385.711v-175.535l122.876 87.761-122.876 87.774z" />
<glyph unicode="&#xe962;" glyph-name="bold" d="M160 790.857c0 93.415 75.728 169.143 169.143 169.143h102.857c150.221 0 272-121.778 272-272 0-83.661-37.773-158.502-97.19-208.397 143.334-7.689 257.19-126.349 257.19-271.603 0-150.221-121.779-272-272-272h-217.143c-118.662 0-214.857 96.196-214.857 214.857v640zM224 416v-265.143c0-83.315 67.541-150.857 150.857-150.857h217.143c114.876 0 208 93.124 208 208s-93.124 208-208 208h-368zM224 480h208c114.876 0 208 93.125 208 208s-93.124 208-208 208h-102.857c-58.069 0-105.143-47.074-105.143-105.143v-310.857z" />
<glyph unicode="&#xe963;" glyph-name="bolt-01" d="M708.297 956.286c11.767-6.223 18.449-19.079 16.789-32.285l-55.915-444.001h205.495c13.308 0 25.229-8.235 29.935-20.685 4.706-12.446 1.216-26.505-8.764-35.311l-543.998-480c-9.98-8.806-24.369-10.513-36.134-4.292-11.765 6.225-18.449 19.081-16.787 32.286l55.911 444.002h-205.495c-13.307 0-25.225 8.235-29.932 20.681-4.706 12.45-1.218 26.509 8.76 35.315l543.999 479.999c9.98 8.806 24.371 10.515 36.134 4.292zM233.967 480h157.145c9.184 0 17.925-3.947 23.999-10.833s8.897-16.055 7.75-25.165l-49.864-395.977 417.039 367.974h-157.146c-9.186 0-17.924 3.947-24 10.833s-8.896 16.051-7.753 25.165l49.865 395.976-417.036-367.974z" />
<glyph unicode="&#xe964;" glyph-name="bolt-02" d="M410.329 959.983l232.099 0.002c69.777 0 114.244-72.414 87.829-135.341l-115.14-274.286c-9.698-23.108 7.313-46.57 28.817-46.57h92.318c56.452 0 82.991-66.697 47.919-107.187l-379.797-438.485c-21.715-25.071-53.802-27.051-77.244-14.75-23.299 12.228-39.842 39.351-32.947 71.189l83.301 384.695c4.717 21.786-11.526 40.538-30.717 40.538h-27.158c-64.468 0-108.857 62.707-91.889 123.657l90.721 325.855c11.511 41.346 48.681 70.684 91.888 70.685zM642.428 895.984l-232.099-0.001c-13.5 0-26.166-9.24-30.233-23.85l-90.72-325.855c-6.214-22.319 10.32-42.491 30.233-42.491h27.158c62.063 0 106.174-58.466 93.268-118.080l-83.302-384.695c-0.015-0.068-0.027-0.132-0.038-0.188l379.101 437.679c0.201 0.235 0.252 0.354 0.252 0.354l0.013 0.055c0.013 0.111 0.009 0.422-0.158 0.811-0.013 0.021-0.021 0.043-0.030 0.064h-91.938c-69.777 0-114.244 72.414-87.829 135.342l115.14 274.286c9.702 23.109-7.309 46.57-28.817 46.569z" />
<glyph unicode="&#xe965;" glyph-name="book" d="M74.667 790.857c0 92.963 74.37 169.143 167.111 169.143h540.443c92.745 0 167.113-76.18 167.113-169.143v-548.57c0-8.405-3.307-16.474-9.203-22.46l-7.693-7.804c-58.099-58.974-58.099-154.786 0-213.76 22.071-22.4 7.42-62.263-25.98-62.263h-573.605c-108.232 0-202.018 74.871-227.823 180.723l-27.249 111.774c-1.996 4.177-3.114 8.853-3.114 13.79v548.57zM148.095 210.287l19.113-78.404c18.959-77.773 87.517-131.883 165.644-131.883h519.081c-36.092 65.101-36.092 145.186 0 210.287h-703.839zM885.333 274.287v516.57c0 58.521-46.613 105.143-103.113 105.143h-540.443c-56.498 0-103.111-46.622-103.111-105.143v-516.57h746.667z" />
<glyph unicode="&#xe966;" glyph-name="book-1" d="M927.471 753.174c20.066-11.523 32.529-33.023 32.529-56.392v-577.507l-21.961 12.608c-115.273 66.189-256.806 66.189-372.079 0l-21.961-12.608v577.507c0 23.37 12.463 44.87 32.529 56.393 108.736 62.435 242.206 62.435 350.942 0zM480 119.275l-21.961 12.608c-115.273 66.189-256.806 66.189-372.079 0l-21.961-12.608v586.856c0 17.588 9.379 33.751 24.451 42.405 113.742 65.309 253.355 65.309 367.096 0 15.074-8.654 24.452-24.817 24.452-42.405v-586.856zM513.399 783.496c-7.497 7.983-16.218 14.933-25.984 20.541-133.475 76.64-297.356 76.64-430.832 0-35.038-20.118-56.583-57.502-56.583-97.907v-642.13c0-11.418 6.085-21.973 15.967-27.695s22.064-5.743 31.967-0.055l69.895 40.132c95.538 54.857 212.803 54.857 308.342 0l69.893-40.132c9.869-5.666 22.003-5.666 31.872 0l69.892 40.132c95.539 54.857 212.804 54.857 308.343 0l69.892-40.132c9.903-5.687 22.089-5.666 31.97 0.055s15.966 16.277 15.966 27.695v632.782c0 46.185-24.627 88.908-64.661 111.894-128.469 73.766-286.208 73.766-414.677 0-11.849-6.804-22.353-15.339-31.262-25.18zM171.429 582.104c0-17.673 14.327-32 32-32h137.143c17.673 0 32 14.327 32 32s-14.327 32-32 32h-137.143c-17.673 0-32-14.327-32-32zM171.429 373.265c0-17.673 14.327-32 32-32h137.143c17.673 0 32 14.327 32 32s-14.327 32-32 32h-137.143c-17.673 0-32-14.327-32-32z" />
<glyph unicode="&#xe967;" glyph-name="book-2" d="M1019.652 178.654l-166.4 625.036c-12.8 51.023-68.267 80.787-119.467 68.031l-123.733-34.016c-12.8-4.252-25.6-8.504-34.133-17.008-17.067 29.763-46.933 46.771-85.333 46.771h-132.269c-25.6 0-46.933-8.504-64-25.512-17.067 17.008-42.667 29.764-68.267 29.764h-128c-55.467 0-98.133-46.771-98.133-97.795v-646.293c0-55.275 42.667-97.796 98.133-97.796h132.267c25.6 0 46.933 8.503 64 25.51 17.067-17.007 38.4-25.51 64-25.51h132.269c55.467 0 98.133 42.522 98.133 97.796v416.688l119.467-450.706c12.8-42.517 51.2-72.282 93.867-72.282 8.533 0 17.067 0 25.6 4.254l123.733 34.014c25.6 8.503 46.933 21.261 59.733 46.771 12.8 21.261 17.067 46.771 8.533 72.282zM260.183 127.633c0-17.007-12.8-34.018-34.133-34.018h-128c-17.067 0-34.133 12.757-34.133 34.018v106.295c64 25.515 132.267 25.515 196.267 0v-106.295zM260.183 301.961c-34.133 8.503-64 17.007-98.133 17.007s-64-4.25-98.133-17.007v289.132c68.267 25.512 132.267 25.512 196.267 0v-289.132zM260.183 659.124c-64 21.26-128 21.26-196.267 0v114.802c0 17.008 12.8 34.016 34.133 34.016h132.267c17.067 0 34.133-12.756 34.133-34.016v-114.802h-4.267zM520.452 127.633c0-17.007-12.8-34.018-34.133-34.018h-128.002c-17.067 0-34.133 12.757-34.133 34.018v106.295c64 25.515 132.269 25.515 196.269 0v-106.295zM520.452 301.961c-29.867 8.503-64 12.757-98.135 12.757-34.133 0-64-4.254-98.133-12.757v289.132c64 25.512 132.269 25.512 196.269 0v-289.132zM520.452 659.124c-64 21.26-132.269 21.26-196.269 0v114.802c0 17.008 17.067 29.763 34.133 29.763h132.269c17.067 0 34.133-12.756 34.133-34.016v-110.55h-4.267zM601.519 735.658c-4.267 8.504 0 17.008 4.267 25.512s12.8 12.756 21.333 17.008l123.733 34.016c17.067 4.252 34.133-4.252 38.4-21.26l25.6-89.291c-68.267 4.252-132.267-12.756-187.733-51.023l-25.6 85.039zM729.519 263.693l-85.333 318.896c55.467 38.267 123.733 59.527 187.733 51.023l85.333-318.894c-64 0-132.267-17.007-187.733-51.025zM955.652 140.386c-4.267-8.503-12.8-12.753-21.333-17.007l-123.733-34.014c-17.067-4.254-34.133 4.25-38.4 21.261l-21.333 85.035c55.467 38.268 123.733 59.529 187.733 51.025l21.333-85.039c0-8.503 0-17.007-4.267-21.261z" />
<glyph unicode="&#xe968;" glyph-name="bookmark-01" d="M373.334 896.021c-100.138 0-181.333-81.206-181.333-181.401l-0.001-693.167c0-16.653 18.185-26.871 32.387-18.261l243.381 147.55c27.187 16.482 61.278 16.482 88.465 0l243.379-147.55c14.204-8.61 32.388 1.609 32.388 18.261v693.167c0 100.195-81.195 181.401-181.333 181.401h-277.332zM128.001 714.62c0 135.522 109.83 245.401 245.333 245.401h277.332c135.505 0 245.333-109.879 245.333-245.401v-693.167c0-66.496-72.683-107.473-129.566-72.986l-243.379 147.55c-6.797 4.117-15.313 4.117-22.11 0l-243.38-147.55c-56.884-34.487-129.565 6.49-129.565 72.986l0.001 693.167z" />
<glyph unicode="&#xe969;" glyph-name="bookmark-02" d="M86.504 895.938h110.839v-287.533l-130.829 254.796c-7.679 14.955 3.18 32.738 19.991 32.738zM261.342 895.938h512.729c102.66 0 185.886-83.226 185.886-185.889v-687.367c0-17.254-18.637-28.075-33.621-19.511l-272.785 155.874c-26.581 15.189-59.217 15.189-85.803 0l-272.785-155.874c-14.981-8.563-33.621 2.257-33.621 19.511v873.256zM197.342 468.292v-445.611c0-66.398 71.727-108.023 129.374-75.081l272.785 155.874c6.908 3.947 15.39 3.947 22.298 0l272.785-155.874c57.647-32.943 129.374 8.683 129.374 75.081v687.367c0 138.010-111.876 249.889-249.886 249.889h-687.568c-64.688 0-106.472-68.426-76.924-125.971l187.762-365.674z" />
<glyph unicode="&#xe96a;" glyph-name="bookmark-03" d="M143.223 895.979c-70.917 0-106.004-86.35-55.043-135.875l81.57-79.272c49.263-47.875 77.056-113.663 77.056-182.375v-474.748c0-18.125 19.531-29.397 35.168-20.454l277.988 158.976c26.91 15.386 59.947 15.386 86.857 0l277.99-158.976c15.637-8.943 35.166 2.33 35.166 20.454v682.047c0 105.080-85.111 190.222-190.046 190.222h-626.705zM43.576 714.208c-92.090 89.496-28.836 245.772 99.647 245.772h626.705c140.331 0 254.046-113.843 254.046-254.222v-682.047c0-67.187-72.559-109.397-130.94-76.011l-277.986 158.972c-7.223 4.134-16.090 4.134-23.313 0l-277.99-158.972c-58.378-33.387-130.94 8.823-130.94 76.011v474.748c0 51.429-20.803 100.659-57.66 136.478l-81.57 79.272z" />
<glyph unicode="&#xe96b;" glyph-name="bookmark-04" d="M0 714.667c0 135.494 109.839 245.333 245.333 245.333h533.333c135.492 0 245.333-109.839 245.333-245.333v-533.333c0-135.492-109.841-245.333-245.333-245.333h-533.333c-135.494 0-245.333 109.841-245.333 245.333v533.333zM213.333 893.185c-84.886-15.114-149.333-89.29-149.333-178.519v-533.333c0-100.147 81.186-181.333 181.333-181.333h533.333c100.147 0 181.333 81.186 181.333 181.333v533.333c0 89.229-64.448 163.405-149.333 178.519v-499.551c0-71.552-82.769-111.334-138.641-66.637l-146.701 117.363c-7.791 6.229-18.859 6.229-26.65 0l-146.701-117.363c-55.873-44.698-138.641-4.915-138.641 66.637v499.551zM277.333 890.667v-497.033c0-17.89 20.692-27.836 34.66-16.661l146.699 117.363c31.164 24.93 75.452 24.93 106.615 0l146.701-117.363c13.965-11.174 34.658-1.229 34.658 16.661v497.033h-469.333z" />
<glyph unicode="&#xe96c;" glyph-name="bookmark-05" d="M338.269 896.021c-110.281 0-199.682-89.513-199.682-199.932v-611.929c0-64.474 69.561-104.892 125.467-72.905l174.627 99.913c45.431 25.993 101.205 25.993 146.637 0l174.626-99.913c55.906-31.987 125.47 8.431 125.47 72.905v611.929c0 110.419-89.404 199.932-199.684 199.932h-347.462zM74.667 696.089c0 145.766 118.019 263.932 263.602 263.932h347.462c145.583 0 263.603-118.166 263.603-263.932v-611.929c0-113.613-122.581-184.841-221.103-128.474l-174.622 99.913c-25.783 14.75-57.434 14.75-83.217 0l-174.624-99.913c-98.519-56.367-221.101 14.861-221.101 128.474v611.929zM663.134 537.202c12.48-12.496 32.717-12.496 45.197 0s12.48 32.758 0 45.255c-108.429 108.566-284.231 108.566-392.661 0-12.481-12.497-12.481-32.758 0-45.255s32.717-12.496 45.199 0c83.467 83.572 218.797 83.572 302.266 0z" />
<glyph unicode="&#xe96d;" glyph-name="box" d="M410.96 932.87c62.478 36.173 139.602 36.173 202.079 0l268.045-155.185c31.049-17.975 56.137-43.531 73.442-73.548 17.271-29.951 26.807-64.362 26.807-100.12v-312.038c0-71.603-38.221-137.754-100.25-173.666l-268.045-155.183c-31.241-18.091-66.15-27.132-101.039-27.132s-69.798 9.041-101.040 27.132l-268.043 155.183c-62.030 35.913-100.25 102.063-100.25 173.666v312.038c0 35.758 9.536 70.169 26.807 100.12 17.309 30.016 42.396 55.572 73.444 73.548l268.043 155.185zM580.975 877.483c-42.645 24.689-95.305 24.689-137.95 0l-268.041-155.185c-11.566-6.696-21.912-14.927-30.841-24.35l270.548-156.635c30.079-17.414 63.683-26.127 97.309-26.127s67.23 8.713 97.31 26.127l270.549 156.635c-8.93 9.423-19.277 17.654-30.844 24.35l-268.041 155.185zM911.795 642.488l-270.421-156.561c-30.434-17.621-63.582-28.535-97.374-32.751v-449.412c12.804 3.059 25.267 7.974 36.975 14.754l268.041 155.183c42.321 24.503 68.318 69.577 68.318 118.281v312.038c0 13.205-1.911 26.14-5.538 38.47zM480 3.763v449.412c-33.792 4.215-66.941 15.13-97.376 32.751l-270.421 156.561c-3.628-12.33-5.537-25.264-5.537-38.47v-312.038c0-48.704 25.997-93.777 68.317-118.281l268.041-155.183c11.708-6.78 24.171-11.695 36.975-14.754z" />
<glyph unicode="&#xe96e;" glyph-name="brackets" d="M110.28 722.669c5.698-44.94-6.033-94.853-27.003-141.394-20.901-46.386-49.615-86.367-73.904-110.653-12.497-12.497-12.497-32.759 0-45.257 24.289-24.29 53.003-64.269 73.904-110.656 20.971-46.541 32.701-96.452 27.003-141.393-14.913-117.619 70.825-237.321 196.004-237.321 17.673 0 32 14.327 32 32s-14.327 32-32 32c-80.168 0-143.429 79.172-132.512 165.269 7.701 60.736-8.363 122.957-32.145 175.735-18.506 41.075-42.519 78.289-66.434 106.991 23.916 28.702 47.928 65.92 66.434 106.991 23.782 52.781 39.846 115 32.145 175.736-10.917 86.099 52.345 165.271 132.512 165.271 17.673 0 32 14.327 32 32s-14.327 32-32 32c-125.179 0-210.917-119.703-196.004-237.32zM685.717 927.99c0-17.673 14.327-32 32-32 80.166 0 143.428-79.172 132.51-165.271-7.701-60.736 8.363-122.955 32.145-175.736 18.509-41.071 42.522-78.289 66.436-106.991-23.915-28.702-47.927-65.916-66.436-106.991-23.782-52.779-39.846-114.999-32.145-175.735 10.918-86.097-52.343-165.269-132.51-165.269-17.673 0-32-14.327-32-32s14.327-32 32-32c125.18 0 210.914 119.701 196.002 237.321-5.696 44.941 6.033 94.852 27.004 141.393 20.902 46.387 49.617 86.366 73.903 110.656 12.497 12.497 12.497 32.759 0 45.257-24.286 24.286-53.001 64.267-73.903 110.653-20.971 46.541-32.7 96.454-27.004 141.394 14.912 117.617-70.822 237.32-196.002 237.32-17.673 0-32-14.327-32-32z" />
<glyph unicode="&#xe96f;" glyph-name="brackets-1" d="M96.546 679.181c4.786-36.428-5.040-77.415-23.146-116.195-18.021-38.596-42.789-71.855-63.622-91.959-6.249-6.033-9.778-14.345-9.778-23.027s3.529-16.994 9.778-23.027c20.833-20.105 45.601-53.363 63.622-91.959 18.106-38.78 27.932-79.765 23.146-116.194-13.548-103.117 64.265-206.153 175.454-206.153 17.673 0 32 14.327 32 32s-14.327 32-32 32c-68.49 0-121.053 64.905-112 133.815 6.938 52.813-7.556 106.513-28.61 151.607-15.604 33.421-35.619 63.859-55.81 87.91 20.191 24.051 40.206 54.49 55.81 87.911 21.054 45.094 35.548 98.796 28.61 151.607-9.053 68.911 43.509 133.815 112 133.815 17.673 0 32 14.327 32 32s-14.327 32-32 32c-111.19 0-189.002-103.034-175.454-206.152zM720 853.333c0-17.673 14.327-32 32-32 68.489 0 121.054-64.905 112-133.815-6.938-52.811 7.556-106.513 28.608-151.607 15.607-33.422 35.618-63.86 55.812-87.911-20.194-24.051-40.205-54.49-55.812-87.91-21.052-45.094-35.546-98.795-28.608-151.607 9.054-68.911-43.511-133.815-112-133.815-17.673 0-32-14.327-32-32s14.327-32 32-32c111.189 0 189.001 103.036 175.454 206.153-4.787 36.429 5.039 77.414 23.147 116.194 18.022 38.596 42.79 71.855 63.62 91.959 6.251 6.033 9.779 14.345 9.779 23.027s-3.529 16.994-9.779 23.027c-20.83 20.105-45.598 53.363-63.62 91.959-18.108 38.779-27.934 79.767-23.147 116.195 13.547 103.118-64.265 206.152-175.454 206.152-17.673 0-32-14.327-32-32zM450.001 737.525c0-0.468 0.004-0.934 0.017-1.398 0.785-34.054 29.261-59.555 61.982-59.555s61.197 25.501 61.982 59.555c0.013 0.464 0.017 0.93 0.017 1.398 0 34.726-28.838 60.952-61.999 60.952s-61.999-26.227-61.999-60.952zM450.001 448c0-0.465 0.004-0.934 0.017-1.395 0.785-34.057 29.261-59.554 61.982-59.554s61.197 25.498 61.982 59.554c0.013 0.461 0.017 0.93 0.017 1.395 0 34.726-28.838 60.954-61.999 60.954s-61.999-26.227-61.999-60.954zM450.001 158.477c0-0.465 0.004-0.934 0.017-1.395 0.785-34.057 29.261-59.558 61.982-59.558s61.197 25.502 61.982 59.558c0.013 0.461 0.017 0.93 0.017 1.395 0 34.726-28.838 60.954-61.999 60.954s-61.999-26.227-61.999-60.954z" />
<glyph unicode="&#xe970;" glyph-name="briefcase-01" d="M592 325.333c0-44.181-35.819-80-80-80s-80 35.819-80 80c0 44.181 35.819 80 80 80s80-35.819 80-80zM245.333 768c-135.494 0-245.333-109.839-245.333-245.333v-309.346c0-135.492 109.839-245.333 245.333-245.333h533.333c135.492 0 245.333 109.841 245.333 245.333v273.754c0-0.013 0 0.013 0 0v35.593c0 135.494-109.841 245.333-245.333 245.333h-77.308c-15.194 90.921-94.059 160-189.359 160s-174.166-69.079-189.357-160h-77.309zM960 487.433c-0.307-3.802-0.922-9.331-2.146-16.017-2.543-13.943-7.578-32.119-17.353-49.958-9.673-17.664-23.851-34.786-44.937-47.62-21.018-12.796-50.697-22.421-93.129-22.421h-93.103c-17.673 0-32-14.327-32-32s14.327-32 32-32h93.103c52.501 0 94.025 12.041 126.404 31.748 11.776 7.168 22.106 15.206 31.159 23.77v-129.613c0-100.147-81.186-181.333-181.333-181.333h-533.333c-100.148 0-181.333 81.186-181.333 181.333v129.899c9.126-8.67 19.555-16.806 31.463-24.055 32.38-19.708 73.902-31.748 126.403-31.748h92.585c17.673 0 32 14.327 32 32s-14.327 32-32 32h-92.585c-42.432 0-72.11 9.626-93.13 22.421-21.087 12.834-35.263 29.956-44.937 47.62-9.772 17.839-14.808 36.015-17.353 49.958-1.26 6.903-1.875 12.574-2.173 16.384-0.073 0.93-0.164 1.86-0.273 2.79v32.077c0 100.148 81.186 181.333 181.333 181.333h533.333c100.147 0 181.333-81.186 181.333-181.333v-35.234zM512 864c59.806 0 109.837-40.701 123.994-96h-247.986c14.156 55.299 64.186 96 123.992 96z" />
<glyph unicode="&#xe971;" glyph-name="briefcase-02" d="M245.333 767.962h77.303c15.175 90.94 94.049 160.038 189.364 160.038 95.313 0 174.187-69.099 189.363-160.038h77.303c135.492 0 245.333-109.84 245.333-245.333v-309.295c0-135.492-109.841-245.333-245.333-245.333h-533.333c-135.494 0-245.333 109.841-245.333 245.333v309.295c0 135.494 109.839 245.333 245.333 245.333zM960 492.672v29.956c0 100.148-81.186 181.333-181.333 181.333h-533.333c-100.148 0-181.333-81.186-181.333-181.333v-29.956l0.025-0.836c0.031-0.858 0.099-2.274 0.248-4.173 0.298-3.81 0.913-9.485 2.173-16.384 2.545-13.943 7.581-32.119 17.353-49.963 9.674-17.66 23.851-34.786 44.937-47.616 21.020-12.796 50.698-22.421 93.13-22.421h155.149c14.396 61.227 69.371 106.803 134.988 106.803s120.593-45.577 134.989-106.803h155.14c42.432 0 72.111 9.626 93.129 22.421 21.090 12.83 35.264 29.956 44.937 47.616 9.775 17.843 14.81 36.019 17.357 49.963 1.259 6.899 1.873 12.574 2.172 16.384 0.149 1.899 0.218 3.315 0.247 4.173l0.026 0.836zM646.929 287.279c-14.498-61.086-69.406-106.53-134.925-106.53s-120.428 45.444-134.924 106.53h-155.214c-52.502 0-94.023 12.041-126.403 31.748-11.908 7.249-22.337 15.386-31.463 24.055v-129.749c0-100.147 81.186-181.333 181.333-181.333h533.333c100.147 0 181.333 81.186 181.333 181.333v129.749c-9.126-8.67-19.554-16.806-31.462-24.055-32.38-19.708-73.903-31.748-126.404-31.748h-155.204zM512 864c-59.819 0-109.859-40.72-124.002-96.038h248.004c-14.144 55.319-64.183 96.038-124.002 96.038zM437.338 319.415c0-41.237 33.429-74.667 74.667-74.667s74.667 33.429 74.667 74.667c0 41.237-33.429 74.667-74.667 74.667s-74.667-33.429-74.667-74.667z" />
<glyph unicode="&#xe972;" glyph-name="briefcase-03" d="M754.679 768.083c-15.236 90.807-94.212 160-189.346 160h-106.667c-95.136 0-174.111-69.193-189.345-160h-23.988c-135.494 0-245.333-109.839-245.333-245.331v-309.504c0-135.492 109.839-245.333 245.333-245.333h533.333c135.492 0 245.333 109.841 245.333 245.333v309.504c0 135.492-109.841 245.331-245.333 245.331h-23.987zM245.333 704.083h533.333c41.429 0 79.612-13.893 110.148-37.275-79.433-123.961-218.735-205.872-376.815-205.872s-297.382 81.91-376.815 205.871c30.534 23.382 68.719 37.276 110.148 37.276zM64 522.752c0 34.87 9.844 67.443 26.903 95.090 73.343-106.29 186.136-183.303 317.069-210.328-15.088-21.005-23.972-46.763-23.972-74.598 0-70.69 57.306-128 128-128s128 57.31 128 128c0 27.836-8.883 53.594-23.974 74.598 130.935 27.025 243.729 104.038 317.069 210.33 17.062-27.647 26.906-60.221 26.906-95.091v-309.504c0-100.147-81.186-181.333-181.333-181.333h-533.333c-100.148 0-181.333 81.186-181.333 181.333v309.504zM689.301 768.083h-354.602c14.21 55.207 64.325 96 123.968 96h106.667c59.644 0 109.76-40.793 123.968-96zM448 332.915c0 35.349 28.655 64 64 64s64-28.651 64-64c0-35.345-28.655-64-64-64s-64 28.655-64 64z" />
</font>
</defs>
</svg>
