<svg width="161" height="37" viewBox="0 0 161 37" fill="none" xmlns="http://www.w3.org/2000/svg">
<path fill-rule="evenodd" clip-rule="evenodd" d="M9.963 2.31087C12.3821 1.10172 15.1116 0.421387 18 0.421387C27.9411 0.421387 36 8.48026 36 18.4214C36 21.7579 35.0922 24.8824 33.5101 27.5613C31.7154 27.6252 29.9359 27.3719 28.3066 26.8183C27.4031 26.5229 26.5276 26.13 25.7246 25.6396C26.1969 25.0254 26.6087 24.3678 26.9419 23.6774C28.1983 21.1431 28.5015 18.2405 27.9817 15.5328C27.7217 14.1898 27.2668 12.8685 26.682 11.6555C26.0971 10.4208 25.3607 9.29443 24.5592 8.21138C24.4292 8.03809 24.2776 7.88646 24.0827 7.77815C23.2812 7.30161 22.2631 7.56154 21.7866 8.34134L21.6999 8.47131C20.5736 10.8324 19.6421 13.3234 19.3605 16.031C19.2306 17.374 19.2739 18.7603 19.5772 20.1033C19.8804 21.4463 20.4869 22.746 21.3317 23.8074C21.6231 24.181 21.9429 24.5263 22.284 24.8441C21.5309 25.4905 20.6648 25.9977 19.7288 26.3201C18.754 26.6666 17.736 26.8183 16.6962 26.7966C15.6565 26.7749 14.5951 26.58 13.6637 26.2334C12.7106 25.8868 11.8658 25.3453 11.1077 24.6955C10.3712 24.024 9.72134 23.2225 9.20148 22.3344C8.68161 21.4463 8.24839 20.4716 7.94514 19.4535C7.64188 18.4138 7.42527 17.3524 7.31697 16.2693C7.25323 15.7382 7.23117 15.1862 7.20991 14.6543L7.20866 14.6231C7.187 14.0815 7.20866 13.5183 7.23032 12.9768C7.29531 11.8721 7.40361 10.7674 7.62022 9.68433C8.03178 7.49656 8.72493 5.35211 9.65636 3.35929C9.74301 3.14268 9.82965 2.9044 9.89463 2.66613C9.92359 2.54768 9.94631 2.42914 9.963 2.31087ZM1.62593 10.9349C1.63784 11.6534 1.67091 12.3723 1.7284 13.0851C1.79338 13.7566 1.85836 14.4281 1.96667 15.0996C2.07497 15.7711 2.18328 16.4426 2.33491 17.1141C2.63817 18.4354 3.04972 19.7567 3.59125 21.0348C4.13278 22.3128 4.78261 23.5691 5.6274 24.7171C6.45052 25.8868 7.46859 26.9266 8.63829 27.793C9.80799 28.6595 11.1293 29.3093 12.5156 29.7209C13.2088 29.9375 13.9236 30.0674 14.6168 30.1541C15.3316 30.2407 16.0247 30.2624 16.7395 30.2407C18.1692 30.1974 19.5771 29.8941 20.8985 29.3526C21.5483 29.071 22.1765 28.7461 22.783 28.3562C23.3678 27.988 23.931 27.5331 24.4509 27.0565C24.6013 26.9125 24.7484 26.7647 24.8919 26.6133C25.8998 27.1032 26.9652 27.4393 28.0466 27.6631C29.303 27.923 30.5593 28.0096 31.8157 27.9663C32.3331 27.9395 32.8469 27.8907 33.3554 27.8184C30.1906 32.9789 24.4973 36.4214 18 36.4214C8.05888 36.4214 0 28.3625 0 18.4214C0 15.75 0.581928 13.2146 1.62593 10.9349ZM23.4128 23.6638C23.7424 23.2438 24.0329 22.7911 24.2776 22.3128C24.7542 21.3813 25.0574 20.3633 25.1874 19.3019C25.3173 18.2405 25.2307 17.1791 25.0141 16.1177C24.7975 15.0563 24.3859 14.0382 23.866 13.0851C23.7391 12.8618 23.6063 12.6408 23.4675 12.423C22.814 13.7163 22.2924 15.056 21.9815 16.4209C21.7433 17.5257 21.635 18.6304 21.7649 19.7134C21.8732 20.7965 22.2198 21.8579 22.8047 22.811C22.987 23.1081 23.1904 23.3926 23.4128 23.6638Z" fill="white"/>
<path d="M45 14.703H49.9185V29.9701L47.6363 30.2849C46.8231 30.2849 46.1804 30.0488 45.7083 29.5766C45.2361 29.1044 45 28.4748 45 27.6879V14.703ZM47.6363 30.2849V26.2713H60.149C60.3064 26.455 60.4376 26.7173 60.5425 27.0583C60.6737 27.3993 60.7393 27.7797 60.7393 28.1994C60.7393 28.8814 60.5688 29.4061 60.2277 29.7733C59.913 30.1144 59.4801 30.2849 58.9293 30.2849H47.6363ZM49.9185 20.1724H45V6.36117C45.2099 6.30871 45.5246 6.24313 45.9444 6.16443C46.3903 6.08573 46.8362 6.04639 47.2822 6.04639C48.2003 6.04639 48.8692 6.21689 49.289 6.55791C49.7087 6.8727 49.9185 7.46292 49.9185 8.32858V20.1724Z" fill="white"/>
<path d="M66.1327 23.3989L65.936 20.015L76.5207 18.4804C76.442 17.4574 76.0485 16.5786 75.3402 15.8441C74.6582 15.0833 73.6614 14.703 72.3497 14.703C70.9857 14.703 69.8577 15.1752 68.9658 16.1195C68.0739 17.0639 67.6148 18.4148 67.5886 20.1724L67.7067 22.1791C67.9165 23.858 68.5592 25.104 69.6347 25.9172C70.7102 26.7042 72.0743 27.0977 73.7269 27.0977C74.8287 27.0977 75.8517 26.9403 76.7961 26.6255C77.7404 26.2845 78.4881 25.9172 79.0389 25.5237C79.38 25.7598 79.6554 26.0615 79.8652 26.4287C80.1013 26.7698 80.2194 27.137 80.2194 27.5305C80.2194 28.2125 79.9177 28.8027 79.3144 29.3012C78.7373 29.7733 77.9372 30.1406 76.9141 30.4029C75.8911 30.6652 74.7238 30.7964 73.4121 30.7964C71.3923 30.7964 69.5954 30.4291 68.0214 29.6946C66.4738 28.9339 65.2671 27.8059 64.4014 26.3107C63.5358 24.8155 63.1029 22.9661 63.1029 20.7626C63.1029 19.1362 63.339 17.7197 63.8112 16.513C64.3096 15.3063 64.9785 14.3095 65.818 13.5225C66.6836 12.7093 67.6804 12.106 68.8084 11.7125C69.9364 11.2928 71.1168 11.083 72.3497 11.083C74.0811 11.083 75.5894 11.4371 76.8748 12.1454C78.1864 12.8274 79.2094 13.7849 79.9439 15.0178C80.6784 16.2507 81.0457 17.6672 81.0457 19.2674C81.0457 20.0019 80.8621 20.5527 80.4948 20.92C80.1276 21.261 79.6029 21.4709 78.9209 21.5496L66.1327 23.3989Z" fill="white"/>
<path d="M89.789 16.0408V21.4709H84.9885V15.6867C84.9885 15.0309 85.1459 14.48 85.4607 14.0341C85.7755 13.5619 86.2214 13.1422 86.7985 12.7749C87.5855 12.2765 88.5823 11.8699 89.789 11.5551C90.9957 11.2403 92.2941 11.083 93.6844 11.083C96.124 11.083 97.3438 11.8437 97.3438 13.3651C97.3438 13.7062 97.2914 14.0341 97.1864 14.3489C97.0815 14.6636 96.9503 14.926 96.793 15.1358C96.5306 15.0834 96.2027 15.044 95.8093 15.0178C95.4158 14.9653 95.0092 14.9391 94.5895 14.9391C93.6189 14.9391 92.7139 15.044 91.8744 15.2539C91.0612 15.4637 90.3661 15.726 89.789 16.0408ZM84.9885 19.8576L89.789 20.0937V30.1668C89.5791 30.2455 89.2775 30.3111 88.884 30.3636C88.4905 30.4423 88.0708 30.4816 87.6248 30.4816C86.7329 30.4816 86.064 30.3242 85.6181 30.0094C85.1984 29.6946 84.9885 29.1175 84.9885 28.2781V19.8576Z" fill="white"/>
<path d="M117.399 18.0869V21.943H112.638V18.2837C112.638 17.1032 112.297 16.2507 111.615 15.726C110.959 15.1752 110.068 14.8997 108.94 14.8997C108.153 14.8997 107.431 15.0047 106.775 15.2145C106.12 15.3981 105.542 15.6342 105.044 15.9228V21.943H100.244V15.608C100.244 14.9784 100.375 14.4669 100.637 14.0734C100.899 13.6799 101.306 13.2996 101.857 12.9323C102.618 12.4339 103.614 12.0011 104.847 11.6338C106.106 11.2666 107.484 11.083 108.979 11.083C111.628 11.083 113.688 11.6732 115.157 12.8536C116.652 14.0341 117.399 15.7785 117.399 18.0869ZM100.244 19.9756H105.044V30.1668C104.834 30.2455 104.533 30.3111 104.139 30.3636C103.746 30.4423 103.326 30.4816 102.88 30.4816C101.988 30.4816 101.319 30.3242 100.873 30.0094C100.453 29.6946 100.244 29.1175 100.244 28.2781V19.9756ZM112.638 19.9756H117.399V30.1668C117.216 30.2455 116.914 30.3111 116.494 30.3636C116.101 30.4423 115.681 30.4816 115.235 30.4816C114.343 30.4816 113.688 30.3242 113.268 30.0094C112.848 29.6946 112.638 29.1175 112.638 28.2781V19.9756Z" fill="white"/>
<path d="M124.617 23.3989L124.42 20.015L135.005 18.4804C134.926 17.4574 134.533 16.5786 133.825 15.8441C133.142 15.0833 132.146 14.703 130.834 14.703C129.47 14.703 128.342 15.1752 127.45 16.1195C126.558 17.0639 126.099 18.4148 126.073 20.1724L126.191 22.1791C126.401 23.858 127.043 25.104 128.119 25.9172C129.195 26.7042 130.559 27.0977 132.211 27.0977C133.313 27.0977 134.336 26.9403 135.28 26.6255C136.225 26.2845 136.972 25.9172 137.523 25.5237C137.864 25.7598 138.14 26.0615 138.35 26.4287C138.586 26.7698 138.704 27.137 138.704 27.5305C138.704 28.2125 138.402 28.8027 137.799 29.3012C137.222 29.7733 136.421 30.1406 135.398 30.4029C134.375 30.6652 133.208 30.7964 131.896 30.7964C129.877 30.7964 128.08 30.4291 126.506 29.6946C124.958 28.9339 123.751 27.8059 122.886 26.3107C122.02 24.8155 121.587 22.9661 121.587 20.7626C121.587 19.1362 121.823 17.7197 122.295 16.513C122.794 15.3063 123.463 14.3095 124.302 13.5225C125.168 12.7093 126.165 12.106 127.293 11.7125C128.421 11.2928 129.601 11.083 130.834 11.083C132.565 11.083 134.074 11.4371 135.359 12.1454C136.671 12.8274 137.694 13.7849 138.428 15.0178C139.163 16.2507 139.53 17.6672 139.53 19.2674C139.53 20.0019 139.346 20.5527 138.979 20.92C138.612 21.261 138.087 21.4709 137.405 21.5496L124.617 23.3989Z" fill="white"/>
<path d="M160.629 18.0869V21.943H155.867V18.2837C155.867 17.1032 155.526 16.2507 154.844 15.726C154.189 15.1752 153.297 14.8997 152.169 14.8997C151.382 14.8997 150.66 15.0047 150.005 15.2145C149.349 15.3981 148.772 15.6342 148.273 15.9228V21.943H143.473V15.608C143.473 14.9784 143.604 14.4669 143.866 14.0734C144.129 13.6799 144.535 13.2996 145.086 12.9323C145.847 12.4339 146.844 12.0011 148.077 11.6338C149.336 11.2666 150.713 11.083 152.208 11.083C154.858 11.083 156.917 11.6732 158.386 12.8536C159.881 14.0341 160.629 15.7785 160.629 18.0869ZM143.473 19.9756H148.273V30.1668C148.063 30.2455 147.762 30.3111 147.368 30.3636C146.975 30.4423 146.555 30.4816 146.109 30.4816C145.217 30.4816 144.548 30.3242 144.102 30.0094C143.683 29.6946 143.473 29.1175 143.473 28.2781V19.9756ZM155.867 19.9756H160.629V30.1668C160.445 30.2455 160.143 30.3111 159.724 30.3636C159.33 30.4423 158.91 30.4816 158.464 30.4816C157.573 30.4816 156.917 30.3242 156.497 30.0094C156.077 29.6946 155.867 29.1175 155.867 28.2781V19.9756Z" fill="white"/>
</svg>
